/* XPM */
static char *result[] = {
/* columns rows colors chars-per-pixel */
"64 64 21 1 ",
"  c black",
". c #2B1F0E",
"X c #281820",
"o c #433016",
"O c #4B3618",
"+ c #7B5828",
"@ c #293D4B",
"# c gray26",
"$ c #9E3E37",
"% c #B2803B",
"& c #D28560",
"* c #EAA377",
"= c #5187B3",
"- c #50D4EC",
"; c #958080",
": c #C4B59F",
"> c #FDD5B7",
", c #E5E6C7",
"< c #FBECE6",
"1 c #F2F8F9",
"2 c white",
/* pixels */
"                                                                ",
"                                                                ",
"                                                                ",
"                                                                ",
"                                                                ",
"                                                                ",
"                                                                ",
"                                                                ",
"                                                                ",
"                                                                ",
"                                                                ",
"                                                                ",
"                                                                ",
"                                                                ",
"                                                                ",
"                           XXXXXXXXXX                           ",
"                         XX$&*>>>**&$XX                         ",
"                        X$*>>>>>>>>**&$X                        ",
"                       X$*>>>>>>>>>>>**$X                       ",
"                       X*>><<<>>>>>>>>*&X                       ",
"                      X$>>><<<>>>>>>>>**$X                      ",
"                      X&>>><<<>>>>>>>>>*&X                      ",
"                      X*>>>>>>>>>>>>>>>**X                      ",
"                      X*>>>>>>>>>>>>>>>**X                      ",
"                      X*>>>>>>>>>>>>>>>**X                      ",
"                      X&>>>>>>>>>>>>>>>*&X                      ",
"                     X$&*>>>>>>>>>>>>>**&$X                     ",
"                     X>&**><<>>>>>><<***&>X                     ",
"                     X>&**&$$*>>>>*$$&*&*>X                     ",
"                     X>>&*-XX-*>>*-XX-*&>>X                     ",
"                      X>&*1X=1>>>>1=X1*&>X                      ",
"                       XX*>@@1>>>>1@@>*XX                       ",
"                     XXXX&>>>>>>>>>>>>&XXXX                     ",
"                    X#::X$*>>>>>>>>>>*$X::#X                    ",
"                   X#222,X$$*>>>>>>*$$X,222#X                   ",
"                   X:222,,XX$$$$$$$$XX,,222:X                   ",
"                  X;,22,,,,:XXXXXXXX:,,,,22,;X                  ",
"                  X;,,,,,,,,::::::::,,,,,,,,;X                  ",
"                  X;::;::,,,,,,,,,,,,,,::;::;X                  ",
"                 X#::;#;:,,,,,,,,,,,,,,:;#;::#X                 ",
"                 X::::##::,,,,,,,,,,,,::##::::X                 ",
"                 X2,:;XX;:,2,,,,,,,,2,:;XX;:,2X                 ",
"                 X2,:X2X#;:,22,,,,22,:;#X2X:,2X                 ",
"                 X22XX22X;;;:,,,,,,:;;;X22XXX2X                 ",
"                 XXX&XX2X:::,,2222,,:::X2XX&>XX                 ",
"                 X*>>*XX.XX:,22,,22,:XX.XX*>>*X                 ",
"                 X*<>>>XO++XXXXXXXXXX++OX>>><*X                 ",
"                 X&>>$>X++O+++%%%%+++O++X>$>>&X                 ",
"                 X$>>$$X++OO++++++++OO++X$$>>$X                 ",
"                  X&>**X%%+OoO++++OoO+%%X**>&X                  ",
"                   XXXXO%%%++o....o++%%%OXXXX                   ",
"                      .O%%++o.    .o++%%O.                      ",
"                      .O%%+O.      .O+%%O.                      ",
"                      .O+++o.      .o+++O.                      ",
"                      .oO++.        .++Oo.                      ",
"                      ......        ......                      ",
"                     X&****$X      X$****&X                     ",
"                     X*>>>*&X      X&*>>>*X                     ",
"                    X&>>>>>*X      X*>>>>>&X                    ",
"                    X>>>>>>*X      X*>>>>>>X                    ",
"                    X*><&<<X        X<<&<>*X                    ",
"                     XXXXXX          XXXXXX                     ",
"                                                                ",
"                                                                "
};
