/* XPM */
static char *result[] = {
/* columns rows colors chars-per-pixel */
"64 64 21 1 ",
"  c black",
". c #2B1F0E",
"X c #281820",
"o c #433016",
"O c #4B3618",
"+ c #7B5828",
"@ c #293D4B",
"# c gray26",
"$ c #9E3E37",
"% c #B2803B",
"& c #D28560",
"* c #EAA377",
"= c #5187B3",
"- c #50D4EC",
"; c #958080",
": c #C4B59F",
"> c #FDD5B7",
", c #E5E6C7",
"< c #FBECE6",
"1 c #F2F8F9",
"2 c white",
/* pixels */
"                                                                ",
"                                                                ",
"                                                                ",
"                                                                ",
"                                                                ",
"                                                                ",
"                                                                ",
"                                                                ",
"                                                                ",
"                                                                ",
"                                                                ",
"                                                                ",
"                                                                ",
"                                                                ",
"                                                                ",
"                           XXXXXXXXXX                           ",
"                         XX$&*>>>**&$XX                         ",
"                        X$*>>>>>>>>**&$X                        ",
"                       X$*>>>>>>>>>>>**$X                       ",
"                       X*>><<<>>>>>>>>*&X                       ",
"                      X$>>><<<>>>>>>>>**$X                      ",
"                      X&>>><<<>>>>>>>>>*&X                      ",
"                      X*>>>>>>>>>>>>>>>**X                      ",
"                      X*>>>>>>>>>>>>>>>**X                      ",
"                      X*>>>>>>>>>>>>>>>**X                      ",
"                      X&>>>>>>>>>>>>>>>*&X                      ",
"                     X$&*>>>>>>>>>>>>>**&$X                     ",
"                     X>&**><<>>>>>><<***&>X                     ",
"                     X>***&$$*>>>>*$$&*&*>X                     ",
"                     X>>&*-XX-*>>*-XX-*&>>X                     ",
"                      X>&*1X=1>>>>1=X1*&>X                      ",
"                       XX*>@@1>>>>1@@>*XX                       ",
"                      XXX&>>>>>>>>>>>>&XXX                      ",
"                    XX#:X$*>>>>>>>>>>*$X:#XX                    ",
"                   X#,22,X$$*>>>>>>*$$X,22,#X                   ",
"                  X;,222,,XX$$$$$$$$XX,,222,;X                  ",
"                  X,,,2,,,,:XXXXXXXX:,,,,2,,,X                  ",
"                 X;,,:,,,,,,::::::::,,,,,,:,,;X                 ",
"                 X:,:#;::,,,,,,,,,,,,,,::;#:,:X                 ",
"                 X:::####,,,,,,,,,,,,,,####:::X                 ",
"                 X:;#XX#::,,,,,,,,,,,,::#XX#;:X                 ",
"                X$&$XXXX;:,2,,,,,,,,2,:;XXXX$&$X                ",
"               XX*>*>X2X#;:,22,,,,22,:;#X2X>*>*XX               ",
"               X**>*>X22X;;;:,,,,,,:;;;X22X>*>**X               ",
"               X*>>>>X22X:::,,2222,,:::X22X>>>>*X               ",
"               X&>>>&X2.OXX:,22,,22,:XXO.2X&>>>&X               ",
"                $>>*&$X.+++XXXXXXXXXX+++.X$&*>>$                ",
"                X$>>>*X.++O+++%%%%+++O++.X*>>>$X                ",
"                 XXXXX2.++OO++++++++OO++.2XXXXX                 ",
"                      .O%%+OoO++++OoO+%%O.                      ",
"                      .O%%%++o....o++%%%O.                      ",
"                      .O%%++o.    .o++%%O.                      ",
"                      .O%%+O.      .O+%%O.                      ",
"                      .O+++o.      .o+++O.                      ",
"                      .oO++.        .++Oo.                      ",
"                      ......        ......                      ",
"                     X&****$X      X$****&X                     ",
"                     X*>>>*&X      X&*>>>*X                     ",
"                    X&>>>>>*X      X*>>>>>&X                    ",
"                    X>>>>>>*X      X*>>>>>>X                    ",
"                    X*><&<<X        X<<&<>*X                    ",
"                     XXXXXX          XXXXXX                     ",
"                                                                ",
"                                                                "
};
