/* XPM */
static char *result[] = {
/* columns rows colors chars-per-pixel */
"64 64 6 1 ",
"  c white",
". c #77A775",
"X c #3C6C46",
"o c #609566",
"O c #2C4E33",
"+ c white",
/* pixels */
"                                                                ",
"                                                                ",
"                                                                ",
"                                                                ",
"                                                                ",
"                                                                ",
"                                                                ",
"                                                                ",
"                                                                ",
"                                                                ",
"                    ................                            ",
"                    ................                            ",
"                    ................                            ",
"                    ................                            ",
"                ............XXXXoooooooo                        ",
"                ............XXXXoooooooo                        ",
"                ............XXXXoooooooo                        ",
"                ............XXXXoooooooo                        ",
"                oooooooooooooooooooooooo                        ",
"                oooooooooooooooooooooooo                        ",
"                oooooooooooooooooooooooo                        ",
"                oooooooooooooooooooooooo                        ",
"                                XXXXoooo                        ",
"                                XXXXoooo                        ",
"                                XXXXoooo                        ",
"                                XXXXoooo                        ",
"                            ....ooooXXXX                        ",
"                            ....ooooXXXX                        ",
"                            ....ooooXXXX                        ",
"                            ....ooooXXXX                        ",
"                        ........ooooXXXX                        ",
"                        ........ooooXXXX                        ",
"                        ........ooooXXXX                        ",
"                        ........ooooXXXX                        ",
"                    ........ooooXXXX                            ",
"                    ........ooooXXXX                            ",
"                    ........ooooXXXX                            ",
"                    ........ooooXXXX                            ",
"                ........ooooXXXX                                ",
"                ........ooooXXXX                                ",
"                ........ooooXXXX                                ",
"                ........ooooXXXX                                ",
"            ........ooooXXXX                    ....            ",
"            ........ooooXXXX                    ....            ",
"            ........ooooXXXX                    ....            ",
"            ........ooooXXXX                    ....            ",
"            ....ooooooooXXXXXXXX            ....oooo            ",
"            ....ooooooooXXXXXXXX            ....oooo            ",
"            ....ooooooooXXXXXXXX            ....oooo            ",
"            ....ooooooooXXXXXXXX            ....oooo            ",
"            ....ooooooooooooooooooooooooooooooooXXXX            ",
"            ....ooooooooooooooooooooooooooooooooXXXX            ",
"            ....ooooooooooooooooooooooooooooooooXXXX            ",
"            ....ooooooooooooooooooooooooooooooooXXXX            ",
"                ooooooooXXXXXXXXXXXXOOOOOOOOOOOO                ",
"                ooooooooXXXXXXXXXXXXOOOOOOOOOOOO                ",
"                ooooooooXXXXXXXXXXXXOOOOOOOOOOOO                ",
"                ooooooooXXXXXXXXXXXXOOOOOOOOOOOO                ",
"                                                                ",
"                                                                ",
"                                                                ",
"                                                                ",
"                                                                ",
"                                                                "
};
