/* XPM */
static char *d225bb3fd45a40179492e42af72f63fbidzBTkdCTBJ3Fdms[] = {
/* columns rows colors chars-per-pixel */
"40 40 3 1 ",
"  c None",
". c black",
"X c #886644",
/* pixels */
"                                        ",
"                                        ",
"                                        ",
"   .................................... ",
"   .................................... ",
"   .................................... ",
"   ...XXXXXXXXXXXXXXXXXXXXXXXXXXXXXXXXX ",
"   ...XXXXXXXXXXXXXXXXXXXXXXXXXXXXXXXXX ",
"   ...XXXXXXXXXXXXXXXXXXXXXXXXXXXXXXXXX ",
"   ...XXXXXXXXXXXXXXXXXXXXXXXXXXXXXXXXX ",
"   ...XXXXXXXXXXXXXXXXXXXXXXXXXXXXXXXXX ",
"   ...XXXXXXXXXXXXXXXXXXXXXXXXXXXXXXXXX ",
"   ...XXXXXX.....................XXXXXX ",
"   ...XXXXXX.....................XXXXXX ",
"   ...XXXXXX.....................XXXXXX ",
"   ...XXXXXX...XXXXXXXXXXXXXXXXXXXXXXXX ",
"   ...XXXXXX...XXXXXXXXXXXXXXXXXXXXXXXX ",
"   ...XXXXXX...XXXXXXXXXXXXXXXXXXXXXXXX ",
"   ...XXXXXX...XXXXXXXXXXXXXXXXXXXXXXXX ",
"   ...XXXXXX...XXXXXXXXXXXXXXXXXXXXXXXX ",
"   ...XXXXXX...XXXXXXXXXXXXXXXXXXXXXXXX ",
"   ...XXXXXX...XXXXXXXXXXXXXXXXXXXXXXXX ",
"   ...XXXXXX...XXXXXXXXXXXXXXXXXXXXXXXX ",
"   ...XXXXXX...XXXXXXXXXXXXXXXXXXXXXXXX ",
"   ...XXXXXX...XXXXXXXXXXXXXXXXXXXXXXXX ",
"   ...XXXXXX...XXXXXXXXXXXXXXXXXXXXXXXX ",
"   ...XXXXXX...XXXXXXXXXXXXXXXXXXXXXXXX ",
"   ...XXXXXX...XXXXXXXXXXXXXXXXXXXXXXXX ",
"   ...XXXXXX...XXXXXXXXXXXXXXXXXXXXXXXX ",
"   ...XXXXXX...XXXXXXXXXXXXXXXXXXXXXXXX ",
"   ...XXXXXX...XXXXXXXXXXXXXXXXXXXXXXXX ",
"   ...XXXXXX...XXXXXXXXXXXXXXXXXXXXXXXX ",
"   ...XXXXXX...XXXXXXXXXXXXXXXXXXXXXXXX ",
"   ...XXXXXXXXXXXXXXXXXXXXXXXXXXXXXXXXX ",
"   ...XXXXXXXXXXXXXXXXXXXXXXXXXXXXXXXXX ",
"   ...XXXXXXXXXXXXXXXXXXXXXXXXXXXXXXXXX ",
"   ...XXXXXXXXXXXXXXXXXXXXXXXXXXXXXXXXX ",
"   ...XXXXXXXXXXXXXXXXXXXXXXXXXXXXXXXXX ",
"   ...XXXXXXXXXXXXXXXXXXXXXXXXXXXXXXXXX ",
"                                        "
};
