/* XPM */
static char *d6f77c268df942e5ad1431bf3a631a41xP3bF32Dr4q8gEeL[] = {
/* columns rows colors chars-per-pixel */
"40 40 4 1 ",
"  c None",
". c black",
"o c #333333",
"X c #a94608",
/* pixels */
"                                        ",
"  ....................................  ",
"  ....................................  ",
"  ....................................  ",
"  .........XXXXXXXXXXXXXXXXXXXXX......  ",
"  .........XXXXXXXXXXXXXXXXXXXXX......  ",
"  .........XXXXXXXXXXXXXXXXXXXXX......  ",
"  ......XXXoooooooooooooooooooooXXX...  ",
"  ......XXXoooooooooooooooooooooXXX...  ",
"  ......XXXoooooooooooooooooooooXXX...  ",
"  ...XXXooooooXXXXXXXXXXXXXXXooooooXXX  ",
"  ...XXXooooooXXXXXXXXXXXXXXXooooooXXX  ",
"  ...XXXooooooXXXXXXXXXXXXXXXooooooXXX  ",
"  ...XXXoooXXXXXXXXXXXXXXXXXXXXXoooXXX  ",
"  ...XXXoooXXXXXXXXXXXXXXXXXXXXXoooXXX  ",
"  ...XXXoooXXXXXXXXXXXXXXXXXXXXXoooXXX  ",
"  ...XXXooooooXXXXXXXXXXXXXXXXXXoooXXX  ",
"  ...XXXooooooXXXXXXXXXXXXXXXXXXoooXXX  ",
"  ...XXXooooooXXXXXXXXXXXXXXXXXXoooXXX  ",
"  ...XXXoooXXXXXXXXXXXXXXXXXXXXXoooXXX  ",
"  ...XXXoooXXXXXXXXXXXXXXXXXXXXXoooXXX  ",
"  ...XXXoooXXXXXXXXXXXXXXXXXXXXXoooXXX  ",
"  ...XXXoooXXXXXXXXXXXXXXXoooXXXoooXXX  ",
"  ...XXXoooXXXXXXXXXXXXXXXoooXXXoooXXX  ",
"  ...XXXoooXXXXXXXXXXXXXXXoooXXXoooXXX  ",
"  ...XXXoooXXXXXXXXXXXXXXXoooXXXoooXXX  ",
"  ...XXXoooXXXXXXXXXXXXXXXoooXXXoooXXX  ",
"  ...XXXoooXXXXXXXXXXXXXXXoooXXXoooXXX  ",
"  ...XXXoooXXXXXXXXXXXXXXXXXXXXXoooXXX  ",
"  ...XXXoooXXXXXXXXXXXXXXXXXXXXXoooXXX  ",
"  ...XXXoooXXXXXXXXXXXXXXXXXXXXXoooXXX  ",
"  ...XXXooooooXXXXXXXXXXXXXXXXXXoooXXX  ",
"  ...XXXooooooXXXXXXXXXXXXXXXXXXoooXXX  ",
"  ...XXXooooooXXXXXXXXXXXXXXXXXXoooXXX  ",
"  ...XXXoooXXXXXXXXXXXXXXXXXXXXXoooXXX  ",
"  ...XXXoooXXXXXXXXXXXXXXXXXXXXXoooXXX  ",
"  ...XXXoooXXXXXXXXXXXXXXXXXXXXXoooXXX  ",
"                                        ",
"                                        ",
"                                        "
};
