/* XPM */
static char *_4075dd6b5ab4515bea3b59983f082d47gXInkz1Ujuy56EB[] = {
/* columns rows colors chars-per-pixel */
"40 40 3 1 ",
"  c None",
". c black",
"X c #D84122",
/* pixels */
"                                        ",
"                                        ",
"                                        ",
"  ....................................  ",
"  ....................................  ",
"  ....................................  ",
"  ...XXXXXXXXXXXX...XXXXXXXXXXXX...XXX  ",
"  ...XXXXXXXXXXXX...XXXXXXXXXXXX...XXX  ",
"  ...XXXXXXXXXXXX...XXXXXXXXXXXX...XXX  ",
"  ...XXXXXXXXXXXX...XXXXXXXXXXXX...XXX  ",
"  ...XXXXXXXXXXXX...XXXXXXXXXXXX...XXX  ",
"  ...XXXXXXXXXXXX...XXXXXXXXXXXX...XXX  ",
"  ....................................  ",
"  ....................................  ",
"  ....................................  ",
"  ...XXX...XXXXXXXXXXXXXXX...XXXXXXXXX  ",
"  ...XXX...XXXXXXXXXXXXXXX...XXXXXXXXX  ",
"  ...XXX...XXXXXXXXXXXXXXX...XXXXXXXXX  ",
"  ...XXX...XXXXXXXXXXXXXXX...XXXXXXXXX  ",
"  ...XXX...XXXXXXXXXXXXXXX...XXXXXXXXX  ",
"  ...XXX...XXXXXXXXXXXXXXX...XXXXXXXXX  ",
"  ....................................  ",
"  ....................................  ",
"  ....................................  ",
"  ...XXXXXXXXXXXX...XXXXXXXXXXXX...XXX  ",
"  ...XXXXXXXXXXXX...XXXXXXXXXXXX...XXX  ",
"  ...XXXXXXXXXXXX...XXXXXXXXXXXX...XXX  ",
"  ...XXXXXXXXXXXX...XXXXXXXXXXXX...XXX  ",
"  ...XXXXXXXXXXXX...XXXXXXXXXXXX...XXX  ",
"  ...XXXXXXXXXXXX...XXXXXXXXXXXX...XXX  ",
"  ....................................  ",
"  ....................................  ",
"  ....................................  ",
"  ...XXX...XXXXXXXXXXXXXXX...XXXXXXXXX  ",
"  ...XXX...XXXXXXXXXXXXXXX...XXXXXXXXX  ",
"  ...XXX...XXXXXXXXXXXXXXX...XXXXXXXXX  ",
"  ...XXX...XXXXXXXXXXXXXXX...XXXXXXXXX  ",
"  ...XXX...XXXXXXXXXXXXXXX...XXXXXXXXX  ",
"  ...XXX...XXXXXXXXXXXXXXX...XXXXXXXXX  ",
"                                        "
};
