/* XPM */
static char *result[] = {
/* columns rows colors chars-per-pixel */
"64 64 8 1 ",
"  c none",
". c #77A775",
"X c #609566",
"o c #E65253",
"O c #BD4446",
"+ c #3C6C46",
"@ c #2C4E33",
"# c white",
/* pixels */
"                                                                ",
"                                                                ",
"                                                                ",
"                                                                ",
"                                                                ",
"                                                                ",
"                                                                ",
"                                                                ",
"                                                                ",
"                                                                ",
"                                                                ",
"                                                                ",
"                                                                ",
"                                                                ",
"                                                                ",
"                                                                ",
"                                                                ",
"                                                                ",
"                ................                                ",
"                ................                                ",
"                ................                                ",
"                ................                                ",
"            ............    XXXXXXXX                            ",
"            ............    XXXXXXXX                            ",
"            ............    XXXXXXXX                            ",
"            ............    XXXXXXXX                            ",
"        ooooOOOOXXXXXXXXXXXXXXXXXXXXXXXX                        ",
"        ooooOOOOXXXXXXXXXXXXXXXXXXXXXXXX                        ",
"        ooooOOOOXXXXXXXXXXXXXXXXXXXXXXXX                        ",
"        ooooOOOOXXXXXXXXXXXXXXXXXXXXXXXX                        ",
"                            XXXX++++++++                        ",
"                            XXXX++++++++                        ",
"                            XXXX++++++++                        ",
"                            XXXX++++++++                        ",
"                        ........XXXX++++                        ",
"                        ........XXXX++++                        ",
"                        ........XXXX++++                        ",
"                        ........XXXX++++                        ",
"                ............XXXX++++++++                        ",
"                ............XXXX++++++++                        ",
"                ............XXXX++++++++                        ",
"                ............XXXX++++++++                        ",
"            ........XXXXXXXX++++++++            ....            ",
"            ........XXXXXXXX++++++++            ....            ",
"            ........XXXXXXXX++++++++            ....            ",
"            ........XXXXXXXX++++++++            ....            ",
"            ....XXXXXXXX++++@@@@            ....XXXX            ",
"            ....XXXXXXXX++++@@@@            ....XXXX            ",
"            ....XXXXXXXX++++@@@@            ....XXXX            ",
"            ....XXXXXXXX++++@@@@            ....XXXX            ",
"            ....XXXXXXXXXXXXXXXXXXXXXXXXXXXXXXXX++++            ",
"            ....XXXXXXXXXXXXXXXXXXXXXXXXXXXXXXXX++++            ",
"            ....XXXXXXXXXXXXXXXXXXXXXXXXXXXXXXXX++++            ",
"            ....XXXXXXXXXXXXXXXXXXXXXXXXXXXXXXXX++++            ",
"                XXXXXXXX++++++++++++@@@@@@@@@@@@                ",
"                XXXXXXXX++++++++++++@@@@@@@@@@@@                ",
"                XXXXXXXX++++++++++++@@@@@@@@@@@@                ",
"                XXXXXXXX++++++++++++@@@@@@@@@@@@                ",
"                                                                ",
"                                                                ",
"                                                                ",
"                                                                ",
"                                                                ",
"                                                                "
};
