/* XPM */
static char *result[] = {
/* columns rows colors chars-per-pixel */
"64 64 8 1 ",
"  c black",
". c #77A775",
"X c #609566",
"o c #BD4446",
"O c #E65253",
"+ c #3C6C46",
"@ c #2C4E33",
"# c white",
/* pixels */
"                                                                ",
"                                                                ",
"                                                                ",
"                                                                ",
"                                                                ",
"                                                                ",
"                                                                ",
"                                                                ",
"                                                                ",
"                                                                ",
"                                                                ",
"                                                                ",
"                                                                ",
"                                                                ",
"                                                                ",
"                                                                ",
"                                                                ",
"                                                                ",
"                ................                                ",
"                ................                                ",
"                ................                                ",
"                ................                                ",
"            ............    XXXXXXXX                            ",
"            ............    XXXXXXXX                            ",
"            ............    XXXXXXXX                            ",
"            ............    XXXXXXXX                            ",
"            ooooXXXXXXXXXXXXXXXXXXXXXXXX                        ",
"            ooooXXXXXXXXXXXXXXXXXXXXXXXX                        ",
"            ooooXXXXXXXXXXXXXXXXXXXXXXXX                        ",
"            ooooXXXXXXXXXXXXXXXXXXXXXXXX                        ",
"        OOOO                XXXX++++++++                        ",
"        OOOO                XXXX++++++++                        ",
"        OOOO                XXXX++++++++                        ",
"        OOOO                XXXX++++++++                        ",
"                        ........XXXX++++                        ",
"                        ........XXXX++++                        ",
"                        ........XXXX++++                        ",
"                        ........XXXX++++                        ",
"                ............XXXX++++++++                        ",
"                ............XXXX++++++++                        ",
"                ............XXXX++++++++                        ",
"                ............XXXX++++++++                        ",
"            ........XXXXXXXX++++++++        ....                ",
"            ........XXXXXXXX++++++++        ....                ",
"            ........XXXXXXXX++++++++        ....                ",
"            ........XXXXXXXX++++++++        ....                ",
"            ....XXXXXXXX++++@@@@            ....XXXX            ",
"            ....XXXXXXXX++++@@@@            ....XXXX            ",
"            ....XXXXXXXX++++@@@@            ....XXXX            ",
"            ....XXXXXXXX++++@@@@            ....XXXX            ",
"            ....XXXXXXXXXXXXXXXXXXXXXXXXXXXXXXXX++++            ",
"            ....XXXXXXXXXXXXXXXXXXXXXXXXXXXXXXXX++++            ",
"            ....XXXXXXXXXXXXXXXXXXXXXXXXXXXXXXXX++++            ",
"            ....XXXXXXXXXXXXXXXXXXXXXXXXXXXXXXXX++++            ",
"                XXXXXXXX++++++++++++@@@@@@@@@@@@                ",
"                XXXXXXXX++++++++++++@@@@@@@@@@@@                ",
"                XXXXXXXX++++++++++++@@@@@@@@@@@@                ",
"                XXXXXXXX++++++++++++@@@@@@@@@@@@                ",
"                                                                ",
"                                                                ",
"                                                                ",
"                                                                ",
"                                                                ",
"                                                                "
};
