/* XPM */
static char *result[] = {
/* c lumns r ws c l rs chars-per-pixel */
"64 64 5 1 ",
", c #2C4E33",
". c #3C6C46",
"X c #609566",
"  c #77A775",
"  c none",
/* pixels */
"                                                                ",
"                                                                ",
"                                                                ",
"                                                                ",
"                                                                ",
"                                                                ",
"                                                                ",
"                                                                ",
"                                                                ",
"                                                                ",
"                                                                ",
"                                                                ",
"                                                                ",
"                                                                ",
"                                                                ",
"                                                                ",
"                                                                ",
"                                                                ",
"                                XXXXXXXX                        ",
"                                XXXXXXXX                        ",
"                                XXXXXXXX                        ",
"                                XXXXXXXX                        ",
"                XXXXXXXXXXXXXXXXXXXXXXXX                        ",
"                XXXXXXXXXXXXXXXXXXXXXXXX                        ",
"                XXXXXXXXXXXXXXXXXXXXXXXX                        ",
"                XXXXXXXXXXXXXXXXXXXXXXXX                        ",
"                                ....XXXX                        ",
"                                ....XXXX                        ",
"                                ....XXXX                        ",
"                                ....XXXX                        ",
"                                XXXX....                        ",
"                                XXXX....                        ",
"                                XXXX....                        ",
"                                XXXX....                        ",
"                                XXXX....                        ",
"                                XXXX....                        ",
"                                XXXX....                        ",
"                                XXXX....                        ",
"                            XXXX........                        ",
"                            XXXX........                        ",
"                            XXXX........                        ",
"                            XXXX........                        ",
"                    XXXXXXXX........                            ",
"                    XXXXXXXX........                            ",
"                    XXXXXXXX........                            ",
"                    XXXXXXXX........                            ",
"                XXXXXXXX....                    XXXX            ",
"                XXXXXXXX....                    XXXX            ",
"                XXXXXXXX....                    XXXX            ",
"                XXXXXXXX....                    XXXX            ",
"                XXXXXXXXXXXXXXXXXXXXXXXXXXXXXXXX....            ",
"                XXXXXXXXXXXXXXXXXXXXXXXXXXXXXXXX....            ",
"                XXXXXXXXXXXXXXXXXXXXXXXXXXXXXXXX....            ",
"                XXXXXXXXXXXXXXXXXXXXXXXXXXXXXXXX....            ",
"                XXXXXXXX............                            ",
"                XXXXXXXX............                            ",
"                XXXXXXXX............                            ",
"                XXXXXXXX............                            ",
"                                                                ",
"                                                                ",
"                                                                ",
"                                                                ",
"                                                                ",
"                                                                "
};
