/* XPM */
static char *result[] = {
/* columns rows colors chars-per-pixel */
"64 64 6 1 ",
"  c black",
". c #77A775",
"X c #609566",
"o c #3C6C46",
"O c #2C4E33",
"+ c white",
/* pixels */
"                                                                ",
"                                                                ",
"                                                                ",
"                                                                ",
"                                                                ",
"                                                                ",
"                                                                ",
"                                                                ",
"                                                                ",
"                                                                ",
"                    ................                            ",
"                    ................                            ",
"                    ................                            ",
"                    ................                            ",
"                ............    XXXXXXXX                        ",
"                ............    XXXXXXXX                        ",
"                ............    XXXXXXXX                        ",
"                ............    XXXXXXXX                        ",
"                XXXXXXXXXXXXXXXXXXXXXXXX                        ",
"                XXXXXXXXXXXXXXXXXXXXXXXX                        ",
"                XXXXXXXXXXXXXXXXXXXXXXXX                        ",
"                XXXXXXXXXXXXXXXXXXXXXXXX                        ",
"                                ooooXXXX                        ",
"                                ooooXXXX                        ",
"                                ooooXXXX                        ",
"                                ooooXXXX                        ",
"                            ....XXXXoooo                        ",
"                            ....XXXXoooo                        ",
"                            ....XXXXoooo                        ",
"                            ....XXXXoooo                        ",
"                        ........XXXXoooo                        ",
"                        ........XXXXoooo                        ",
"                        ........XXXXoooo                        ",
"                        ........XXXXoooo                        ",
"                    ........XXXXoooo                            ",
"                    ........XXXXoooo                            ",
"                    ........XXXXoooo                            ",
"                    ........XXXXoooo                            ",
"                ........XXXXoooo                                ",
"                ........XXXXoooo                                ",
"                ........XXXXoooo                                ",
"                ........XXXXoooo                                ",
"            ........XXXXoooo                    ....            ",
"            ........XXXXoooo                    ....            ",
"            ........XXXXoooo                    ....            ",
"            ........XXXXoooo                    ....            ",
"            ....XXXXXXXXoooooooo            ....XXXX            ",
"            ....XXXXXXXXoooooooo            ....XXXX            ",
"            ....XXXXXXXXoooooooo            ....XXXX            ",
"            ....XXXXXXXXoooooooo            ....XXXX            ",
"            ....XXXXXXXXXXXXXXXXXXXXXXXXXXXXXXXXoooo            ",
"            ....XXXXXXXXXXXXXXXXXXXXXXXXXXXXXXXXoooo            ",
"            ....XXXXXXXXXXXXXXXXXXXXXXXXXXXXXXXXoooo            ",
"            ....XXXXXXXXXXXXXXXXXXXXXXXXXXXXXXXXoooo            ",
"                XXXXXXXXooooooooooooOOOOOOOOOOOO                ",
"                XXXXXXXXooooooooooooOOOOOOOOOOOO                ",
"                XXXXXXXXooooooooooooOOOOOOOOOOOO                ",
"                XXXXXXXXooooooooooooOOOOOOOOOOOO                ",
"                                                                ",
"                                                                ",
"                                                                ",
"                                                                ",
"                                                                ",
"                                                                "
};
