/* XPM */
static char *_acbb58e092a4147828ae2fefd6d7be3HIz7uipczIj1at7p[] = {
/* columns rows colors chars-per-pixel */
"40 40 3 1 ",
"  c None",
". c black",
"X c #886644",
/* pixels */
"                                        ",
"                                        ",
"                                        ",
" ....................................   ",
" ....................................   ",
" ....................................   ",
" ...XXXXXXXXXXXXXXXXXXXXXXXXXXXXXXXXX   ",
" ...XXXXXXXXXXXXXXXXXXXXXXXXXXXXXXXXX   ",
" ...XXXXXXXXXXXXXXXXXXXXXXXXXXXXXXXXX   ",
" ...XXXXXXXXXXXXXXXXXXXXXXXXXXXXXXXXX   ",
" ...XXXXXXXXXXXXXXXXXXXXXXXXXXXXXXXXX   ",
" ...XXXXXXXXXXXXXXXXXXXXXXXXXXXXXXXXX   ",
" ...XXXXXX.....................XXXXXX   ",
" ...XXXXXX.....................XXXXXX   ",
" ...XXXXXX.....................XXXXXX   ",
" ...XXXXXX...XXXXXXXXXXXXXXXXXXXXXXXX   ",
" ...XXXXXX...XXXXXXXXXXXXXXXXXXXXXXXX   ",
" ...XXXXXX...XXXXXXXXXXXXXXXXXXXXXXXX   ",
" ...XXXXXX...XXXXXXXXXXXXXXXXXXXXXXXX   ",
" ...XXXXXX...XXXXXXXXXXXXXXXXXXXXXXXX   ",
" ...XXXXXX...XXXXXXXXXXXXXXXXXXXXXXXX   ",
" ...XXXXXX...XXXXXXXXXXXX...XXXXXXXXX   ",
" ...XXXXXX...XXXXXXXXXXXX...XXXXXXXXX   ",
" ...XXXXXX...XXXXXXXXXXXX...XXXXXXXXX   ",
" ...XXXXXX...XXXXXXXXXXXX...XXXXXXXXX   ",
" ...XXXXXX...XXXXXXXXXXXX...XXXXXXXXX   ",
" ...XXXXXX...XXXXXXXXXXXX...XXXXXXXXX   ",
" ...XXXXXX...XXXXXX.........XXXXXXXXX   ",
" ...XXXXXX...XXXXXX.........XXXXXXXXX   ",
" ...XXXXXX...XXXXXX.........XXXXXXXXX   ",
" ...XXXXXX...XXXXXXXXXXXXXXXXXXXXXXXX   ",
" ...XXXXXX...XXXXXXXXXXXXXXXXXXXXXXXX   ",
" ...XXXXXX...XXXXXXXXXXXXXXXXXXXXXXXX   ",
" ...XXXXXXXXXXXXXXXXXXXXXXXXXXXXXXXXX   ",
" ...XXXXXXXXXXXXXXXXXXXXXXXXXXXXXXXXX   ",
" ...XXXXXXXXXXXXXXXXXXXXXXXXXXXXXXXXX   ",
" ...XXXXXXXXXXXXXXXXXXXXXXXXXXXXXXXXX   ",
" ...XXXXXXXXXXXXXXXXXXXXXXXXXXXXXXXXX   ",
" ...XXXXXXXXXXXXXXXXXXXXXXXXXXXXXXXXX   ",
"                                        "
};
