/* XPM */
static char *result[] = {
/* columns rows colors chars-per-pixel */
"64 64 97 2 ",
"   c black",
".  c #010101",
"X  c #020202",
"o  c gray1",
"O  c #040404",
"+  c gray2",
"@  c #070707",
"#  c gray3",
"$  c gray4",
"%  c #0B0B0B",
"&  c #0C0C0C",
"*  c gray5",
"=  c gray6",
"-  c #111111",
";  c #131313",
":  c gray8",
">  c #151515",
",  c #161616",
"<  c gray9",
"1  c #181818",
"2  c #191919",
"3  c gray10",
"4  c #1B1B1B",
"5  c gray12",
"6  c #232323",
"7  c gray14",
"8  c #252525",
"9  c gray15",
"0  c #272727",
"q  c #282828",
"w  c gray16",
"e  c #2D2D2D",
"r  c #2F2F2F",
"t  c gray19",
"y  c #323232",
"u  c #353535",
"i  c gray21",
"p  c #373737",
"a  c gray22",
"s  c #393939",
"d  c gray23",
"f  c gray24",
"g  c #3E3E3E",
"h  c #414141",
"j  c gray26",
"k  c #434343",
"l  c gray27",
"z  c gray28",
"x  c #484848",
"c  c #494949",
"v  c gray29",
"b  c #4B4B4B",
"n  c gray30",
"m  c #505050",
"M  c #515151",
"N  c #535353",
"B  c #555555",
"V  c gray34",
"C  c #585858",
"Z  c gray35",
"A  c #5A5A5A",
"S  c #5B5B5B",
"D  c gray36",
"F  c #5F5F5F",
"G  c gray38",
"H  c #656565",
"J  c gray40",
"K  c #686868",
"L  c DimGray",
"P  c #6A6A6A",
"I  c gray42",
"U  c #6C6C6C",
"Y  c #6F6F6F",
"T  c #717171",
"R  c gray45",
"E  c #747474",
"W  c gray46",
"Q  c #767676",
"!  c #777777",
"~  c gray47",
"^  c #797979",
"/  c #7B7B7B",
"(  c #7C7C7C",
")  c gray49",
"_  c #7E7E7E",
"`  c gray50",
"'  c #808080",
"]  c #818181",
"[  c gray51",
"{  c #838383",
"}  c #848484",
"|  c gray52",
" . c #868686",
".. c gray53",
"X. c #888888",
"o. c #898989",
"O. c None",
/* pixels */
"O.O.O.O.O.O.O.O.O.O.O.O.O.O.O.O.O.O.O.O.O.O.O.O.O.O.O.O.O.O.O.O.O.O.O.O.O.O.O.O.O.O.O.O.O.O.O.O.O.O.O.O.O.O.O.O.O.O.O.O.O.O.O.O.",
"O.O.O.O.O.O.O.O.O.O.O.O.O.O.O.O.O.O.O.O.O.O.O.O.O.O.O.O.O.O.O.O.O.O.O.O.O.O.O.O.O.O.O.O.O.O.O.O.O.O.O.O.O.O.O.O.O.O.O.O.O.O.O.O.",
"O.O.O.O.O.O.O.O.O.O.O.O.O.O.O.O.O.O.O.O.O.O.O.O.O.O.O.O.O.O.O.O.O.O.O.O.O.O.O.O.O.O.O.O.O.O.O.O.O.O.O.O.O.O.O.O.O.O.O.O.O.O.O.O.",
"O.O.O.O.O.                                                                                                                  O.O.",
"O.O.O.O.O.                                                                                                                  O.O.",
"O.O.O.O.O.                                                                                                                  O.O.",
"O.O.O.O.O.                                                                                                                  O.O.",
"O.O.O.O.O.                . * 1 1 1 1 1 1 1 2 ; O       @ , 1 1 1 1 1 1 1 1 1 1 1 1 , @       O ; 2 1 1 1 1 1 1 1 * .       O.O.",
"O.O.O.O.O.                o d L L K K K K K U B ;       5 F U K K K K K K K K K K U F 5       ; B U K K K K K L L d o       O.O.",
"O.O.O.O.O.                O b  . .| | | | | o.U 2       q ^ o.| | | | | | | | | | o.^ q       2 U o.| | | | |  . .b O       O.O.",
"O.O.O.O.O.                o c ] ] ' ' ' ' ' | K 1       0 E } ' ' ' ' ' ' ' ' ' ' } E 0       1 K | ' ' ' ' ' ] ] c o       O.O.",
"O.O.O.O.O.                  z [ ] ' ' ' ' ' | K :       8 ~ X.} } [ ' ' ' ' ' ' ' } E 0       1 K | ' ' ' ' ' ] [ z         O.O.",
"O.O.O.O.O.        - 9 0 8 w Z ] ] ' ' ' ' ' { Y p 6 0 8 i B S Z Z P ` ] ' ' ' ' ' } E 0       1 K | ' ' ' ' ' ] ] Z w 8 0 0 O.O.",
"O.O.O.O.O.        y T ! E W / ' ' ' ' ' ' ' ' _ Q E E ~ B > # % $ g ) [ ' ' ' ' ' } E 0       1 K | ' ' ' ' ' ' ' / W E E E O.O.",
"O.O.O.O.O.        s ' ..} } [ ' ' ' ' ' ' ' ' ] { } } X.S #       u ( { ' ' ' ' ' } E 0       1 K | ' ' ' ' ' ' ' [ } } } } O.O.",
"O.O.O.O.O.        p ( { ' ' ' ' ' ' ' ' ' ' ' ' ' ' ' } Z &       a _ } ] ] ] ] ] | W 9       < K | ' ' ' ' ' ' ' ' ' ' ' ' O.O.",
"O.O.O.O.O.        p ( { ' ' ' ' ' ' ' ' ' ' ' ' ' ' ' } Z &       a _ } ] ] ] ] ]  .Q 9       < K | ' ' ' ' ' ' ' ' ' ' ' ' O.O.",
"O.O.O.O.O.        p ( { ' ' ' ' ' ' ' ' ' ' ' ' ' ' ' } Z &       5 z v c c c c c c z f p p u l R { ' ' ' ' ' ' ' ' ' ' ' ' O.O.",
"O.O.O.O.O.        p ( { ' ' ' ' ' ' ' ' ' ' ' ' ' ' ' } Z &       X o O O O O O O   = C ' ) ( ) ` ' ' ' ' ' ' ' ' ' ' ' ' ' O.O.",
"O.O.O.O.O.        p ( { ' ' ' ' ' ' ' ' ' ' ' ' ' ' ' } Z &                         $ A ..{ { [ ' ' ' ' ' ' ' ' ' ' ' ' ' ' O.O.",
"O.O.O.O.O.        p ( { ' ' ' ' ' ' ' [ { { { { { { { ..A $                         & Z } ' ' ' ' ' ' ' ' ' ' ' ' ' ' ' ' ' O.O.",
"O.O.O.O.O.        p ( { ' ' ' ' ' ' ' _ ( ( ( ( ( ( ) ' C =   O O O O O O o X       & Z } ' ' ' ' ' ' ' ' ' ' ' ' ' ' ' ' ' O.O.",
"O.O.O.O.O.        p ( { ' ' ' ' ' [ ^ n u p p p p p p p f z c c c c c c v z 5       & Z } ' ' ' ' ' ' ' ' ' ' ' ' ' ' ' ' ' O.O.",
"O.O.O.O.O.        p ( { ' ' ' ' ' } E 9                 9 Q  .] ] ] ] ] } _ a       & Z } ' ' ' ' ' ' ' ' ' ' ' ' ' ' ' ' ' O.O.",
"O.O.O.O.O.        p ( { ' ' ' ' ' } E 9                 9 W | ] ] ] ] ] } _ a       & Z } ' ' ' ' ' ' ' ' ' ' ' ' ' ' ' ' ' O.O.",
"O.O.O.O.O.        p ( { ' ' [ } } X.~ q                 0 E } ' ' ' ' ' { ( p       & D X.} } } } } } } { ' ' ' ' ' ' ' ' ' O.O.",
"O.O.O.O.O.        p ( { ' ' ^ E E ~ P 6                 0 E } ' ' ' ' ' { ( p       % M ~ E E E E E E E ~ ` ' ' ' ' ' ' ' ' O.O.",
"O.O.O.O.O.        p ( { [ _ n 9 9 q 6 &                 0 E } ' ' ' ' ' { ( p       O 4 q 0 0 0 0 0 0 7 j ~ { ' ' ' ' ' ' ' O.O.",
"O.O.O.O.O.        p ( { { ( u                           0 E } ' ' ' ' ' { ( p                           7 E } ' ' ' ' ' ' ' O.O.",
"O.O.O.O.O.        p ( { { ( p                           0 E } ' ' ' ' ' { ( p                           0 E } ' ' ' ' ' ' ' O.O.",
"O.O.O.O.O.        s ] ....] p                           0 E } ' ' [ | | ..] p                           8 ~ o.| | | | | | | O.O.",
"O.O.O.O.O.        e H P P J d < < 1 1 1 1 1 2 ; O       0 E } ' ' Q L K P J d < < 1 1 1 1 1 1 1 1 1 1 > t G I K K K K K K K O.O.",
"O.O.O.O.O.        $ < 1 , 3 l L L K K K K K U B ;       0 E } ] ] N 4 , , 3 l L L K K K K K K K K K K I m 5 > 1 1 1 1 1 1 1 O.O.",
"O.O.O.O.O.                  c  . .| | | | | o.U 2       0 E } ] [ z         c  . .| | | | | | | | | | o.S #                 O.O.",
"O.O.O.O.O.                o c ] ] ' ' ' ' ' | K 1       0 E } ] [ c o     o c ] ] ' ' ' ' ' ' ' ' ' ' } Z &                 O.O.",
"O.O.O.O.O.                  z [ ] ' ' ' ' ' | K 1       q ~ X.|  .c         z [ ] ' ' ' ' ' ' ' ' ' ' } C #                 O.O.",
"O.O.O.O.O.        - 9 0 8 w Z ] ] ' ' ' ' ' | K 1       4 M D A A k q 9 8 w Z ] ] ' ' ' ' ' ' ' ' ' ' { H r 7 0 0 , .       O.O.",
"O.O.O.O.O.        y T ! E W / ' ' ' ' ' ' ' | K 1       O % & % $ s T Q E W / ' ' ' ' ' ' ' ' ' ' ' ' ' ( W E W Q j o       O.O.",
"O.O.O.O.O.        s ' ..} } [ ' ' ' ' ' ' ' | K 1                 p ' ..} } [ ' ' ' ' ' ' ' ' ' ' ' ' ' ] } } |  .b O       O.O.",
"O.O.O.O.O.        p ( { ' ' ' ' ' ' ' ' ' ' | K <                 p ( { ' ' ' ' ' ' ' ' ' ' ' ' ] ] ] ] ] ] ] [ { c X       O.O.",
"O.O.O.O.O.        p ( { ' ' ' ' ' ' ' ' ' ' | K <                 p ( { ' ' ' ' ' ' ' ' ' ' ' ' ] [ ] ] ] ] ] { { c X       O.O.",
"O.O.O.O.O.        p ( { ' ' ' ' ' ' ' ' ' ' { R l u p s 0 +       p ( { ' ' ' ' ' ' ' ' ' ' [ Q N z c c c c c c c h a p p p O.O.",
"O.O.O.O.O.        p ( { ' ' ' ' ' ' ' ' ' ' ' ` ) ( ) ' V %       p ( { ' ' ' ' ' ' ' ' ' ' | L 4   O O O O O X X a ^ ` ( ( O.O.",
"O.O.O.O.O.        p ( { ' ' ' ' ' ' ' ' ' ' ' ' [ { { ..S &       p ( { ' ' ' ' ' ' ' ' ' ' | K ,                 p ` | { { O.O.",
"O.O.O.O.O.        p ( { ' ' ' ' ' ' ' ' ' ' ' ' ' ' ' } Z &       s ` | { { { { { { { { { { ..P 1                 i ( { ' ' O.O.",
"O.O.O.O.O.        p ( { ' ' ' ' ' ' ' ' ' ' ' ' ' ' ' } Z &       i ^ ` ( ( ( ( ( ( ( ( ( ( ] H <       . o O X X s ) { ' ' O.O.",
"O.O.O.O.O.        p ( { ' ' ' ' ' ' ' ' ' ' ' ' ' ' ' } Z &       1 i s p p p p p p p p p p s e $       , j b x x G _ ] ' ' O.O.",
"O.O.O.O.O.        p ( { ' ' ' ' ' ' ' ' ' ' ' ' ' ' ' } Z &                                             0 Q  .] ] ] ' ' ' ' O.O.",
"O.O.O.O.O.        p ( { ' ' ' ' ' ' ' ' ' ' ' ' ' ' ' } Z &                                             0 W | ] ] ] ' ' ' ' O.O.",
"O.O.O.O.O.        p ( { ' ' ' ' ' ' ' ' ' ' ' ] { } } X.S #                                             0 E } ' ' ' ' ' ' ' O.O.",
"O.O.O.O.O.        p ( { ' ' ' ' ' ' ' ' ' ' ' _ Q E E ~ B > # & & & & & & & & & & & % O                 0 E } ' ' ' ' ' ' ' O.O.",
"O.O.O.O.O.        p ( { ' ' ' ' ' ' ' ' ' ' { Y p 6 0 8 i B S Z Z Z Z Z Z Z Z Z Z D M 4                 0 E } ' ' ' ' ' ' ' O.O.",
"O.O.O.O.O.        p ( { ' ' ' ' ' ' ' ' ' ' | K :       8 ~ X.} } } } } } } } } } X.~ q                 0 E } ' ' ' ' ' ' ' O.O.",
"O.O.O.O.O.        p ( { ' ' ' ' ' ' ' ' ' ' | K 1       0 E } ' ' ' ' ' ' ' ' ' ' } E 0                 0 E } ' ' ' ' ' ' ' O.O.",
"O.O.O.O.O.        s ] ..| | [ ' ' ' ' ' ' ' | K 1       0 E } ' ' ' ' ' ' ' ' ' ' } E 6                 0 E } ' ' [ | | | | O.O.",
"O.O.O.O.O.        e H P K L Q ' ' ' ' ' ' ' | K 1       0 E } ' ' ' ' ' ' ' ' ' ' { Q p : 1 2 ; O       0 E } ' ' Q L K K K O.O.",
"O.O.O.O.O.        $ < 1 , 4 N ] ] ' ' ' ' ' | K 1       0 E } ' ' ' ' ' ' ' ' ' ' ] _ Y K K U B ;       0 E } ] ] N 4 , 1 1 O.O.",
"O.O.O.O.O.                  z [ ] ' ' ' ' ' | K 1       0 E } ' ' ' ' ' ' ' ' ' ' ' ' { | | o.U 2       0 E } ] [ z         O.O.",
"O.O.O.O.O.                O c ] ] ' ' ' ' ' | K 1       0 E } ' ' ' ' ' ' ' ' ' ' ' ' ' ' ' | K 1       0 E } ] ] c O       O.O.",
"O.O.O.O.O.                O c ] ] ' ' ' ' ' | K 1       0 E } ' ' ' ' ' ' ' ' ' ' ' ' ' ' ' | K 1       0 E } ] ] c O       O.O.",
"O.O.O.O.O.                O c ] ] ' ' ' ' ' | K 1       0 E } ' ' ' ' ' ' ' ' ' ' ' ' ' ' ' | K 1       0 E } ] ] c O       O.O.",
"O.O.O.O.O.O.O.O.O.O.O.O.O.O.O.O.O.O.O.O.O.O.O.O.O.O.O.O.O.O.O.O.O.O.O.O.O.O.O.O.O.O.O.O.O.O.O.O.O.O.O.O.O.O.O.O.O.O.O.O.O.O.O.O.",
"O.O.O.O.O.O.O.O.O.O.O.O.O.O.O.O.O.O.O.O.O.O.O.O.O.O.O.O.O.O.O.O.O.O.O.O.O.O.O.O.O.O.O.O.O.O.O.O.O.O.O.O.O.O.O.O.O.O.O.O.O.O.O.O.",
"O.O.O.O.O.O.O.O.O.O.O.O.O.O.O.O.O.O.O.O.O.O.O.O.O.O.O.O.O.O.O.O.O.O.O.O.O.O.O.O.O.O.O.O.O.O.O.O.O.O.O.O.O.O.O.O.O.O.O.O.O.O.O.O."
};
