/* XPM */
static char *result[] = {
/* columns rows colors chars-per-pixel */
"64 64 21 1 ",
"  c none",
". c #2B1F0E",
"X c #281820",
"o c #433016",
"O c #4B3618",
"+ c #7B5828",
"@ c #293D4B",
"# c gray26",
"$ c #9E3E37",
"% c #B2803B",
"& c #D28560",
"* c #EAA377",
"= c #5187B3",
"- c #50D4EC",
"; c #958080",
": c #C4B59F",
"> c #FDD5B7",
", c #E5E6C7",
"< c #FBECE6",
"1 c #F2F8F9",
"2 c white",
/* pixels */
"                                                                ",
"                                                                ",
"                                                                ",
"                                                                ",
"                                                                ",
"                                                                ",
"                                                                ",
"                                                                ",
"                                                                ",
"                                                                ",
"                                                                ",
"                                                                ",
"                                                                ",
"                                                                ",
"                                                                ",
"                            XXXXXXXXX                           ",
"                          XX$&*>>>*&$XX                         ",
"                         X$&>>>>>>>>*&$X                        ",
"                        X$*>>>>>>>>>>**$X                       ",
"                        X*>><<<>>>>>>>**X                       ",
"                       X$>>><<<>>>>>>>>*$X                      ",
"                       X&>>><<<>>>>>>>>*&X                      ",
"                       X*>>>>>>>>>>>>>>**X                      ",
"                       X>>>>>>>>>>>>>>>>*X                      ",
"                       X>>>>>>>>>>>>>>>>*X                      ",
"                       X>>>>>>>>>>>>>>>>*X                      ",
"                       X>>>>>>>>>>>>&&&>*X                      ",
"                       X>>>>><<>>>>*&>&*&X                      ",
"                       X*>>>*$$&*>**>>&*&X                      ",
"                        X>>>XX--*>*>>>&&X                       ",
"                        X>>>=X11>>**>&$X                        ",
"                        X>>>@@1>>***$$X                         ",
"                        X*>>>>>>>>>*&XX                         ",
"                         X&>>>>>>>*&$XXX                        ",
"                         XX$*>>>>*&$X::#X                       ",
"                         XXX$$$$$$$X,22,#X                      ",
"                        X;;;XXXXXXX,,222:X                      ",
"                        X::::::::,,,,,22,#X                     ",
"                        X,,,,,,,,,,,,,,,,;X                     ",
"                        X,,,,,,,,,,:::,,,,X                     ",
"                        X:,,,,,,,,,,;;:,,,X                     ",
"                        X:,,,,,22,,,:#;,,,X                     ",
"                        X#,,,222,,:::X#2,,X                     ",
"                        XX:,,::;;::;;X#2,:X                     ",
"                       X&X;22,,,:::;;XX,,;X                     ",
"                       X&XX,,22,:::;X&&X,#X                     ",
"                       X&XoXXXXXXXXX*>>>XXX                     ",
"                       X$.o++++++++X$>><&X                      ",
"                        X.O++++++++X$>>>&X                      ",
"                         .++OooO+++X>>>&X                       ",
"                         .++OO.o+%%oXXXX                        ",
"                         .O++Oo.+%%++o.                         ",
"                          o+++o.o%%%+o.                         ",
"                          .O++O..O%%%O.                         ",
"                          .o++O..o+%+O.                         ",
"                          ......2......                         ",
"                        XX&*>**X2XX***$X                        ",
"                       X***>>**XXX&&**&X                        ",
"                       X>>>>>*$XX$*>>**X                        ",
"                       XXXXXXXX&>>>>>&&X                        ",
"                              X**>>*&&X                         ",
"                               XXXXXXX                          ",
"                                                                ",
"                                                                "
};
