/* XPM */
static char *result[] = {
/* columns rows colors chars-per-pixel */
"64 64 17 1 ",
"  c none",
". c #2B1F0E",
"X c #281820",
"o c #433016",
"O c #4B3618",
"+ c #7B5828",
"@ c gray26",
"# c #9E3E37",
"$ c #B2803B",
"% c #D28560",
"& c #EAA377",
"* c #958080",
"= c #C4B59F",
"- c #FDD5B7",
"; c #E5E6C7",
": c #FBECE6",
"> c white",
/* pixels */
"                                                                ",
"                                                                ",
"                                                                ",
"                                                                ",
"                                                                ",
"                                                                ",
"                                                                ",
"                                                                ",
"                                                                ",
"                                                                ",
"                                                                ",
"                                                                ",
"                                                                ",
"                                                                ",
"                                                                ",
"                            XXXXXXXXX                           ",
"                          XX#%&---&%#XX                         ",
"                         X#%--------&%#X                        ",
"                        X#&----------&&#X                       ",
"                        X&--:::-------&&X                       ",
"                       X#---:::--------&#X                      ",
"                       X%---:::--------&%X                      ",
"                       X&--------------&&X                      ",
"                       X----------------&X                      ",
"                       X----------------&X                      ",
"                       X----------------&X                      ",
"                       X------------%%%-&X                      ",
"                       X-----------&%-%&%X                      ",
"                       X&---------&&--%&%X                      ",
"                        X---------&---%%X                       ",
"                        X----::--&&&-%#X                        ",
"                        X---&##%&&&&##X                         ",
"                        X&---------&%XX                         ",
"                         X%-------&%#XXX                        ",
"                         XX#&----&%#X===XX                      ",
"                        XXXX#######X;>>>=@X                     ",
"                        X***XXXXXXX;;>>>==@X                    ",
"                     XXXX========;;;;;>>=@@X                    ",
"                    X##XX;;;;;;;;;;;;==*XXXXX                   ",
"                    X###X;;;;;;;;;;===*X##&%%X                  ",
"                    X###X=;;;;;;;;;;**X#&%--%X                  ",
"                    X###X=;;;;;>>;;;==X#-&---X                  ",
"                    X###X@;;;>>>;;===*X#----#X                  ",
"                     X###X=;;==**==**XXX---%X                   ",
"                     X##XX*>>;;;===**X X--&X                    ",
"                      XX XX;;>>;===*XX X%%X                     ",
"                         .oXXXXXXXXX..  XX                      ",
"                         .o+$$$$++++O.                          ",
"                         .O+++++++++O.                          ",
"                         .++OO.o+$$+O.                          ",
"                         .++OO.o+$$+O.                          ",
"                         .O++Oo.+$$++..                         ",
"                         .o+++o.o$$$+o.                         ",
"                          .O++O..O$$$O.                         ",
"                          .o++O..o+$+O.                         ",
"                          ......>......                         ",
"                        XX%&-&&X>XX&&&#X                        ",
"                       X&&&--&&XXX%%&&%X                        ",
"                       X-----&#XX#&--&&X                        ",
"                       XXXXXXXX%-----%%X                        ",
"                              X&&--&%%X                         ",
"                               XXXXXXX                          ",
"                                                                ",
"                                                                "
};
