/* XPM */
static char *result[] = {
/* columns rows colors chars-per-pixel */
"64 64 20 1 ",
"  c none",
". c #2B1F0E",
"X c #281820",
"o c #433016",
"O c #4B3618",
"+ c #7B5828",
"@ c #293D4B",
"# c gray26",
"$ c #9E3E37",
"% c #B2803B",
"& c #D28560",
"* c #EAA377",
"= c #50D4EC",
"- c #958080",
"; c #C4B59F",
": c #FDD5B7",
"> c #E5E6C7",
", c #FBECE6",
"< c #F2F8F9",
"1 c white",
/* pixels */
"                                                                ",
"                                                                ",
"                                                                ",
"                                                                ",
"                                                                ",
"                                                                ",
"                                                                ",
"                                                                ",
"                                                                ",
"                                                                ",
"                                                                ",
"                                                                ",
"                                                                ",
"                                                                ",
"                                                                ",
"                            XXXXXXXXX                           ",
"                          XX$&*:::*&$XX                         ",
"                         X$&::::::::*&$X                        ",
"                        X$*::::::::::**$X                       ",
"                        X*::,,,:::::::**X                       ",
"                       X$:::,,,::::::::*$X                      ",
"                       X&:::,,,::::::::*&X                      ",
"                       X*::::::::::::::**X                      ",
"                       X::::::::::::::::*X                      ",
"                       X::::::::::::::::*X                      ",
"                       X::::::::::::::::*X                      ",
"                       X::::::::::::&&&:*X                      ",
"                       X:::::::::::*&:&*&X                      ",
"                       X*::::,,:::**::&*&X                      ",
"                        X:::*$$&*:*:::&&X                       ",
"                        X:::XX==*:**:&$X                        ",
"                        X:::@@<::***$$X                         ",
"                        X*:::::::::*&XX        XXXX             ",
"                   XXXX  X&:::::::*&$XXX      X:::X             ",
"                  X$&&X  XX$*::::*&$X;;-XX   X$,:&X             ",
"                  X$$&XXXXXX$$$$$$$X>111>#XX X&,&$X             ",
"                  X$$$X#X---XXXXXXX>>111>>-#X&::&XX             ",
"                  X$$$X#X;;;;;;;;>>>>>11>11>X::&&X              ",
"                  X$$$X#X>>>>>>>>>>>>;;;-->>X::&$X              ",
"                  XX$$XXX>>>>>>>>>>;;;-#XXXX$:,&X               ",
"                   X$$XXX;>>>>>>>>>>--#X    X:,X                ",
"                   XXX  X;>>>>>11>>>;;X     X&:X                ",
"                        X#>>>111>>;;;-X      XX                 ",
"                         X;>>;;--;;--XX                         ",
"                         X-11>>>;;;--X                          ",
"                         XX>>11>;;;-XX                          ",
"                         .oXXXXXXXXX..                          ",
"                         .o+%%%%++++O.                          ",
"                         .O+++++++++O.                          ",
"                         .++OO.o+%%+O.                          ",
"                         .++OO.o+%%+O.                          ",
"                         .O++Oo.+%%++..                         ",
"                         .o+++o.o%%%+o.                         ",
"                          .O++O..O%%%O.                         ",
"                          .o++O..o+%+O.                         ",
"                          ......1......                         ",
"                        XX&*:**X1XX***$X                        ",
"                       X***::**XXX&&**&X                        ",
"                       X:::::*$XX$*::**X                        ",
"                       XXXXXXXX&:::::&&X                        ",
"                              X**::*&&X                         ",
"                               XXXXXXX                          ",
"                                                                ",
"                                                                "
};
