/* XPM */
static char *result[] = {
/* columns rows colors chars-per-pixel */
"64 64 17 1 ",
"  c black",
". c #2B1F0E",
"X c #281820",
"o c #433016",
"O c #4B3618",
"+ c #7B5828",
"@ c gray26",
"# c #9E3E37",
"$ c #B2803B",
"% c #D28560",
"& c #EAA377",
"* c #958080",
"= c #C4B59F",
"- c #FDD5B7",
"; c #E5E6C7",
": c #FBECE6",
"> c white",
/* pixels */
"                                                                ",
"                                                                ",
"                                                                ",
"                                                                ",
"                                                                ",
"                                                                ",
"                                                                ",
"                                                                ",
"                                                                ",
"                                                                ",
"                                                                ",
"                                                                ",
"                                                                ",
"                                                                ",
"                                                                ",
"                                                                ",
"                           XXXXXXXXXX                           ",
"                         XX#&&---&&&#XX                         ",
"                        X#&--------&&&#X                        ",
"                       X#&----------&&&#X                       ",
"                       X&------------&&&X                       ",
"                      X#---:::-------&&&#X                      ",
"                      X%---:::--------&&%X                      ",
"                      X&---:::--------&&&X                      ",
"                      X&--------------&&&X                      ",
"                     X#&--------------&&&#X                     ",
"                     X#%--------------&&%#X                     ",
"                     X&%&------------&&&%&X                     ",
"                     X-&&------------&&&&-X                     ",
"                     X&-&&----------&&&&-&X                     ",
"        XXXX          X-%&&&------&&&&&%-X          XXXX        ",
"       X-&#X           X#&&&&&&&&&&&&&&#X           X#&-X       ",
"       X--%#X           X%&&&&&&&&&&&&%X           X#%--X       ",
"       X&-%%X       XXXXX#%&&&&&&&&&&%#XXXXX       X%%-&X       ",
"       X#-&%XXXXXXXX@@==*X##&&&&&&&&##X*==@@XXXXXXXX%&-#X       ",
"        X&--X@@@@==;;>>>;;XX&&&&&&&&XX;;>>>;;==@@@@X--&X        ",
"        X#-:X;;;>>>;>>>;;;;=XXXXXXXX=;;;;>>>;>>>;;;X:-#X        ",
"         X&:X==;;;;;;;;;;;;;;======;;;;;;;;;;;;;;==X:&X         ",
"         X&-XXXXXXX@=;;;;;;;;;;;;;;;;;;;;;;=@XXXXXXX-&X         ",
"         X&-X      XX**;;;;;;;;;;;;;;;;;;**XX      X-&X         ",
"          XXX        X@*=;;;;;;;;;;;;;;=*@X        XXX          ",
"                      XX*=;;;=;;;;=;;;=*XX                      ",
"                       X@*=;;=;;;;=;;=*@X                       ",
"                        X***==;;;;==***X                        ",
"                       .X*====;;;;====*X.                       ",
"                       .oXX===;;;;===XXo.                       ",
"                       .o++XXXXXXXXXX++o.                       ",
"                       .O+O++$$$$$$++O+O.                       ",
"                      ..++O++$$$$$$++O++..                      ",
"                      .O$$+o++$$$$++o+$$O.                      ",
"                      .O$$$OoOO++OOoO$$$O.                      ",
"                      .O$$$+o......o+$$$O.                      ",
"                      .O$$+O.      .O+$$O.                      ",
"                      .o+++o.      .o+++o.                      ",
"                      .oOO+.        .+OOo.                      ",
"                     X#.....        .....#X                     ",
"                    X##%&&&X        X&&&%##X                    ",
"                    X##&--&X        X&--&##X                    ",
"                    X%%::-%X        X%-::%%X                    ",
"                    X%&::-%X        X%-::&%X                    ",
"                     X#&-%#X        X#%-&#X                     ",
"                      XXXXX          XXXXX                      ",
"                                                                ",
"                                                                "
};
