/* XPM */
static char *d6f77c268df942e5ad1431bf3a631a41xP3bF32Dr4q8gEeL[] = {
/* columns rows colors chars-per-pixel */
"40 40 3 1 ",
"  c None",
". c black",
"X c #C96628",
/* pixels */
"                                        ",
"  ....................................  ",
"  ....................................  ",
"  ....................................  ",
"  .........XXXXXXXXXXXXXXXXXXXXX......  ",
"  .........XXXXXXXXXXXXXXXXXXXXX......  ",
"  .........XXXXXXXXXXXXXXXXXXXXX......  ",
"  ......XXX.....................XXX...  ",
"  ......XXX.....................XXX...  ",
"  ......XXX.....................XXX...  ",
"  ...XXX......XXXXXXXXXXXXXXX......XXX  ",
"  ...XXX......XXXXXXXXXXXXXXX......XXX  ",
"  ...XXX......XXXXXXXXXXXXXXX......XXX  ",
"  ...XXX...XXXXXXXXXXXXXXXXXXXXX...XXX  ",
"  ...XXX...XXXXXXXXXXXXXXXXXXXXX...XXX  ",
"  ...XXX...XXXXXXXXXXXXXXXXXXXXX...XXX  ",
"  ...XXX......XXXXXXXXXXXXXXXXXX...XXX  ",
"  ...XXX......XXXXXXXXXXXXXXXXXX...XXX  ",
"  ...XXX......XXXXXXXXXXXXXXXXXX...XXX  ",
"  ...XXX...XXXXXXXXXXXXXXXXXXXXX...XXX  ",
"  ...XXX...XXXXXXXXXXXXXXXXXXXXX...XXX  ",
"  ...XXX...XXXXXXXXXXXXXXXXXXXXX...XXX  ",
"  ...XXX...XXXXXXXXXXXXXXX...XXX...XXX  ",
"  ...XXX...XXXXXXXXXXXXXXX...XXX...XXX  ",
"  ...XXX...XXXXXXXXXXXXXXX...XXX...XXX  ",
"  ...XXX...XXXXXXXXXXXXXXX...XXX...XXX  ",
"  ...XXX...XXXXXXXXXXXXXXX...XXX...XXX  ",
"  ...XXX...XXXXXXXXXXXXXXX...XXX...XXX  ",
"  ...XXX...XXXXXXXXXXXXXXXXXXXXX...XXX  ",
"  ...XXX...XXXXXXXXXXXXXXXXXXXXX...XXX  ",
"  ...XXX...XXXXXXXXXXXXXXXXXXXXX...XXX  ",
"  ...XXX......XXXXXXXXXXXXXXXXXX...XXX  ",
"  ...XXX......XXXXXXXXXXXXXXXXXX...XXX  ",
"  ...XXX......XXXXXXXXXXXXXXXXXX...XXX  ",
"  ...XXX...XXXXXXXXXXXXXXXXXXXXX...XXX  ",
"  ...XXX...XXXXXXXXXXXXXXXXXXXXX...XXX  ",
"  ...XXX...XXXXXXXXXXXXXXXXXXXXX...XXX  ",
"                                        ",
"                                        ",
"                                        "
};
