/* XPM */
static char *_ebba214ad41462d97a1c4f79158c5735M8siOenoCIwQx4m[] = {
/* columns rows colors chars-per-pixel */
"40 40 3 1 ",
"  c None",
". c black",
"X c #808080",
/* pixels */
"                                        ",
"                                        ",
"   .................................... ",
"   .................................... ",
"   .................................... ",
"   ......XXXXXX...XXXXXXXXX...XXXXXX... ",
"   ......XXXXXX...XXXXXXXXX...XXXXXX... ",
"   ......XXXXXX...XXXXXXXXX...XXXXXX... ",
"   ...XXXXXXXXXXXX...XXXXXX...XXXXXXXXX ",
"   ...XXXXXXXXXXXX...XXXXXX...XXXXXXXXX ",
"   ...XXXXXXXXXXXX...XXXXXX...XXXXXXXXX ",
"   ...XXXXXXXXXXXX.........XXXXXXXXXXXX ",
"   ...XXXXXXXXXXXX.........XXXXXXXXXXXX ",
"   ...XXXXXXXXXXXX.........XXXXXXXXXXXX ",
"   ...XXXXXX......XXXXXX...XXXXXXXXXXXX ",
"   ...XXXXXX......XXXXXX...XXXXXXXXXXXX ",
"   ...XXXXXX......XXXXXX...XXXXXXXXXXXX ",
"   ...XXX.........XXXXXX.........XXXXXX ",
"   ...XXX.........XXXXXX.........XXXXXX ",
"   ...XXX.........XXXXXX.........XXXXXX ",
"   ......XXXXXX...XXX...XXXXXXXXX...... ",
"   ......XXXXXX...XXX...XXXXXXXXX...... ",
"   ......XXXXXX...XXX...XXXXXXXXX...... ",
"   ...XXXXXXXXX......XXXXXXXXXXXXXXX... ",
"   ...XXXXXXXXX......XXXXXXXXXXXXXXX... ",
"   ...XXXXXXXXX......XXXXXXXXXXXXXXX... ",
"   ...XXXXXXXXXXXX...XXXXXXXXX......XXX ",
"   ...XXXXXXXXXXXX...XXXXXXXXX......XXX ",
"   ...XXXXXXXXXXXX...XXXXXXXXX......XXX ",
"   ...XXXXXXXXXXXX...............XXXXXX ",
"   ...XXXXXXXXXXXX...............XXXXXX ",
"   ...XXXXXXXXXXXX...............XXXXXX ",
"   ...XXXXXXXXX...XXXXXXXXX......XXXXXX ",
"   ...XXXXXXXXX...XXXXXXXXX......XXXXXX ",
"   ...XXXXXXXXX...XXXXXXXXX......XXXXXX ",
"   ......XXXXXX...XXXXXXXXXXXX...XXX... ",
"   ......XXXXXX...XXXXXXXXXXXX...XXX... ",
"   ......XXXXXX...XXXXXXXXXXXX...XXX... ",
"                                        ",
"                                        "
};
