/* XPM */
static char *result[] = {
/* columns rows colors chars-per-pixel */
"64 64 92 1 ",
"  c black",
". c #010000",
"X c #020100",
"o c #030100",
"O c #030101",
"+ c #040101",
"@ c #050101",
"# c #050201",
"$ c #060201",
"% c #070201",
"& c #0B0302",
"* c #0C0402",
"= c #100503",
"- c #110503",
"; c #120503",
": c #140603",
"> c #170704",
", c #1C0804",
"< c #210A05",
"1 c #240B06",
"2 c #250B06",
"3 c #270C06",
"4 c #280C06",
"5 c #290C06",
"6 c #290C07",
"7 c #2E0E07",
"8 c #351008",
"9 c #3B1209",
"0 c #3F130A",
"q c #41140A",
"w c #42140A",
"e c #43140A",
"r c #43140B",
"t c #44140B",
"y c #46150B",
"u c #4C170C",
"i c #551A0D",
"p c #561A0D",
"a c #5D1C0F",
"s c #5E1C0F",
"d c #601D0F",
"f c #611D0F",
"g c #641E10",
"h c #6F2212",
"j c #772413",
"k c #7B2513",
"l c #7C2513",
"z c #7C2514",
"x c #7D2614",
"c c #7E2614",
"v c #7F2614",
"b c #892916",
"n c #8F2B17",
"m c #972D18",
"M c #982E18",
"N c #9B2F18",
"B c #9C2F19",
"V c #A03019",
"C c #AB341B",
"Z c #B0351C",
"A c #B2351C",
"S c #B2361C",
"D c #B4361C",
"F c #B5371D",
"G c #B6371D",
"H c #BF391E",
"J c #C43B1F",
"K c #C53B1F",
"L c #C63C1F",
"P c #C73C1F",
"I c #C83C20",
"U c #CA3D20",
"Y c #CB3D20",
"T c #D23F21",
"R c #D44021",
"E c #D84122",
"W c #D94122",
"Q c #DA4222",
"! c #DB4222",
"~ c #DC4223",
"^ c #DD4223",
"/ c #DE4323",
"( c #DF4323",
") c #E04323",
"_ c #E14423",
"` c #E24424",
"' c #E34424",
"] c #E44524",
"[ c #E64524",
"{ c #E74524",
"} c #E84625",
"| c None",
/* pixels */
"||||||||||||||||||||||||||||||||||||||||||||||||||||||||||||||||",
"||||||||||||||||||||||||||||||||||||||||||||||||||||||||||||||||",
"||||||||||||||||||||||||||||||||||||||||||||||||||||||||||||||||",
"||||||||||||||||||||||||||||||||||||||||||||||||||||||||||||||||",
"||||||||||||||||||||||||||||||||||||||||||||||||||||||||||||||||",
"|||                                                          |||",
"|||                                                          |||",
"|||                                                          |||",
"|||                                                          |||",
"|||    -ufaaaaaaaaaaaaaaadi,   -ufaaaaaaaaaaaaaaadi,   -ufaaa|||",
"|||    3CQTTTTTTTTTTTTTTTWH0   3CQTTTTTTTTTTTTTTTWH0   3CQTTT|||",
"|||    5D]~~~~~~~~~~~~~~~'Ie   5D]~~~~~~~~~~~~~~~'Ie   5D]~~~|||",
"|||    4Z)EEEEEEEEEEEEEEE(Jq   4Z)EEEEEEEEEEEEEEE(Jq   4Z)EEE|||",
"|||    4Z)EEEEEEEEEEEEEEE(Jq   4Z)EEEEEEEEEEEEEEE(Jq   4Z)EEE|||",
"|||    4Z)EEEEEEEEEEEEEEE(Jq   4Z)EEEEEEEEEEEEEEE(Jq   4Z)EEE|||",
"|||    4Z)EEEEEEEEEEEEEEE(Jq   4Z)EEEEEEEEEEEEEEE(Jq   4Z)EEE|||",
"|||    4Z)EEEEEEEEEEEEEEE(Jq   4Z)EEEEEEEEEEEEEEE(Jq   4Z)EEE|||",
"|||    5F{((((((((((((((([Ur   5F{((((((((((((((([Ur   5F{(((|||",
"|||    1VYJJJJJJJJJJJJJJJUS9   1VYJJJJJJJJJJJJJJJUS9   1VYJJJ|||",
"|||    *8tqqqqqqqqqqqqqqqr9:   *8tqqqqqqqqqqqqqqqr9:   *8tqqq|||",
"|||                                                          |||",
"|||                                                          |||",
"|||                                                          |||",
"|||    %<645,+   -35444444444444444444444>.  .>44444444444444|||",
"|||    <nGZFk=   uCDZZZZZZZZZZZZZZZZZZZASg@  @gSAZZZZZZZZZZZZ|||",
"|||    6G}){B:   fQ])))))))))))))))))))``v$  $v``))))))))))))|||",
"|||    4Z)E(m:   aT~EEEEEEEEEEEEEEEEEEEQQk$  $kQQEEEEEEEEEEEE|||",
"|||    4Z)E(m:   aT~EEEEEEEEEEEEEEEEEEEQQk$  $kQQEEEEEEEEEEEE|||",
"|||    4Z)E(m:   aT~EEEEEEEEEEEEEEEEEEEQQk$  $kQQEEEEEEEEEEEE|||",
"|||    4Z)E(m:   aT~EEEEEEEEEEEEEEEEEEEQQk$  $kQQEEEEEEEEEEEE|||",
"|||    4Z)E(m:   aT~EEEEEEEEEEEEEEEEEEEQQk$  $kQQEEEEEEEEEEEE|||",
"|||    4A`Q_M:   sR/QQQQQQQQQQQQQQQQQQQ~~l$  $l~~QQQQQQQQQQQQ|||",
"|||    4S`!_M:   sR(QQQQQQQQQQQQQQQQQQQ~^z$  $z^~QQQQQQQQQQQQ|||",
"|||    >gvkcp&   8jxkkkkkkkkkkkkkkkkkkklzyO  Oyzlkkkkkkkkkkkk|||",
"|||    .@$$$+.   o$$$$$$$$$$$$$$$$$$$$$$$O    O$$$$$$$$$$$$$$|||",
"|||                                                          |||",
"|||                                                          |||",
"|||    .@$$$$$$$$$$$$$$$$$#X   .@$$$$$$$$$$$$$$$$$#X   .@$$$$|||",
"|||    >gvkkkkkkkkkkkkkkkch2   >gvkkkkkkkkkkkkkkkch2   >gvkkk|||",
"|||    4S`QQQQQQQQQQQQQQQ_Pw   4S`QQQQQQQQQQQQQQQ_Pw   4S`QQQ|||",
"|||    4A`QQQQQQQQQQQQQQQ_Lw   4A`QQQQQQQQQQQQQQQ_Lw   4A`QQQ|||",
"|||    4Z)EEEEEEEEEEEEEEE(Jq   4Z)EEEEEEEEEEEEEEE(Jq   4Z)EEE|||",
"|||    4Z)EEEEEEEEEEEEEEE(Jq   4Z)EEEEEEEEEEEEEEE(Jq   4Z)EEE|||",
"|||    4Z)EEEEEEEEEEEEEEE(Jq   4Z)EEEEEEEEEEEEEEE(Jq   4Z)EEE|||",
"|||    4Z)EEEEEEEEEEEEEEE(Jq   4Z)EEEEEEEEEEEEEEE(Jq   4Z)EEE|||",
"|||    4Z)EEEEEEEEEEEEEEE(Jq   4Z)EEEEEEEEEEEEEEE(Jq   4Z)EEE|||",
"|||    6G}))))))))))))))){Yt   6G}))))))))))))))){Yt   6G})))|||",
"|||    <nGZZZZZZZZZZZZZZZFV8   <nGZZZZZZZZZZZZZZZFV8   <nGZZZ|||",
"|||    %<644444444444444451*   %<644444444444444451*   %<6444|||",
"|||                                                          |||",
"|||                                                          |||",
"|||                                                          |||",
"|||    *8tqr7$   ,0eqqqqqqqqqqqqqqqqqqqww2X  X2wwqqqqqqqqqqqq|||",
"|||    1VYKUb;   iHIJJJJJJJJJJJJJJJJJJJLPh#  #hPLJJJJJJJJJJJJ|||",
"|||    5F{([N:   dW'(((((((((((((((((((__c$  $c__((((((((((((|||",
"|||    4Z)E(m:   aT~EEEEEEEEEEEEEEEEEEEQQk$  $kQQEEEEEEEEEEEE|||",
"|||    4Z)E(m:   aT~EEEEEEEEEEEEEEEEEEEQQk$  $kQQEEEEEEEEEEEE|||",
"|||    4Z)E(m:   aT~EEEEEEEEEEEEEEEEEEEQQk$  $kQQEEEEEEEEEEEE|||",
"|||    4Z)E(m:   aT~EEEEEEEEEEEEEEEEEEEQQk$  $kQQEEEEEEEEEEEE|||",
"|||    4Z)E(m:   aT~EEEEEEEEEEEEEEEEEEEQQk$  $kQQEEEEEEEEEEEE|||",
"|||    4Z)E(m:   aT~EEEEEEEEEEEEEEEEEEEQQk$  $kQQEEEEEEEEEEEE|||",
"|||    4Z)E(m:   aT~EEEEEEEEEEEEEEEEEEEQQk$  $kQQEEEEEEEEEEEE|||",
"||||||||||||||||||||||||||||||||||||||||||||||||||||||||||||||||",
"||||||||||||||||||||||||||||||||||||||||||||||||||||||||||||||||"
};
