/* XPM */
static char *result[] = {
/* columns rows colors chars-per-pixel */
"64 64 20 1 ",
"  c black",
". c #2B1F0E",
"X c #281820",
"o c #433016",
"O c #4B3618",
"+ c #7B5828",
"@ c #293D4B",
"# c gray26",
"$ c #9E3E37",
"% c #B2803B",
"& c #D28560",
"* c #EAA377",
"= c #50D4EC",
"- c #958080",
"; c #C4B59F",
": c #FDD5B7",
"> c #E5E6C7",
", c #FBECE6",
"< c #F2F8F9",
"1 c white",
/* pixels */
"                                                                ",
"                                                                ",
"                                                                ",
"                                                                ",
"                                                                ",
"                                                                ",
"                                                                ",
"                                                                ",
"                                                                ",
"                                                                ",
"                                                                ",
"                                                                ",
"                                                                ",
"                                                                ",
"                                                                ",
"                           XXXXXXXXXX                           ",
"                         XX$&*:::**&$XX                         ",
"                        X$*::::::::**&$X                        ",
"                       X$*:::::::::::**$X                       ",
"                       X*::,,,::::::::*&X                       ",
"                      X$:::,,,::::::::**$X                      ",
"                      X&:::,,,:::::::::*&X                      ",
"                      X*:::::::::::::::**X                      ",
"                      X*:::::::::::::::**X                      ",
"                      X*:::::::::::::::**X                      ",
"                      X&:::::::::::::::*&X                      ",
"                     X$&*:::::::::::::**&$X                     ",
"                     X:&**::::::::::::**&:X                     ",
"                     X:***:,,::::::,,**&*:X                     ",
"        XXX          X::&*&$$*::::*$$&*&::X          XXX        ",
"       X:*$X          X:&*=XX=*::*=XX=*&:X          X$*:X       ",
"       X::$X           XX*:@@<::::<@@:*XX           X$::X       ",
"       X*:$$X       XXXXX&::::::::::::&XXXXX       X$$:*X       ",
"       X$:*$XXXXXXXX##;;X$*::::::::::*$X;;##XXXXXXXX$*:$X       ",
"        X*::X####;;>>111>X$$*::::::*$$X>111>>;;####X::*X        ",
"        X$:,,X>>111>1111>>XX$$$$$$$$XX>>1111>111>>X,,:$X        ",
"         X*,*X;>>>>>>11>>>>;XXXXXXXX;>>>>11>>>>>>;X*,*X         ",
"         X*:$XXXXXX#;>>>>>>>;;;;;;;;>>>>>>>;#XXXXXX$:*X         ",
"         X*:X      XX#-;;>>>>>>>>>>>>>>;;-#XX      X:*X         ",
"          XXX        XX##>>>>>>>>>>>>>>##XX        XXX          ",
"                      X#;;>>>>>>>>>>>>;;#X                      ",
"                       X-;>1>>>>>>>>1>;-X                       ",
"                       X#-;>11>>>>11>;-#X                       ",
"                        X---;>>>>>>;---X                        ",
"                        X;;;>>1111>>;;;X                        ",
"                       .OXX;>11>>11>;XXO.                       ",
"                       .+++XXXXXXXXXX+++.                       ",
"                       .++O+++%%%%+++O++.                       ",
"                       .++OO++++++++OO++.                       ",
"                      .O%%+OoO++++OoO+%%O.                      ",
"                      .O%%%++o....o++%%%O.                      ",
"                      .O%%++o.    .o++%%O.                      ",
"                      .O%%+O.      .O+%%O.                      ",
"                      .O+++o.      .o+++O.                      ",
"                      .oO++.        .++Oo.                      ",
"                      ......        ......                      ",
"                     X&****$X      X$****&X                     ",
"                     X*:::*&X      X&*:::*X                     ",
"                    X&:::::*X      X*:::::&X                    ",
"                    X::::::*X      X*::::::X                    ",
"                    X*:,&,,X        X,,&,:*X                    ",
"                     XXXXXX          XXXXXX                     ",
"                                                                ",
"                                                                "
};
