/* XPM */
static char *_9b7775884424cadc238c96f8bca0740IlHIZzXOfOHxjuQm[] = {
/* columns rows colors chars-per-pixel */
"40 40 3 1 ",
"  c None",
". c black",
"X c #FEFFFF",
/* pixels */
"                                        ",
"                                        ",
"  ....................................  ",
"  ....................................  ",
"  ....................................  ",
"  ............XXXXXXXXX...............  ",
"  ............XXXXXXXXX...............  ",
"  ............XXXXXXXXX...............  ",
"  .........XXX...XXX..................  ",
"  .........XXX...XXX..................  ",
"  .........XXX...XXX..................  ",
"  .........XXXXXXXXXXXX...............  ",
"  .........XXXXXXXXXXXX...............  ",
"  .........XXXXXXXXXXXX...............  ",
"  ............XXXXXXXXX...............  ",
"  ............XXXXXXXXX...............  ",
"  ............XXXXXXXXX...............  ",
"  ....................................  ",
"  ....................................  ",
"  ....................................  ",
"  .........XXXXXXXXXXXX...............  ",
"  .........XXXXXXXXXXXX...............  ",
"  .........XXXXXXXXXXXX...............  ",
"  ......XXX...XXXXXXXXX...XXX.........  ",
"  ......XXX...XXXXXXXXX...XXX.........  ",
"  ......XXX...XXXXXXXXX...XXX.........  ",
"  ......XXX...XXXXXXXXX...............  ",
"  ......XXX...XXXXXXXXX...............  ",
"  ......XXX...XXXXXXXXX...............  ",
"  ............XXXXXXXXX...............  ",
"  ............XXXXXXXXX...............  ",
"  ............XXXXXXXXX...............  ",
"  ............XXX...XXX...............  ",
"  ............XXX...XXX...............  ",
"  ............XXX...XXX...............  ",
"  ............XXX...XXXXXX............  ",
"  ............XXX...XXXXXX............  ",
"  ............XXX...XXXXXX............  ",
"                                        ",
"                                        "
};
