/* XPM */
static char *_1df53e46aa6459fc99be9e119b2aebehi3BMpsIPLGCj6rL[] = {
/* columns rows colors chars-per-pixel */
"40 40 3 1 ",
"  c None",
". c black",
"X c #009900",
/* pixels */
"                                        ",
"                                        ",
"  ....................................  ",
"  ....................................  ",
"  ....................................  ",
"  ............XXXXXXXXXXXX............  ",
"  ............XXXXXXXXXXXX............  ",
"  ............XXXXXXXXXXXX............  ",
"  .........XXX...XXXXXXXXXXXX.........  ",
"  .........XXX...XXXXXXXXXXXX.........  ",
"  .........XXX...XXXXXXXXXXXX.........  ",
"  .........XXXXXX......XXXXXX.........  ",
"  .........XXXXXX......XXXXXX.........  ",
"  .........XXXXXX......XXXXXX.........  ",
"  ......XXX.........XXXXXX............  ",
"  ......XXX.........XXXXXX............  ",
"  ......XXX.........XXXXXX............  ",
"  ..................XXXXXX............  ",
"  ..................XXXXXX............  ",
"  ..................XXXXXX............  ",
"  ...............XXXXXX...............  ",
"  ...............XXXXXX...............  ",
"  ...............XXXXXX...............  ",
"  ...XXX.........XXXXXX...XXXXXX......  ",
"  ...XXX.........XXXXXX...XXXXXX......  ",
"  ...XXX.........XXXXXX...XXXXXX......  ",
"  ......XXXXXX...XXXXXX......XXXXXX...  ",
"  ......XXXXXX...XXXXXX......XXXXXX...  ",
"  ......XXXXXX...XXXXXX......XXXXXX...  ",
"  ...............XXXXXXXXXXXXXXXXXX...  ",
"  ...............XXXXXXXXXXXXXXXXXX...  ",
"  ...............XXXXXXXXXXXXXXXXXX...  ",
"  ..................XXXXXXXXXXXX......  ",
"  ..................XXXXXXXXXXXX......  ",
"  ..................XXXXXXXXXXXX......  ",
"  ....................................  ",
"  ....................................  ",
"  ....................................  ",
"                                        ",
"                                        "
};
