/* XPM */
static char *result[] = {
/* columns rows colors chars-per-pixel */
"64 64 17 1 ",
"  c black",
". c #997700",
"X c #CC8800",
"o c #DDAA00",
"O c #E9C300",
"+ c #EECB00",
"@ c #EECC00",
"# c #F1D300",
"$ c #F4D800",
"% c #F6DC00",
"& c #F7DD00",
"* c #F8E000",
"= c #F9E300",
"- c #FAE500",
"; c #FFEE00",
": c #F8F8F8",
"> c white",
/* pixels */
"                    ....................                        ",
"                    ....................                        ",
"                    ....................                        ",
"                    ....................                        ",
"            ........;;;;;;;;;;;;;;;;;;;;........                ",
"            ........;;;;;;;;;;;;;;;;;;;;........                ",
"            ........;;;;;;;;;;;;;;;;;;;;........                ",
"            ........;;;;;;;;;;;;;;;;;;;;........                ",
"        ....>>>>>>>>>>>>oooooooo@@@@@@@@@@@@;;;;....            ",
"        ....>>>>>>>>>>>>oooooooo@@@@@@@@@@@@;;;;....            ",
"        ....>>>>>>>>>>>>oooooooo@@@@@@@@@@@@;;;;....            ",
"        ....>>>>>>>>>>>>oooooooo@@@@@@@@@@@@;;;;....            ",
"    ....>>>>>>>>>>>>@@@@ooooXXXXXXXXXXXX@@@@@@@@;;;;....        ",
"    ....>>>>>>>>>>>>@@@@ooooXXXXXXXXXXXX@@@@@@@@;;;;....        ",
"    ....>>>>>>>>>>>>@@@@ooooXXXXXXXXXXXX@@@@@@@@;;;;....        ",
"    ....>>>>>>>>>>>>@@@@ooooXXXXXXXXXXXX@@@@@@@@;;;;....        ",
"    ....;;;;;;;;####ooooXXXXoooooooooooo::::@@@@@@@@....        ",
"    ....;;;;;;;;####ooooXXXXoooooooooooo::::@@@@@@@@....        ",
"    ....;;;;;;;;####ooooXXXXoooooooooooo::::@@@@@@@@....        ",
"    ....;;;;;;;;####ooooXXXXoooooooooooo::::@@@@@@@@....        ",
"....;;;;;;;;;;;;####XXXXoooooooo;;;;oooooooo::::@@@@&&&&....    ",
"....;;;;;;;;;;;;####XXXXoooooooo;;;;oooooooo::::@@@@&&&&....    ",
"....;;;;;;;;;;;;####XXXXoooooooo;;;;oooooooo::::@@@@&&&&....    ",
"....;;;;;;;;;;;;####XXXXoooooooo;;;;oooooooo::::@@@@&&&&....    ",
"....;;;;;;;;$$$$####XXXXoooo;;;;oooo;;;;oooo::::@@@@&&&&....    ",
"....;;;;;;;;$$$$####XXXXoooo;;;;oooo;;;;oooo::::@@@@&&&&....    ",
"....;;;;;;;;$$$$####XXXXoooo;;;;oooo;;;;oooo::::@@@@&&&&....    ",
"....;;;;;;;;$$$$####XXXXoooo;;;;oooo;;;;oooo::::@@@@&&&&....    ",
"....;;;;;;;;####ooooXXXXoooo;;;;oooooooooooo::::@@@@&&&&....    ",
"....;;;;;;;;####ooooXXXXoooo;;;;oooooooooooo::::@@@@&&&&....    ",
"....;;;;;;;;####ooooXXXXoooo;;;;oooooooooooo::::@@@@&&&&....    ",
"....;;;;;;;;####ooooXXXXoooo;;;;oooooooooooo::::@@@@&&&&....    ",
"....====%%%%####ooooXXXXoooo;;;;oooooooooooo::::@@@@&&&&....    ",
"....====%%%%####ooooXXXXoooo;;;;oooooooooooo::::@@@@&&&&....    ",
"....====%%%%####ooooXXXXoooo;;;;oooooooooooo::::@@@@&&&&....    ",
"....====%%%%####ooooXXXXoooo;;;;oooooooooooo::::@@@@&&&&....    ",
"....;;;;;;;;########XXXXoooo;;;;oooo;;;;oooo::::@@@@&&&&....    ",
"....;;;;;;;;########XXXXoooo;;;;oooo;;;;oooo::::@@@@&&&&....    ",
"....;;;;;;;;########XXXXoooo;;;;oooo;;;;oooo::::@@@@&&&&....    ",
"....;;;;;;;;########XXXXoooo;;;;oooo;;;;oooo::::@@@@&&&&....    ",
"....;;;;;;;;;;;;####ooooXXXXoooo;;;;oooooooo::::@@@@&&&&....    ",
"....;;;;;;;;;;;;####ooooXXXXoooo;;;;oooooooo::::@@@@&&&&....    ",
"....;;;;;;;;;;;;####ooooXXXXoooo;;;;oooooooo::::@@@@&&&&....    ",
"....;;;;;;;;;;;;####ooooXXXXoooo;;;;oooooooo::::@@@@&&&&....    ",
"    ....----****####oooo::::oooooooooooo::::@@@@@@@@....        ",
"    ....----****####oooo::::oooooooooooo::::@@@@@@@@....        ",
"    ....----****####oooo::::oooooooooooo::::@@@@@@@@....        ",
"    ....----****####oooo::::oooooooooooo::::@@@@@@@@....        ",
"    ....====****%%%%####oooo::::::::::::@@@@@@@@&&&&....        ",
"    ....====****%%%%####oooo::::::::::::@@@@@@@@&&&&....        ",
"    ....====****%%%%####oooo::::::::::::@@@@@@@@&&&&....        ",
"    ....====****%%%%####oooo::::::::::::@@@@@@@@&&&&....        ",
"        ....;;;;++++++++OOOOoooooooo@@@@@@@@&&&&....            ",
"        ....;;;;++++++++OOOOoooooooo@@@@@@@@&&&&....            ",
"        ....;;;;++++++++OOOOoooooooo@@@@@@@@&&&&....            ",
"        ....;;;;++++++++OOOOoooooooo@@@@@@@@&&&&....            ",
"            ........;;;;;;;;;;;;@@@@@@@@........                ",
"            ........;;;;;;;;;;;;@@@@@@@@........                ",
"            ........;;;;;;;;;;;;@@@@@@@@........                ",
"            ........;;;;;;;;;;;;@@@@@@@@........                ",
"                    ....................                        ",
"                    ....................                        ",
"                    ....................                        ",
"                    ....................                        "
};
