/* XPM */
static char *result[] = {
/* columns rows colors chars-per-pixel */
"64 64 9 1 ",
"  c black",
". c #997700",
"X c #CC8800",
"o c #DDAA00",
"O c #E4B800",
"+ c #E9C300",
"@ c #FFEE00",
"# c #F8F8F8",
"$ c white",
/* pixels */
"                    ....................                        ",
"                    ....................                        ",
"                    ....................                        ",
"                    ....................                        ",
"                ....@@@@@@@@@@@@@@@@oooo....                    ",
"                ....@@@@@@@@@@@@@@@@oooo....                    ",
"                ....@@@@@@@@@@@@@@@@oooo....                    ",
"                ....@@@@@@@@@@@@@@@@oooo....                    ",
"            ....$$$$$$$$$$$$$$$$oooooooooooo....                ",
"            ....$$$$$$$$$$$$$$$$oooooooooooo....                ",
"            ....$$$$$$$$$$$$$$$$oooooooooooo....                ",
"            ....$$$$$$$$$$$$$$$$oooooooooooo....                ",
"            ....$$$$$$$$$$$$ooooooooXXXXoooo....                ",
"            ....$$$$$$$$$$$$ooooooooXXXXoooo....                ",
"            ....$$$$$$$$$$$$ooooooooXXXXoooo....                ",
"            ....$$$$$$$$$$$$ooooooooXXXXoooo....                ",
"        ....@@@@@@@@@@@@@@@@ooooXXXXoooooooooooo....            ",
"        ....@@@@@@@@@@@@@@@@ooooXXXXoooooooooooo....            ",
"        ....@@@@@@@@@@@@@@@@ooooXXXXoooooooooooo....            ",
"        ....@@@@@@@@@@@@@@@@ooooXXXXoooooooooooo....            ",
"        ....@@@@@@@@@@@@++++ooooXXXXoooo####oooo....            ",
"        ....@@@@@@@@@@@@++++ooooXXXXoooo####oooo....            ",
"        ....@@@@@@@@@@@@++++ooooXXXXoooo####oooo....            ",
"        ....@@@@@@@@@@@@++++ooooXXXXoooo####oooo....            ",
"        ....@@@@@@@@@@@@OOOOooooXXXXoooo####oooo....            ",
"        ....@@@@@@@@@@@@OOOOooooXXXXoooo####oooo....            ",
"        ....@@@@@@@@@@@@OOOOooooXXXXoooo####oooo....            ",
"        ....@@@@@@@@@@@@OOOOooooXXXXoooo####oooo....            ",
"        ....@@@@@@@@@@@@ooooooooXXXXoooo####oooo....            ",
"        ....@@@@@@@@@@@@ooooooooXXXXoooo####oooo....            ",
"        ....@@@@@@@@@@@@ooooooooXXXXoooo####oooo....            ",
"        ....@@@@@@@@@@@@ooooooooXXXXoooo####oooo....            ",
"        ....@@@@@@@@@@@@ooooooooXXXXoooo####oooo....            ",
"        ....@@@@@@@@@@@@ooooooooXXXXoooo####oooo....            ",
"        ....@@@@@@@@@@@@ooooooooXXXXoooo####oooo....            ",
"        ....@@@@@@@@@@@@ooooooooXXXXoooo####oooo....            ",
"        ....ooooooooooooooooooooXXXXoooo####oooo....            ",
"        ....ooooooooooooooooooooXXXXoooo####oooo....            ",
"        ....ooooooooooooooooooooXXXXoooo####oooo....            ",
"        ....ooooooooooooooooooooXXXXoooo####oooo....            ",
"        ....@@@@@@@@@@@@ooooooooXXXXoooo####oooo....            ",
"        ....@@@@@@@@@@@@ooooooooXXXXoooo####oooo....            ",
"        ....@@@@@@@@@@@@ooooooooXXXXoooo####oooo....            ",
"        ....@@@@@@@@@@@@ooooooooXXXXoooo####oooo....            ",
"        ....@@@@@@@@@@@@@@@@oooooooooooo####oooo....            ",
"        ....@@@@@@@@@@@@@@@@oooooooooooo####oooo....            ",
"        ....@@@@@@@@@@@@@@@@oooooooooooo####oooo....            ",
"        ....@@@@@@@@@@@@@@@@oooooooooooo####oooo....            ",
"            ....oooooooooooooooooooo####oooo....                ",
"            ....oooooooooooooooooooo####oooo....                ",
"            ....oooooooooooooooooooo####oooo....                ",
"            ....oooooooooooooooooooo####oooo....                ",
"            ....@@@@oooooooooooooooooooooooo....                ",
"            ....@@@@oooooooooooooooooooooooo....                ",
"            ....@@@@oooooooooooooooooooooooo....                ",
"            ....@@@@oooooooooooooooooooooooo....                ",
"                ....@@@@@@@@@@@@@@@@oooo....                    ",
"                ....@@@@@@@@@@@@@@@@oooo....                    ",
"                ....@@@@@@@@@@@@@@@@oooo....                    ",
"                ....@@@@@@@@@@@@@@@@oooo....                    ",
"                    ....................                        ",
"                    ....................                        ",
"                    ....................                        ",
"                    ....................                        "
};
