/* XPM */
static char *result[] = {
/* columns rows colors chars-per-pixel */
"64 64 21 1 ",
"  c black",
". c #2B1F0E",
"X c #281820",
"o c #433016",
"O c #4B3618",
"+ c #7B5828",
"@ c #293D4B",
"# c gray26",
"$ c #9E3E37",
"% c #B2803B",
"& c #D28560",
"* c #EAA377",
"= c #5187B3",
"- c #50D4EC",
"; c #958080",
": c #C4B59F",
"> c #FDD5B7",
", c #E5E6C7",
"< c #FBECE6",
"1 c #F2F8F9",
"2 c white",
/* pixels */
"                                                                ",
"                                                                ",
"                                                                ",
"                                                                ",
"                                                                ",
"                                                                ",
"                                                                ",
"                                                                ",
"                                                                ",
"                                                                ",
"                                                                ",
"                                                                ",
"                                                                ",
"                                                                ",
"                                                                ",
"                           XXXXXXXXX                            ",
"                         XX$&*>>>*&$XX                          ",
"                        X$&>>>>>>>>*&$X                         ",
"                       X$*>>>>>>>>>>**$X                        ",
"                       X*>><<<>>>>>>>**X                        ",
"                      X$>>><<<>>>>>>>>*$X                       ",
"                      X&>>><<<>>>>>>>>*&X                       ",
"                      X*>>>>>>>>>>>>>>**X                       ",
"                      X>>>>>>>>>>>>>>>>*X                       ",
"                      X>>>>>>>>>>>>>>>>*X                       ",
"                      X>>>>>>>>>>>>>>>>*X                       ",
"                      X*>&&&>>>>>>>>>>>>X                       ",
"                      X&*&>&*>>>><<>>>>>X                       ",
"                      X&*&>>**>*&$$*>>>*X                       ",
"                       X&&>>>*>*--XX>>>X                        ",
"                        X$&>**>>11X=>>>X                        ",
"                         X$$***>>1@@>>>X                        ",
"                         XX&*>>>>>>>>>*X                        ",
"                        XXX$&*>>>>>>>&X                         ",
"                       X#::X$&*>>>>*$XX                         ",
"                      X#,22,X$$$$$$$XXX                         ",
"                      X:222,,XXXXXXX;;;X                        ",
"                     X#,22,,,,,::::::::X                        ",
"                     X;,,,,,,,,,,,,,,,,X                        ",
"                     X,,,,:::,,,,,,,,,,X                        ",
"                     X,,,:;;,,,,,,,,,,:X                        ",
"                     X,,,;#:,,,22,,,,,:X                        ",
"                     X,,2#X:::,,222,,,#X                        ",
"                     X:,2#X;;::;;::,,:XX                        ",
"                     X;,,XXX;:::,,,22;X&X                       ",
"                     X#,X&&XX:::,22,,XX&X                       ",
"                     XXX>>>*XXXXXXXXXoX&X                       ",
"                      X&<>>$X++++++++o.$X                       ",
"                      X&>>>$X++++++++O.X                        ",
"                       X&>>>X+++OooO++.                         ",
"                        XXXXo%%+o.OO++.                         ",
"                         .o++%%+.oO++O.                         ",
"                         .o+%%%o.o+++o                          ",
"                         .O%%%O..O++O.                          ",
"                         .O+%+o..O++o.                          ",
"                         ......2......                          ",
"                        X$***XX2X**>*&XX                        ",
"                        X&**&&XXX**>>***X                       ",
"                        X**>>*$XX$*>>>>>X                       ",
"                        X&&>>>>>&XXXXXXXX                       ",
"                         X&&*>>**X                              ",
"                          XXXXXXX                               ",
"                                                                ",
"                                                                "
};
