/* XPM */
static char *_4ee2e05ad49444299b9c87b8b90e137UTyssEiuGobBnFwP_1[] = {
/* columns rows colors chars-per-pixel */
"70 150 16 1 ",
"  c None",
". c #FDD835",
"X c #FFB300",
"o c #F4511E",
"O c #FB8C00",
"+ c #503731",
"@ c #563C35",
"# c #5F423A",
"$ c #50362F",
"% c #523730",
"& c #583B33",
"* c #4E342D",
"= c #482F29",
"- c #462E28",
"; c #412925",
": c black",
/* pixels */
"                              ........................................",
"                              ........................................",
"                              ........................................",
"                              ........................................",
"                              ........................................",
"                              ........................................",
"                              ........................................",
"                              ........................................",
"                              ........................................",
"                              ........................................",
"                    ....................          ..........          ",
"                    ....................          ..........          ",
"                    ....................          ..........          ",
"                    ....................          ..........          ",
"                    ....................          ..........          ",
"                    ....................          ..........          ",
"                    ....................          ..........          ",
"                    ....................          ..........          ",
"                    ....................          ..........          ",
"                    ....................          ..........          ",
"                    ....................XXXXXXXXXX                    ",
"                    ....................XXXXXXXXXX                    ",
"                    ....................XXXXXXXXXX                    ",
"                    ....................XXXXXXXXXX                    ",
"                    ....................XXXXXXXXXX                    ",
"                    ....................XXXXXXXXXX                    ",
"                    ....................XXXXXXXXXX                    ",
"                    ....................XXXXXXXXXX                    ",
"                    ....................XXXXXXXXXX                    ",
"                    ....................XXXXXXXXXX                    ",
"          ..........XXXXXXXXXXXXXXXXXXXX..........                    ",
"          ..........XXXXXXXXXXXXXXXXXXXX..........                    ",
"          ..........XXXXXXXXXXXXXXXXXXXX..........                    ",
"          ..........XXXXXXXXXXXXXXXXXXXX..........                    ",
"          ..........XXXXXXXXXXXXXXXXXXXX..........                    ",
"          ..........XXXXXXXXXXXXXXXXXXXX..........                    ",
"          ..........XXXXXXXXXXXXXXXXXXXX..........                    ",
"          ..........XXXXXXXXXXXXXXXXXXXX..........                    ",
"          ..........XXXXXXXXXXXXXXXXXXXX..........                    ",
"          ..........XXXXXXXXXXXXXXXXXXXX..........                    ",
"..........XXXXXXXXXXXXXXXXXXXXooooooooooXXXXXXXXXXXXXXXXXXXX          ",
"..........XXXXXXXXXXXXXXXXXXXXooooooooooXXXXXXXXXXXXXXXXXXXX          ",
"..........XXXXXXXXXXXXXXXXXXXXooooooooooXXXXXXXXXXXXXXXXXXXX          ",
"..........XXXXXXXXXXXXXXXXXXXXooooooooooXXXXXXXXXXXXXXXXXXXX          ",
"..........XXXXXXXXXXXXXXXXXXXXooooooooooXXXXXXXXXXXXXXXXXXXX          ",
"..........XXXXXXXXXXXXXXXXXXXXooooooooooXXXXXXXXXXXXXXXXXXXX          ",
"..........XXXXXXXXXXXXXXXXXXXXooooooooooXXXXXXXXXXXXXXXXXXXX          ",
"..........XXXXXXXXXXXXXXXXXXXXooooooooooXXXXXXXXXXXXXXXXXXXX          ",
"..........XXXXXXXXXXXXXXXXXXXXooooooooooXXXXXXXXXXXXXXXXXXXX          ",
"..........XXXXXXXXXXXXXXXXXXXXooooooooooXXXXXXXXXXXXXXXXXXXX          ",
"          ..........ooooooooooXXXXXXXXXX..........XXXXXXXXXX          ",
"          ..........ooooooooooXXXXXXXXXX..........XXXXXXXXXX          ",
"          ..........ooooooooooXXXXXXXXXX..........XXXXXXXXXX          ",
"          ..........ooooooooooXXXXXXXXXX..........XXXXXXXXXX          ",
"          ..........ooooooooooXXXXXXXXXX..........XXXXXXXXXX          ",
"          ..........ooooooooooXXXXXXXXXX..........XXXXXXXXXX          ",
"          ..........ooooooooooXXXXXXXXXX..........XXXXXXXXXX          ",
"          ..........ooooooooooXXXXXXXXXX..........XXXXXXXXXX          ",
"          ..........ooooooooooXXXXXXXXXX..........XXXXXXXXXX          ",
"          ..........ooooooooooXXXXXXXXXX..........XXXXXXXXXX          ",
"..........XXXXXXXXXX..........ooooooooooooooooooooXXXXXXXXXX          ",
"..........XXXXXXXXXX..........ooooooooooooooooooooXXXXXXXXXX          ",
"..........XXXXXXXXXX..........ooooooooooooooooooooXXXXXXXXXX          ",
"..........XXXXXXXXXX..........ooooooooooooooooooooXXXXXXXXXX          ",
"..........XXXXXXXXXX..........ooooooooooooooooooooXXXXXXXXXX          ",
"..........XXXXXXXXXX..........ooooooooooooooooooooXXXXXXXXXX          ",
"..........XXXXXXXXXX..........ooooooooooooooooooooXXXXXXXXXX          ",
"..........XXXXXXXXXX..........ooooooooooooooooooooXXXXXXXXXX          ",
"..........XXXXXXXXXX..........ooooooooooooooooooooXXXXXXXXXX          ",
"..........XXXXXXXXXX..........ooooooooooooooooooooXXXXXXXXXX          ",
"..........XXXXXXXXXXXXXXXXXXXXOOOOOOOOOOOOOOOOOOOOXXXXXXXXXX          ",
"..........XXXXXXXXXXXXXXXXXXXXOOOOOOOOOOOOOOOOOOOOXXXXXXXXXX          ",
"..........XXXXXXXXXXXXXXXXXXXXOOOOOOOOOOOOOOOOOOOOXXXXXXXXXX          ",
"..........XXXXXXXXXXXXXXXXXXXXOOOOOOOOOOOOOOOOOOOOXXXXXXXXXX          ",
"..........XXXXXXXXXXXXXXXXXXXXOOOOOOOOOOOOOOOOOOOOXXXXXXXXXX          ",
"..........XXXXXXXXXXXXXXXXXXXXOOOOOOOOOOOOOOOOOOOOXXXXXXXXXX          ",
"..........XXXXXXXXXXXXXXXXXXXXOOOOOOOOOOOOOOOOOOOOXXXXXXXXXX          ",
"..........XXXXXXXXXXXXXXXXXXXXOOOOOOOOOOOOOOOOOOOOXXXXXXXXXX          ",
"..........XXXXXXXXXXXXXXXXXXXXOOOOOOOOOOOOOOOOOOOOXXXXXXXXXX          ",
"..........XXXXXXXXXXXXXXXXXXXXOOOOOOOOOOOOOOOOOOOOXXXXXXXXXX          ",
"ooooooooooOOOOOOOOOOooooooooooOOOOOOOOOOoooooooooooooooooooo          ",
"ooooooooooOOOOOOOOOOooooooooooOOOOOOOOOOoooooooooooooooooooo          ",
"ooooooooooOOOOOOOOOOooooooooooOOOOOOOOOOoooooooooooooooooooo          ",
"ooooooooooOOOOOOOOOOooooooooooOOOOOOOOOOoooooooooooooooooooo          ",
"ooooooooooOOOOOOOOOOooooooooooOOOOOOOOOOoooooooooooooooooooo          ",
"ooooooooooOOOOOOOOOOooooooooooOOOOOOOOOOoooooooooooooooooooo          ",
"ooooooooooOOOOOOOOOOooooooooooOOOOOOOOOOoooooooooooooooooooo          ",
"ooooooooooOOOOOOOOOOooooooooooOOOOOOOOOOoooooooooooooooooooo          ",
"ooooooooooOOOOOOOOOOooooooooooOOOOOOOOOOoooooooooooooooooooo          ",
"ooooooooooOOOOOOOOOOooooooooooOOOOOOOOOOoooooooooooooooooooo          ",
"                    ++++++++++@@@@@@@@@@                              ",
"                    ++++++++++@@@@@@@@@@                              ",
"                    ++++++++++@@@@@@@@@@                              ",
"                    ++++++++++@@@@@@@@@@                              ",
"                    ++++++++++@@@@@@@@@@                              ",
"                    ++++++++++@@@@@@@@@@                              ",
"                    ++++++++++@@@@@@@@@@                              ",
"                    ++++++++++@@@@@@@@@@                              ",
"                    ++++++++++@@@@@@@@@@                              ",
"                    ++++++++++@@@@@@@@@@                              ",
"                    ##########$$$$$$$$$$                              ",
"                    ##########$$$$$$$$$$                              ",
"                    ##########$$$$$$$$$$                              ",
"                    ##########$$$$$$$$$$                              ",
"                    ##########$$$$$$$$$$                              ",
"                    ##########$$$$$$$$$$                              ",
"                    ##########$$$$$$$$$$                              ",
"                    ##########$$$$$$$$$$                              ",
"                    ##########$$$$$$$$$$                              ",
"                    ##########$$$$$$$$$$                              ",
"                    %%%%%%%%%%&&&&&&&&&&                              ",
"                    %%%%%%%%%%&&&&&&&&&&                              ",
"                    %%%%%%%%%%&&&&&&&&&&                              ",
"                    %%%%%%%%%%&&&&&&&&&&                              ",
"                    %%%%%%%%%%&&&&&&&&&&                              ",
"                    %%%%%%%%%%&&&&&&&&&&                              ",
"                    %%%%%%%%%%&&&&&&&&&&                              ",
"                    %%%%%%%%%%&&&&&&&&&&                              ",
"                    %%%%%%%%%%&&&&&&&&&&                              ",
"                    %%%%%%%%%%&&&&&&&&&&                              ",
"                    %%%%%%%%%%**********                              ",
"                    %%%%%%%%%%**********                              ",
"                    %%%%%%%%%%**********                              ",
"                    %%%%%%%%%%**********                              ",
"                    %%%%%%%%%%**********                              ",
"                    %%%%%%%%%%**********                              ",
"                    %%%%%%%%%%**********                              ",
"                    %%%%%%%%%%**********                              ",
"                    %%%%%%%%%%**********                              ",
"                    %%%%%%%%%%**********                              ",
"                    ==========----------                              ",
"                    ==========----------                              ",
"                    ==========----------                              ",
"                    ==========----------                              ",
"                    ==========----------                              ",
"                    ==========----------                              ",
"                    ==========----------                              ",
"                    ==========----------                              ",
"                    ==========----------                              ",
"                    ==========----------                              ",
"                    ;;;;;;;;;;;;;;;;;;;;                              ",
"                    ;;;;;;;;;;;;;;;;;;;;                              ",
"                    ;;;;;;;;;;;;;;;;;;;;                              ",
"                    ;;;;;;;;;;;;;;;;;;;;                              ",
"                    ;;;;;;;;;;;;;;;;;;;;                              ",
"                    ;;;;;;;;;;;;;;;;;;;;                              ",
"                    ;;;;;;;;;;;;;;;;;;;;                              ",
"                    ;;;;;;;;;;;;;;;;;;;;                              ",
"                    ;;;;;;;;;;;;;;;;;;;;                              ",
"                    ;;;;;;;;;;;;;;;;;;;;                              "
};
