/* XPM */
static char *_4ee2e05ad49444299b9c87b8b90e137UTyssEiuGobBnFwP_3[] = {
/* columns rows colors chars-per-pixel */
"50 150 32 1 ",
"  c None",
". c #FDD835",
"X c #FFB300",
"o c #FB8C00",
"O c #F4511E",
"+ c #553A33",
"@ c #5C4039",
"# c #5D4039",
"$ c #523731",
"% c #563A33",
"& c #5C3F36",
"* c #4E342D",
"= c #523730",
"- c #462E28",
"; c #482F29",
": c #3E2723",
"> c #412925",
", c black",
"< c black",
"1 c black",
"2 c black",
"3 c black",
"4 c black",
"5 c black",
"6 c black",
"7 c black",
"8 c black",
"9 c black",
"0 c black",
"q c black",
"w c black",
"e c black",
/* pixels */
"                              ..........          ",
"                              ..........          ",
"                              ..........          ",
"                              ..........          ",
"                              ..........          ",
"                              ..........          ",
"                              ..........          ",
"                              ..........          ",
"                              ..........          ",
"                              ..........          ",
"                                        ..........",
"                                        ..........",
"                                        ..........",
"                                        ..........",
"                                        ..........",
"                                        ..........",
"                                        ..........",
"                                        ..........",
"                                        ..........",
"                                        ..........",
"                              ....................",
"                              ....................",
"                              ....................",
"                              ....................",
"                              ....................",
"                              ....................",
"                              ....................",
"                              ....................",
"                              ....................",
"                              ....................",
"                    ..........          ..........",
"                    ..........          ..........",
"                    ..........          ..........",
"                    ..........          ..........",
"                    ..........          ..........",
"                    ..........          ..........",
"                    ..........          ..........",
"                    ..........          ..........",
"                    ..........          ..........",
"                    ..........          ..........",
"          XXXXXXXXXXXXXXXXXXXXXXXXXXXXXXXXXXXXXXXX",
"          XXXXXXXXXXXXXXXXXXXXXXXXXXXXXXXXXXXXXXXX",
"          XXXXXXXXXXXXXXXXXXXXXXXXXXXXXXXXXXXXXXXX",
"          XXXXXXXXXXXXXXXXXXXXXXXXXXXXXXXXXXXXXXXX",
"          XXXXXXXXXXXXXXXXXXXXXXXXXXXXXXXXXXXXXXXX",
"          XXXXXXXXXXXXXXXXXXXXXXXXXXXXXXXXXXXXXXXX",
"          XXXXXXXXXXXXXXXXXXXXXXXXXXXXXXXXXXXXXXXX",
"          XXXXXXXXXXXXXXXXXXXXXXXXXXXXXXXXXXXXXXXX",
"          XXXXXXXXXXXXXXXXXXXXXXXXXXXXXXXXXXXXXXXX",
"          XXXXXXXXXXXXXXXXXXXXXXXXXXXXXXXXXXXXXXXX",
"          ..............................XXXXXXXXXX",
"          ..............................XXXXXXXXXX",
"          ..............................XXXXXXXXXX",
"          ..............................XXXXXXXXXX",
"          ..............................XXXXXXXXXX",
"          ..............................XXXXXXXXXX",
"          ..............................XXXXXXXXXX",
"          ..............................XXXXXXXXXX",
"          ..............................XXXXXXXXXX",
"          ..............................XXXXXXXXXX",
"          ....................XXXXXXXXXXoooooooooo",
"          ....................XXXXXXXXXXoooooooooo",
"          ....................XXXXXXXXXXoooooooooo",
"          ....................XXXXXXXXXXoooooooooo",
"          ....................XXXXXXXXXXoooooooooo",
"          ....................XXXXXXXXXXoooooooooo",
"          ....................XXXXXXXXXXoooooooooo",
"          ....................XXXXXXXXXXoooooooooo",
"          ....................XXXXXXXXXXoooooooooo",
"          ....................XXXXXXXXXXoooooooooo",
"          ..........oooooooooooooooooooooooooooooo",
"          ..........oooooooooooooooooooooooooooooo",
"          ..........oooooooooooooooooooooooooooooo",
"          ..........oooooooooooooooooooooooooooooo",
"          ..........oooooooooooooooooooooooooooooo",
"          ..........oooooooooooooooooooooooooooooo",
"          ..........oooooooooooooooooooooooooooooo",
"          ..........oooooooooooooooooooooooooooooo",
"          ..........oooooooooooooooooooooooooooooo",
"          ..........oooooooooooooooooooooooooooooo",
"          XXXXXXXXXXOOOOOOOOOOooooooooooOOOOOOOOOO",
"          XXXXXXXXXXOOOOOOOOOOooooooooooOOOOOOOOOO",
"          XXXXXXXXXXOOOOOOOOOOooooooooooOOOOOOOOOO",
"          XXXXXXXXXXOOOOOOOOOOooooooooooOOOOOOOOOO",
"          XXXXXXXXXXOOOOOOOOOOooooooooooOOOOOOOOOO",
"          XXXXXXXXXXOOOOOOOOOOooooooooooOOOOOOOOOO",
"          XXXXXXXXXXOOOOOOOOOOooooooooooOOOOOOOOOO",
"          XXXXXXXXXXOOOOOOOOOOooooooooooOOOOOOOOOO",
"          XXXXXXXXXXOOOOOOOOOOooooooooooOOOOOOOOOO",
"          XXXXXXXXXXOOOOOOOOOOooooooooooOOOOOOOOOO",
"                    ++++++++++@@@@@@@@@@          ",
"                    ++++++++++@@@@@@@@@@          ",
"                    ++++++++++@@@@@@@@@@          ",
"                    ++++++++++@@@@@@@@@@          ",
"                    ++++++++++@@@@@@@@@@          ",
"                    ++++++++++@@@@@@@@@@          ",
"                    ++++++++++@@@@@@@@@@          ",
"                    ++++++++++@@@@@@@@@@          ",
"                    ++++++++++@@@@@@@@@@          ",
"                    ++++++++++@@@@@@@@@@          ",
"                    ##########$$$$$$$$$$          ",
"                    ##########$$$$$$$$$$          ",
"                    ##########$$$$$$$$$$          ",
"                    ##########$$$$$$$$$$          ",
"                    ##########$$$$$$$$$$          ",
"                    ##########$$$$$$$$$$          ",
"                    ##########$$$$$$$$$$          ",
"                    ##########$$$$$$$$$$          ",
"                    ##########$$$$$$$$$$          ",
"                    ##########$$$$$$$$$$          ",
"                    %%%%%%%%%%&&&&&&&&&&          ",
"                    %%%%%%%%%%&&&&&&&&&&          ",
"                    %%%%%%%%%%&&&&&&&&&&          ",
"                    %%%%%%%%%%&&&&&&&&&&          ",
"                    %%%%%%%%%%&&&&&&&&&&          ",
"                    %%%%%%%%%%&&&&&&&&&&          ",
"                    %%%%%%%%%%&&&&&&&&&&          ",
"                    %%%%%%%%%%&&&&&&&&&&          ",
"                    %%%%%%%%%%&&&&&&&&&&          ",
"                    %%%%%%%%%%&&&&&&&&&&          ",
"                    **********==========          ",
"                    **********==========          ",
"                    **********==========          ",
"                    **********==========          ",
"                    **********==========          ",
"                    **********==========          ",
"                    **********==========          ",
"                    **********==========          ",
"                    **********==========          ",
"                    **********==========          ",
"                    ----------;;;;;;;;;;          ",
"                    ----------;;;;;;;;;;          ",
"                    ----------;;;;;;;;;;          ",
"                    ----------;;;;;;;;;;          ",
"                    ----------;;;;;;;;;;          ",
"                    ----------;;;;;;;;;;          ",
"                    ----------;;;;;;;;;;          ",
"                    ----------;;;;;;;;;;          ",
"                    ----------;;;;;;;;;;          ",
"                    ----------;;;;;;;;;;          ",
"                    ::::::::::>>>>>>>>>>          ",
"                    ::::::::::>>>>>>>>>>          ",
"                    ::::::::::>>>>>>>>>>          ",
"                    ::::::::::>>>>>>>>>>          ",
"                    ::::::::::>>>>>>>>>>          ",
"                    ::::::::::>>>>>>>>>>          ",
"                    ::::::::::>>>>>>>>>>          ",
"                    ::::::::::>>>>>>>>>>          ",
"                    ::::::::::>>>>>>>>>>          ",
"                    ::::::::::>>>>>>>>>>          "
};
