/* XPM */
static char *_4ee2e05ad49444299b9c87b8b90e137UTyssEiuGobBnFwP_2[] = {
/* columns rows colors chars-per-pixel */
"60 150 16 1 ",
"  c None",
". c #FDD835",
"X c #FFB300",
"o c #F4511E",
"O c #FB8C00",
"+ c #543933",
"@ c #593E38",
"# c #5C4038",
"$ c #503630",
"% c #553932",
"& c #563A33",
"* c #49302A",
"= c #4E342D",
"- c #462D28",
"; c #3E2723",
": c #402925",
/* pixels */
"                              ....................          ",
"                              ....................          ",
"                              ....................          ",
"                              ....................          ",
"                              ....................          ",
"                              ....................          ",
"                              ....................          ",
"                              ....................          ",
"                              ....................          ",
"                              ....................          ",
"                              ..........          ..........",
"                              ..........          ..........",
"                              ..........          ..........",
"                              ..........          ..........",
"                              ..........          ..........",
"                              ..........          ..........",
"                              ..........          ..........",
"                              ..........          ..........",
"                              ..........          ..........",
"                              ..........          ..........",
"          ..........          ....................          ",
"          ..........          ....................          ",
"          ..........          ....................          ",
"          ..........          ....................          ",
"          ..........          ....................          ",
"          ..........          ....................          ",
"          ..........          ....................          ",
"          ..........          ....................          ",
"          ..........          ....................          ",
"          ..........          ....................          ",
"..............................          XXXXXXXXXXXXXXXXXXXX",
"..............................          XXXXXXXXXXXXXXXXXXXX",
"..............................          XXXXXXXXXXXXXXXXXXXX",
"..............................          XXXXXXXXXXXXXXXXXXXX",
"..............................          XXXXXXXXXXXXXXXXXXXX",
"..............................          XXXXXXXXXXXXXXXXXXXX",
"..............................          XXXXXXXXXXXXXXXXXXXX",
"..............................          XXXXXXXXXXXXXXXXXXXX",
"..............................          XXXXXXXXXXXXXXXXXXXX",
"..............................          XXXXXXXXXXXXXXXXXXXX",
"..........XXXXXXXXXXXXXXXXXXXXXXXXXXXXXXXXXXXXXXXX..........",
"..........XXXXXXXXXXXXXXXXXXXXXXXXXXXXXXXXXXXXXXXX..........",
"..........XXXXXXXXXXXXXXXXXXXXXXXXXXXXXXXXXXXXXXXX..........",
"..........XXXXXXXXXXXXXXXXXXXXXXXXXXXXXXXXXXXXXXXX..........",
"..........XXXXXXXXXXXXXXXXXXXXXXXXXXXXXXXXXXXXXXXX..........",
"..........XXXXXXXXXXXXXXXXXXXXXXXXXXXXXXXXXXXXXXXX..........",
"..........XXXXXXXXXXXXXXXXXXXXXXXXXXXXXXXXXXXXXXXX..........",
"..........XXXXXXXXXXXXXXXXXXXXXXXXXXXXXXXXXXXXXXXX..........",
"..........XXXXXXXXXXXXXXXXXXXXXXXXXXXXXXXXXXXXXXXX..........",
"..........XXXXXXXXXXXXXXXXXXXXXXXXXXXXXXXXXXXXXXXX..........",
"          ..........oooooooooo..........XXXXXXXXXXXXXXXXXXXX",
"          ..........oooooooooo..........XXXXXXXXXXXXXXXXXXXX",
"          ..........oooooooooo..........XXXXXXXXXXXXXXXXXXXX",
"          ..........oooooooooo..........XXXXXXXXXXXXXXXXXXXX",
"          ..........oooooooooo..........XXXXXXXXXXXXXXXXXXXX",
"          ..........oooooooooo..........XXXXXXXXXXXXXXXXXXXX",
"          ..........oooooooooo..........XXXXXXXXXXXXXXXXXXXX",
"          ..........oooooooooo..........XXXXXXXXXXXXXXXXXXXX",
"          ..........oooooooooo..........XXXXXXXXXXXXXXXXXXXX",
"          ..........oooooooooo..........XXXXXXXXXXXXXXXXXXXX",
"........................................OOOOOOOOOO          ",
"........................................OOOOOOOOOO          ",
"........................................OOOOOOOOOO          ",
"........................................OOOOOOOOOO          ",
"........................................OOOOOOOOOO          ",
"........................................OOOOOOOOOO          ",
"........................................OOOOOOOOOO          ",
"........................................OOOOOOOOOO          ",
"........................................OOOOOOOOOO          ",
"........................................OOOOOOOOOO          ",
"          ....................OOOOOOOOOOoooooooooo          ",
"          ....................OOOOOOOOOOoooooooooo          ",
"          ....................OOOOOOOOOOoooooooooo          ",
"          ....................OOOOOOOOOOoooooooooo          ",
"          ....................OOOOOOOOOOoooooooooo          ",
"          ....................OOOOOOOOOOoooooooooo          ",
"          ....................OOOOOOOOOOoooooooooo          ",
"          ....................OOOOOOOOOOoooooooooo          ",
"          ....................OOOOOOOOOOoooooooooo          ",
"          ....................OOOOOOOOOOoooooooooo          ",
"          XXXXXXXXXXooooooooooOOOOOOOOOOoooooooooo          ",
"          XXXXXXXXXXooooooooooOOOOOOOOOOoooooooooo          ",
"          XXXXXXXXXXooooooooooOOOOOOOOOOoooooooooo          ",
"          XXXXXXXXXXooooooooooOOOOOOOOOOoooooooooo          ",
"          XXXXXXXXXXooooooooooOOOOOOOOOOoooooooooo          ",
"          XXXXXXXXXXooooooooooOOOOOOOOOOoooooooooo          ",
"          XXXXXXXXXXooooooooooOOOOOOOOOOoooooooooo          ",
"          XXXXXXXXXXooooooooooOOOOOOOOOOoooooooooo          ",
"          XXXXXXXXXXooooooooooOOOOOOOOOOoooooooooo          ",
"          XXXXXXXXXXooooooooooOOOOOOOOOOoooooooooo          ",
"                    ++++++++++@@@@@@@@@@                    ",
"                    ++++++++++@@@@@@@@@@                    ",
"                    ++++++++++@@@@@@@@@@                    ",
"                    ++++++++++@@@@@@@@@@                    ",
"                    ++++++++++@@@@@@@@@@                    ",
"                    ++++++++++@@@@@@@@@@                    ",
"                    ++++++++++@@@@@@@@@@                    ",
"                    ++++++++++@@@@@@@@@@                    ",
"                    ++++++++++@@@@@@@@@@                    ",
"                    ++++++++++@@@@@@@@@@                    ",
"                    ##########$$$$$$$$$$                    ",
"                    ##########$$$$$$$$$$                    ",
"                    ##########$$$$$$$$$$                    ",
"                    ##########$$$$$$$$$$                    ",
"                    ##########$$$$$$$$$$                    ",
"                    ##########$$$$$$$$$$                    ",
"                    ##########$$$$$$$$$$                    ",
"                    ##########$$$$$$$$$$                    ",
"                    ##########$$$$$$$$$$                    ",
"                    ##########$$$$$$$$$$                    ",
"                    %%%%%%%%%%&&&&&&&&&&                    ",
"                    %%%%%%%%%%&&&&&&&&&&                    ",
"                    %%%%%%%%%%&&&&&&&&&&                    ",
"                    %%%%%%%%%%&&&&&&&&&&                    ",
"                    %%%%%%%%%%&&&&&&&&&&                    ",
"                    %%%%%%%%%%&&&&&&&&&&                    ",
"                    %%%%%%%%%%&&&&&&&&&&                    ",
"                    %%%%%%%%%%&&&&&&&&&&                    ",
"                    %%%%%%%%%%&&&&&&&&&&                    ",
"                    %%%%%%%%%%&&&&&&&&&&                    ",
"                    **********==========                    ",
"                    **********==========                    ",
"                    **********==========                    ",
"                    **********==========                    ",
"                    **********==========                    ",
"                    **********==========                    ",
"                    **********==========                    ",
"                    **********==========                    ",
"                    **********==========                    ",
"                    **********==========                    ",
"                    --------------------                    ",
"                    --------------------                    ",
"                    --------------------                    ",
"                    --------------------                    ",
"                    --------------------                    ",
"                    --------------------                    ",
"                    --------------------                    ",
"                    --------------------                    ",
"                    --------------------                    ",
"                    --------------------                    ",
"                    ;;;;;;;;;;::::::::::                    ",
"                    ;;;;;;;;;;::::::::::                    ",
"                    ;;;;;;;;;;::::::::::                    ",
"                    ;;;;;;;;;;::::::::::                    ",
"                    ;;;;;;;;;;::::::::::                    ",
"                    ;;;;;;;;;;::::::::::                    ",
"                    ;;;;;;;;;;::::::::::                    ",
"                    ;;;;;;;;;;::::::::::                    ",
"                    ;;;;;;;;;;::::::::::                    ",
"                    ;;;;;;;;;;::::::::::                    "
};
