/* XPM */
static char *_4ee2e05ad49444299b9c87b8b90e137UTyssEiuGobBnFwP_4[] = {
/* columns rows colors chars-per-pixel */
"50 150 16 1 ",
"  c None",
". c #FDD835",
"X c #FFB300",
"o c #FB8C00",
"O c #F4511E",
"+ c #553A33",
"@ c #5C4039",
"# c #5A3E37",
"$ c #563A33",
"% c #5C3F36",
"& c #4E342D",
"* c #523730",
"= c #462D28",
"- c #482F29",
"; c #3E2723",
": c black",
/* pixels */
"                                        ..........",
"                                        ..........",
"                                        ..........",
"                                        ..........",
"                                        ..........",
"                                        ..........",
"                                        ..........",
"                                        ..........",
"                                        ..........",
"                                        ..........",
"                                                  ",
"                                                  ",
"                                                  ",
"                                                  ",
"                                                  ",
"                                                  ",
"                                                  ",
"                                                  ",
"                                                  ",
"                                                  ",
"          ..........          ..........          ",
"          ..........          ..........          ",
"          ..........          ..........          ",
"          ..........          ..........          ",
"          ..........          ..........          ",
"          ..........          ..........          ",
"          ..........          ..........          ",
"          ..........          ..........          ",
"          ..........          ..........          ",
"          ..........          ..........          ",
"          XXXXXXXXXX..........XXXXXXXXXXXXXXXXXXXX",
"          XXXXXXXXXX..........XXXXXXXXXXXXXXXXXXXX",
"          XXXXXXXXXX..........XXXXXXXXXXXXXXXXXXXX",
"          XXXXXXXXXX..........XXXXXXXXXXXXXXXXXXXX",
"          XXXXXXXXXX..........XXXXXXXXXXXXXXXXXXXX",
"          XXXXXXXXXX..........XXXXXXXXXXXXXXXXXXXX",
"          XXXXXXXXXX..........XXXXXXXXXXXXXXXXXXXX",
"          XXXXXXXXXX..........XXXXXXXXXXXXXXXXXXXX",
"          XXXXXXXXXX..........XXXXXXXXXXXXXXXXXXXX",
"          XXXXXXXXXX..........XXXXXXXXXXXXXXXXXXXX",
"          ..........XXXXXXXXXXXXXXXXXXXXXXXXXXXXXX",
"          ..........XXXXXXXXXXXXXXXXXXXXXXXXXXXXXX",
"          ..........XXXXXXXXXXXXXXXXXXXXXXXXXXXXXX",
"          ..........XXXXXXXXXXXXXXXXXXXXXXXXXXXXXX",
"          ..........XXXXXXXXXXXXXXXXXXXXXXXXXXXXXX",
"          ..........XXXXXXXXXXXXXXXXXXXXXXXXXXXXXX",
"          ..........XXXXXXXXXXXXXXXXXXXXXXXXXXXXXX",
"          ..........XXXXXXXXXXXXXXXXXXXXXXXXXXXXXX",
"          ..........XXXXXXXXXXXXXXXXXXXXXXXXXXXXXX",
"          ..........XXXXXXXXXXXXXXXXXXXXXXXXXXXXXX",
"..............................XXXXXXXXXXXXXXXXXXXX",
"..............................XXXXXXXXXXXXXXXXXXXX",
"..............................XXXXXXXXXXXXXXXXXXXX",
"..............................XXXXXXXXXXXXXXXXXXXX",
"..............................XXXXXXXXXXXXXXXXXXXX",
"..............................XXXXXXXXXXXXXXXXXXXX",
"..............................XXXXXXXXXXXXXXXXXXXX",
"..............................XXXXXXXXXXXXXXXXXXXX",
"..............................XXXXXXXXXXXXXXXXXXXX",
"..............................XXXXXXXXXXXXXXXXXXXX",
"..............................XXXXXXXXXXoooooooooo",
"..............................XXXXXXXXXXoooooooooo",
"..............................XXXXXXXXXXoooooooooo",
"..............................XXXXXXXXXXoooooooooo",
"..............................XXXXXXXXXXoooooooooo",
"..............................XXXXXXXXXXoooooooooo",
"..............................XXXXXXXXXXoooooooooo",
"..............................XXXXXXXXXXoooooooooo",
"..............................XXXXXXXXXXoooooooooo",
"..............................XXXXXXXXXXoooooooooo",
"          ..........ooooooooooXXXXXXXXXXoooooooooo",
"          ..........ooooooooooXXXXXXXXXXoooooooooo",
"          ..........ooooooooooXXXXXXXXXXoooooooooo",
"          ..........ooooooooooXXXXXXXXXXoooooooooo",
"          ..........ooooooooooXXXXXXXXXXoooooooooo",
"          ..........ooooooooooXXXXXXXXXXoooooooooo",
"          ..........ooooooooooXXXXXXXXXXoooooooooo",
"          ..........ooooooooooXXXXXXXXXXoooooooooo",
"          ..........ooooooooooXXXXXXXXXXoooooooooo",
"          ..........ooooooooooXXXXXXXXXXoooooooooo",
"          XXXXXXXXXXOOOOOOOOOOooooooooooOOOOOOOOOO",
"          XXXXXXXXXXOOOOOOOOOOooooooooooOOOOOOOOOO",
"          XXXXXXXXXXOOOOOOOOOOooooooooooOOOOOOOOOO",
"          XXXXXXXXXXOOOOOOOOOOooooooooooOOOOOOOOOO",
"          XXXXXXXXXXOOOOOOOOOOooooooooooOOOOOOOOOO",
"          XXXXXXXXXXOOOOOOOOOOooooooooooOOOOOOOOOO",
"          XXXXXXXXXXOOOOOOOOOOooooooooooOOOOOOOOOO",
"          XXXXXXXXXXOOOOOOOOOOooooooooooOOOOOOOOOO",
"          XXXXXXXXXXOOOOOOOOOOooooooooooOOOOOOOOOO",
"          XXXXXXXXXXOOOOOOOOOOooooooooooOOOOOOOOOO",
"                    ++++++++++@@@@@@@@@@          ",
"                    ++++++++++@@@@@@@@@@          ",
"                    ++++++++++@@@@@@@@@@          ",
"                    ++++++++++@@@@@@@@@@          ",
"                    ++++++++++@@@@@@@@@@          ",
"                    ++++++++++@@@@@@@@@@          ",
"                    ++++++++++@@@@@@@@@@          ",
"                    ++++++++++@@@@@@@@@@          ",
"                    ++++++++++@@@@@@@@@@          ",
"                    ++++++++++@@@@@@@@@@          ",
"                    ####################          ",
"                    ####################          ",
"                    ####################          ",
"                    ####################          ",
"                    ####################          ",
"                    ####################          ",
"                    ####################          ",
"                    ####################          ",
"                    ####################          ",
"                    ####################          ",
"                    $$$$$$$$$$%%%%%%%%%%          ",
"                    $$$$$$$$$$%%%%%%%%%%          ",
"                    $$$$$$$$$$%%%%%%%%%%          ",
"                    $$$$$$$$$$%%%%%%%%%%          ",
"                    $$$$$$$$$$%%%%%%%%%%          ",
"                    $$$$$$$$$$%%%%%%%%%%          ",
"                    $$$$$$$$$$%%%%%%%%%%          ",
"                    $$$$$$$$$$%%%%%%%%%%          ",
"                    $$$$$$$$$$%%%%%%%%%%          ",
"                    $$$$$$$$$$%%%%%%%%%%          ",
"                    &&&&&&&&&&**********          ",
"                    &&&&&&&&&&**********          ",
"                    &&&&&&&&&&**********          ",
"                    &&&&&&&&&&**********          ",
"                    &&&&&&&&&&**********          ",
"                    &&&&&&&&&&**********          ",
"                    &&&&&&&&&&**********          ",
"                    &&&&&&&&&&**********          ",
"                    &&&&&&&&&&**********          ",
"                    &&&&&&&&&&**********          ",
"                    ==========----------          ",
"                    ==========----------          ",
"                    ==========----------          ",
"                    ==========----------          ",
"                    ==========----------          ",
"                    ==========----------          ",
"                    ==========----------          ",
"                    ==========----------          ",
"                    ==========----------          ",
"                    ==========----------          ",
"                    ;;;;;;;;;;;;;;;;;;;;          ",
"                    ;;;;;;;;;;;;;;;;;;;;          ",
"                    ;;;;;;;;;;;;;;;;;;;;          ",
"                    ;;;;;;;;;;;;;;;;;;;;          ",
"                    ;;;;;;;;;;;;;;;;;;;;          ",
"                    ;;;;;;;;;;;;;;;;;;;;          ",
"                    ;;;;;;;;;;;;;;;;;;;;          ",
"                    ;;;;;;;;;;;;;;;;;;;;          ",
"                    ;;;;;;;;;;;;;;;;;;;;          ",
"                    ;;;;;;;;;;;;;;;;;;;;          "
};
