/* XPM */
static char *_422633d8f864b82c48450e82234a379w1kQ9nhvDa88mgky[] = {
/* columns rows colors chars-per-pixel */
"40 40 3 1 ",
"  c None",
". c None",
"X c #C6CF27",
/* pixels */
"                                        ",
"  ....................................  ",
"  ....................................  ",
"  ....................................  ",
"  ....................................  ",
"  ....................................  ",
"  ....................................  ",
"  ....................................  ",
"  ....................................  ",
"  ....................................  ",
"  .......XXXXXX.......................  ",
"  .......XXXXXX.......................  ",
"  .......XXXXXX.......................  ",
"  ....XXXXXXXXXXXX....................  ",
"  ....XXXXXXXXXXXX....................  ",
"  ....XXXXXXXXXXXX....................  ",
"  ....XXX......XXXXXXXXXXXXXXXXXXXXX..  ",
"  ....XXX......XXXXXXXXXXXXXXXXXXXXX..  ",
"  ....XXX......XXXXXXXXXXXXXXXXXXXXX..  ",
"  ....XXX......XXXXXXXXXXXX...XXX.....  ",
"  ....XXX......XXXXXXXXXXXX...XXX.....  ",
"  ....XXX......XXXXXXXXXXXX...XXX.....  ",
"  ....XXXXXXXXXXXX......XXX...........  ",
"  ....XXXXXXXXXXXX......XXX...........  ",
"  ....XXXXXXXXXXXX......XXX...........  ",
"  .......XXXXXX.......................  ",
"  .......XXXXXX.......................  ",
"  .......XXXXXX.......................  ",
"  ....................................  ",
"  ....................................  ",
"  ....................................  ",
"  ....................................  ",
"  ....................................  ",
"  ....................................  ",
"  ....................................  ",
"  ....................................  ",
"  ....................................  ",
"                                        ",
"                                        ",
"                                        "
};
