/* XPM */
static char *result[] = {
/* columns rows colors chars-per-pixel */
"64 64 7 1 ",
"  c black",
". c #997700",
"X c #CC8800",
"o c #DDAA00",
"O c #FFEE00",
"+ c #F8F8F8",
"@ c white",
/* pixels */
"                    ....................                        ",
"                    ....................                        ",
"                    ....................                        ",
"                    ....................                        ",
"                ....OOOOOOOOoooooooooooo....                    ",
"                ....OOOOOOOOoooooooooooo....                    ",
"                ....OOOOOOOOoooooooooooo....                    ",
"                ....OOOOOOOOoooooooooooo....                    ",
"            ....@@@@@@@@@@@@OOOOOOOOoooooooo....                ",
"            ....@@@@@@@@@@@@OOOOOOOOoooooooo....                ",
"            ....@@@@@@@@@@@@OOOOOOOOoooooooo....                ",
"            ....@@@@@@@@@@@@OOOOOOOOoooooooo....                ",
"        ....@@@@OOOOOOOOXXXXOOOOOOOOOOOOoooooooo....            ",
"        ....@@@@OOOOOOOOXXXXOOOOOOOOOOOOoooooooo....            ",
"        ....@@@@OOOOOOOOXXXXOOOOOOOOOOOOoooooooo....            ",
"        ....@@@@OOOOOOOOXXXXOOOOOOOOOOOOoooooooo....            ",
"        ....OOOOOOOOXXXXoooo++++OOOOOOOOoooooooo....            ",
"        ....OOOOOOOOXXXXoooo++++OOOOOOOOoooooooo....            ",
"        ....OOOOOOOOXXXXoooo++++OOOOOOOOoooooooo....            ",
"        ....OOOOOOOOXXXXoooo++++OOOOOOOOoooooooo....            ",
"    ....@@@@OOOOXXXXoooooooooooo++++OOOOoooooooooooo....        ",
"    ....@@@@OOOOXXXXoooooooooooo++++OOOOoooooooooooo....        ",
"    ....@@@@OOOOXXXXoooooooooooo++++OOOOoooooooooooo....        ",
"    ....@@@@OOOOXXXXoooooooooooo++++OOOOoooooooooooo....        ",
"    ....OOOOOOOOXXXXooooOOOOoooo++++OOOOOOOOoooooooo....        ",
"    ....OOOOOOOOXXXXooooOOOOoooo++++OOOOOOOOoooooooo....        ",
"    ....OOOOOOOOXXXXooooOOOOoooo++++OOOOOOOOoooooooo....        ",
"    ....OOOOOOOOXXXXooooOOOOoooo++++OOOOOOOOoooooooo....        ",
"    ....OOOOOOOOXXXXooooOOOOoooo++++OOOOOOOOoooooooo....        ",
"    ....OOOOOOOOXXXXooooOOOOoooo++++OOOOOOOOoooooooo....        ",
"    ....OOOOOOOOXXXXooooOOOOoooo++++OOOOOOOOoooooooo....        ",
"    ....OOOOOOOOXXXXooooOOOOoooo++++OOOOOOOOoooooooo....        ",
"    ....OOOOOOOOXXXXoooooooooooo++++OOOOOOOOoooooooo....        ",
"    ....OOOOOOOOXXXXoooooooooooo++++OOOOOOOOoooooooo....        ",
"    ....OOOOOOOOXXXXoooooooooooo++++OOOOOOOOoooooooo....        ",
"    ....OOOOOOOOXXXXoooooooooooo++++OOOOOOOOoooooooo....        ",
"    ....OOOOOOOOXXXXooooOOOOoooo++++OOOOOOOOoooooooo....        ",
"    ....OOOOOOOOXXXXooooOOOOoooo++++OOOOOOOOoooooooo....        ",
"    ....OOOOOOOOXXXXooooOOOOoooo++++OOOOOOOOoooooooo....        ",
"    ....OOOOOOOOXXXXooooOOOOoooo++++OOOOOOOOoooooooo....        ",
"    ....OOOOOOOOXXXXooooOOOOoooo++++OOOOoooooooooooo....        ",
"    ....OOOOOOOOXXXXooooOOOOoooo++++OOOOoooooooooooo....        ",
"    ....OOOOOOOOXXXXooooOOOOoooo++++OOOOoooooooooooo....        ",
"    ....OOOOOOOOXXXXooooOOOOoooo++++OOOOoooooooooooo....        ",
"        ....OOOOOOOOoooooooo++++OOOOOOOOoooooooo....            ",
"        ....OOOOOOOOoooooooo++++OOOOOOOOoooooooo....            ",
"        ....OOOOOOOOoooooooo++++OOOOOOOOoooooooo....            ",
"        ....OOOOOOOOoooooooo++++OOOOOOOOoooooooo....            ",
"        ....OOOOOOOO++++++++OOOOOOOOOOOOoooooooo....            ",
"        ....OOOOOOOO++++++++OOOOOOOOOOOOoooooooo....            ",
"        ....OOOOOOOO++++++++OOOOOOOOOOOOoooooooo....            ",
"        ....OOOOOOOO++++++++OOOOOOOOOOOOoooooooo....            ",
"            ....OOOOOOOOOOOOOOOOOOOOoooooooo....                ",
"            ....OOOOOOOOOOOOOOOOOOOOoooooooo....                ",
"            ....OOOOOOOOOOOOOOOOOOOOoooooooo....                ",
"            ....OOOOOOOOOOOOOOOOOOOOoooooooo....                ",
"                ....OOOOOOOOoooooooooooo....                    ",
"                ....OOOOOOOOoooooooooooo....                    ",
"                ....OOOOOOOOoooooooooooo....                    ",
"                ....OOOOOOOOoooooooooooo....                    ",
"                    ....................                        ",
"                    ....................                        ",
"                    ....................                        ",
"                    ....................                        "
};
