/* XPM */
static char *result[] = {
/* columns rows colors chars-per-pixel */
"64 64 125 2 ",
"   c #604F43",
".  c #625143",
"X  c #6A5542",
"o  c #6E5943",
"O  c #725742",
"+  c #755B43",
"@  c #7B5B41",
"#  c #766246",
"$  c #7D6244",
"%  c #7D6454",
"&  c #A37C3F",
"*  c #815F42",
"=  c #846143",
"-  c #8B6545",
";  c #866942",
":  c #8C6A44",
">  c #84644A",
",  c #936C45",
"<  c #986D47",
"1  c #956C48",
"2  c #9A6E48",
"3  c #947143",
"4  c #9B7643",
"5  c #9D7A44",
"6  c #95734A",
"7  c #9E7149",
"8  c #9C7A49",
"9  c #8E7056",
"0  c #917150",
"q  c #9B7951",
"w  c #A47D42",
"e  c #A2744B",
"r  c #A7784F",
"t  c #A9794F",
"y  c #AD7C51",
"u  c #B17F53",
"i  c #857065",
"p  c #9A7E6A",
"a  c #A7803F",
"s  c #AB833E",
"d  c #9F8047",
"f  c #A78040",
"g  c #AE8641",
"h  c #AF8842",
"j  c #A58249",
"k  c #A98549",
"l  c #A6894E",
"z  c #AC8A4B",
"x  c #B38C44",
"c  c #B28D4A",
"v  c #B69146",
"b  c #B99447",
"n  c #B5934C",
"m  c #BA9549",
"M  c #BD9A4C",
"N  c #A38452",
"B  c #AC8C53",
"V  c #B58255",
"C  c #B88457",
"Z  c #B68358",
"A  c #BA8659",
"S  c #BF895B",
"D  c #B59551",
"F  c #B89650",
"G  c #B59953",
"H  c #BD9B51",
"J  c #BC9D59",
"K  c #9F8474",
"L  c #9D8478",
"P  c #A88B67",
"I  c #B2956F",
"U  c #B7986B",
"Y  c #AE9372",
"T  c #AE957B",
"R  c #C19E4E",
"E  c #C38C5D",
"W  c #C7905F",
"Q  c #C5A24F",
"!  c #C5A454",
"~  c #C9A752",
"^  c #CBAB55",
"/  c #C3A65E",
"(  c #C7AA5D",
")  c #CAAB5B",
"_  c #CFB05C",
"`  c #D0B057",
"'  c #D1B25A",
"]  c #CB9362",
"[  c #D09664",
"{  c #D29865",
"}  c #C0A460",
"|  c #C7A868",
" . c #D4B661",
".. c #D6B962",
"X. c #D8BC65",
"o. c #D9BE68",
"O. c #DAC06B",
"+. c #A68F83",
"@. c #A79083",
"#. c #A89185",
"$. c #AF9987",
"%. c #A7928C",
"&. c #AA968F",
"*. c #AA9590",
"=. c #AC9891",
"-. c #AF9E9A",
";. c #B19E97",
":. c #B49F99",
">. c #BEA588",
",. c #B7A49C",
"<. c #BCAB9D",
"1. c #BEABA1",
"2. c #C2AD99",
"3. c #CBB690",
"4. c #C0AFA4",
"5. c #C3B1A5",
"6. c #C6B5AA",
"7. c #CDBCAC",
"8. c #CBBBB0",
"9. c #D8C3A5",
"0. c #DECAA2",
"q. c #D3C3B5",
"w. c #D9C9B9",
"e. c #E1CDA3",
"r. c None",
/* pixels */
"r.r.r.r.r.r.r.r.r.r.r.r.r.r.r.r.r.r.r.r.r.r.r.r.r.r.r.r.r.r.r.r.r.r.r.r.r.r.r.r.r.r.r.r.r.r.r.r.r.r.r.r.r.r.r.r.r.r.r.r.r.r.r.r.",
"r.r.r.r.r.r.r.r.r.r.r.r.r.r.r.r.r.r.r.r.r.r.r.r.r.r.r.r.r.r.r.r.r.r.r.r.r.r.r.r.r.r.r.r.r.r.r.r.r.r.r.r.r.r.r.r.r.r.r.r.r.r.r.r.",
"r.r.r.r.r.r.r.r.r.r.r.r.r.r.r.r.r.r.r.r.r.r.r.r.r.r.r.r.r.r.r.r.r.r.r.r.r.r.r.r.r.r.r.r.r.r.r.r.r.r.r.r.r.r.r.r.r.r.r.r.r.r.r.r.",
"r.r.r.r.r.r.r.r.r.r.r.r.r.r.r.r.r.r.r.r.r.r.r.r.r.r.r.r.r.r.r.r.r.r.r.r.r.r.r.r.r.r.r.r.r.r.r.r.r.r.r.r.r.r.r.r.r.r.r.r.r.r.r.r.",
"r.r.r.r.r.r.r.r.r.r.r.r.r.r.r.r.r.r.r.r.r.r.r.r.r.r.r.r.r.r.r.r.r.r.r.r.r.r.r.r.r.r.r.r.r.r.r.r.r.r.r.r.r.r.r.r.r.r.r.r.r.r.r.r.",
"r.r.r.r.r.r.r.r.r.r.r.r.r.r.r.r.r.r.r.r.r.r.r.r.r.r.r.r.r.r.r.r.r.r.r.r.r.r.r.r.r.r.r.r.r.r.r.r.r.r.r.r.r.r.r.r.r.r.r.r.r.r.r.r.",
"r.r.r.r.r.r.r.r.r.r.r.r.r.r.r.r.r.r.r.r.r.r.r.r.r.r.r.r.r.r.r.r.r.r.r.r.r.r.r.r.r.r.r.r.r.r.r.r.r.r.r.r.r.r.r.r.r.r.r.r.r.r.r.r.",
"r.r.r.r.r.r.r.r.r.r.r.r.r.r.r.r.r.r.r.r.r.r.[ [ [ [ [ [ [ [ [ [ [ [ [ [ ] V e r r r.r.r.r.r.r.r.r.r.r.r.r.r.r.r.r.r.r.r.r.r.r.r.",
"r.r.r.r.r.r.r.r.r.r.r.r.r.r.r.r.r.r.r.[ [ [ [ [ { ] { ] { { [ [ [ ] [ [ { [ W W ] E y e r.r.r.r.r.r.r.r.r.r.r.r.r.r.r.r.r.r.r.r.",
"r.r.r.r.r.r.r.r.r.r.r.r.r.r.[ [ [ [ [ [ [ [ [ ] ] ] ] ] ] ] [ [ [ [ ] V A ] { { { { [ E E E A y 7 r.r.r.r.r.r.r.r.r.r.r.r.r.r.r.",
"r.r.r.r.r.r.r.r.r.r.r.r.[ [ [ [ [ [ [ ] E S S C V V V ] A ] ] [ [ [ [ ] E V A E W { [ E E ] { ] y e 7 r.r.r.r.r.r.r.r.r.r.r.r.r.",
"r.r.r.r.r.r.r.r.r.r.r.[ ] [ [ ] W C u u t S S W { ] [ { ] ] ] ] ] ] ] E E ] u 7 t t E E E { u u ] C V r r.r.r.r.r.r.r.r.r.r.r.r.",
"r.r.r.r.r.r.r.r.r.[ [ [ [ [ E V C W ] ] ] [ W S E S S S V V V r r e e r A E W E y 2 1 2 u E W W V u r C Z y r.r.r.r.r.r.r.r.r.r.",
"r.r.r.r.r.r.r.r.[ [ [ [ [ [ E [ [ ] ] W u V t 7 2 2 2 2 y y y 7 7 7 e 2 2 < e u u u u e - 2 y u ] ] E C r r 2 r.r.r.r.r.r.r.r.r.",
"r.r.r.r.r.r.r.[ [ [ [ [ [ [ E S A r e e 2 , 1 e 1 - - - 7 7 7 7 7 7 7 e e < - - 1 7 t u 1 * - , 2 7 S E W e - 2 r.r.r.r.r.r.r.r.",
"r.r.r.r.r.r.r.[ [ [ ] ] C y 7 7 2 2 1 - - , 1 7 7 2 2 7 - = = = = = = - 2 2 < 1 , - * 2 2 1 * * - - = : C ] e * r.r.r.r.r.r.r.r.",
"r.r.r.r.r.r.r.[ [ W y 7 e 2 2 1 1 - - 7 7 7 , , = + + + X . X . . . . X + = , , , 2 7 : - , u 6 - - - 1 u Z e - r.r.r.r.r.r.r.r.",
"r.r.r.r.r.r.r.] S e 2 e 2 2 - 1 1 2 1 = = = o o o .   . X ; $ $ $ $ ; . o 3 : = = = - = 1 1 - y e C C V y 2 1 * r.r.r.r.r.r.r.r.",
"r.r.r.r.r.r.r.V 7 e 7 1 * * 2 1 - + O X ; 4 , = 3 ; X   d 6 : - : : & d @ g 8 ; - - - 8 < @ = * 1 e e e 1 - @ @ r.r.r.r.r.r.r.r.",
"r.r.r.r.r.r.r.1 2 2 - @ - 2 - - , o + l 3 : - - : 3 4 + n d ; : : & v G # h n H } J n n g + 3 ; @ - 1 - - * * 7 r.r.r.r.r.r.r.r.",
"r.r.r.r.r.r.r.Z 2 e 2 2 q - - < 5 G # M 8 : 3 3 & g R $ 5 m B H M m M f 3 a m O.O.' R s s : ! 6 - 7 C W A ] W E r.r.r.r.r.r.r.r.",
"r.r.r.r.r.r.r.A [ A E ] C : w h M v ; s M } ) ) ! M x ; 5 g ' O.' m g f 3 s m X.' ' b s s 3 H 8 - - 7 r 1 y u r r.r.r.r.r.r.r.r.",
"r.r.r.r.r.r.r.e e - 1 r 7 * (  .x f 3 s b O.O.' R R b 3 w s ^ O.^ h ! f 3 s m ..X.` b s a , g M N = 7 , = 2 2 e r.r.r.r.r.r.r.r.",
"r.r.r.r.r.r.r.7 e * 1 7 7 * ! ` g f , s v ' X.' M R m 3 w s ^ O._ x ~ w 3 s b X...` b s g 3 f g ( = 7 < > e e 2 r.r.r.r.r.r.r.r.",
"r.r.r.r.r.r.r.7 7 - - e e * ! ) g a 3 s v ..X.` m b v 3 w s ^ O.^ x M f 3 s b X.X.` b s s 3 f g ~ = 7 2 2 e e 2 r.r.r.r.r.r.r.r.",
"r.r.r.r.r.r.r., e - , 7 e * ! ` g f 3 s x ..X._ M b x 3 f s ^ O.` h m w 3 a b X.X.' b s s : f g ~ * 7 < - 2 e 7 r.r.r.r.r.r.r.r.",
"r.r.r.r.r.r.r.- e - , 2 2 * ! ` g f : s v ..X.` m Q b 3 w s ^ O.^ g m w 3 s b ' ' ' b s s , f g ! * 7 < = e 2 e r.r.r.r.r.r.r.r.",
"r.r.r.r.r.r.r.- e * , 7 2 - H ) g f 3 s v ..X.' M R b 3 w s ^  .^ v ~ f 3 s m X.' _ b s s 3 f g ~ * 7 , * e e 2 r.r.r.r.r.r.r.r.",
"r.r.r.r.r.r.r.- 7 - - 7 y e - ~ g f 3 s v ` ` ` m R b 3 w s ^ ' ^ x ^ & 3 j v ' _ ` b w j < s h ! * e 1 = e 2 2 r.r.r.r.r.r.r.r.",
"r.r.r.r.r.r.r.- 7 - 1 u u e * ! x f , s b ' ..' m R b , f s ^ ..^ x ~ & 6 n F M M M k z m 3 w g ~ = 2 1 * e e - r.r.r.r.r.r.r.r.",
"r.r.r.r.r.r.r.- 7 2 2 e 7 7 * ~ s a , s v ..X.' M R m 3 w s ^ ` ^ x ^ & 3 s M .. . .! v s , a g B - 1 1 * e e - r.r.r.r.r.r.r.r.",
"r.r.r.r.r.r.r.- e * 1 7 7 7 * ~ x & 3 a v ' ' ' m R b 3 w s ^ ` ^ x ^ & 3 s m ' ` _ b s s , w s * 2 r , = , e - r.r.r.r.r.r.r.r.",
"r.r.r.r.r.r.r.e 7 - , e 7 7 = ! s a , s b ` ` ' M M b 3 w g ^ ` ^ x ~ w 3 s b ` ` ' m s s 3 f s = 7 r C u 2 7 - r.r.r.r.r.r.r.r.",
"r.r.r.r.r.r.r.r.7 - - 7 7 2 = ! g a 3 s v ' _ ` b Q b , w g ^ ` ^ x ~ w , s M ' ` ` m f s , a a * 7 7 7 7 7 7 , r.r.r.r.r.r.r.r.",
"r.r.r.r.r.r.r.r.7 - 1 7 7 7 = ~ g a 3 s v ` ` ' M R b 3 w s ^ ^ ^ x ^ & 3 s b ` ` ` b s s 3 f a * e 2 1 7 7 7 - r.r.r.r.r.r.r.r.",
"r.r.r.r.r.r.r.r.7 e 7 7 7 7 = ! g a : s v ` _ _ b R b , & s ^ _ ^ x ^ & 3 s m ` ` ` v k c q k j * 2 2 * 7 7 2 2 r.r.r.r.r.r.r.r.",
"r.r.r.r.r.r.r.r.7 2 e 2 7 7 = ) H H B H !  . ...^ ) ! B D H ' .. .H _ D B H ^ .. ...| 9.w.7.<.@.= 2 : - e 2 e 7 r.r.r.r.r.r.r.r.",
"r.r.r.r.r.r.r.r.2 e 2 e 7 7 = ) ' '  .' _  .' ' ' ' '  . .'  .' '  .'  .' '  .' ` _ 0.q.=.%.#.+.= 2 * 7 e 7 2 7 r.r.r.r.r.r.r.r.",
"r.r.r.r.r.r.r.r.- e e < 2 7 * w w j j w w w w j w w j w j f w f j w j f w f w w w w T ,.&.4.I 5 * 2 - 7 7 , - 7 r.r.r.r.r.r.r.r.",
"r.r.r.r.r.r.r.r.- < e e e 2 * & : ; + - 3 f w f 3 4 6 + = : 5 w 5 3 5 = + - 6 w w w >.7.&.5.q.$.= 2 7 7 e , * e r.r.r.r.r.r.r.r.",
"r.r.r.r.r.r.r.r.- e 7 7 7 7 * k f 3 + 4 x ^ ` ^ b M z $ : a ^ ^ ^ g ! : $ 4 b ` ^ ^ e.,.% i ;.w.- < * 7 7 1 - e r.r.r.r.r.r.r.r.",
"r.r.r.r.r.r.r.r.- 7 7 7 < - * * a f 3 s b ` ` ' m R b 3 & s ^ ' ^ x ^ & 3 s b ' ` ` 3.&.9 o 9 5.> < < 7 7 1 * 7 r.r.r.r.r.r.r.r.",
"r.r.r.r.r.r.r.r.- e 7 , - - < * a a 6 s b ` ` ' M R b 3 w s ^ ` ^ x ~ w , s b ' ` ' I -.P - U 7.* * 7 7 7 1 - 7 r.r.r.r.r.r.r.r.",
"r.r.r.r.r.r.r.r.- e 7 < u t 2 * a f , s v ` ` ' m R b 3 w s ^ ` ^ x ^ w 4 s m ' ` ` N K 1.2.6.+.* * 2 7 7 , - e r.r.r.r.r.r.r.r.",
"r.r.r.r.r.r.r.r.- e 2 u t 1 2 = a a 3 a v ` ` ' m R m , w g ^ ` ^ x ^ & , s m ' ` ` v 4 p K p 6 @ * 7 7 e , - 7 r.r.r.r.r.r.r.r.",
"r.r.r.r.r.r.r.r.7 e e e 7 * 2 * a a , & v ` ` ' M R m , w g ^ ` ^ x ~ w 3 s m ' ` ' m s & , w a * * 7 7 2 , * e r.r.r.r.r.r.r.r.",
"r.r.r.r.r.r.r.r.7 2 7 7 7 * 2 = a f 6 j z ` ` ' M z z , & s ^ ` ^ x ^ w 3 s b ' ` ` m s s 3 a a @ - 7 7 7 , - e r.r.r.r.r.r.r.r.",
"r.r.r.r.r.r.r.r.e 2 7 7 e * 2 = s f 3 n M M M H z D H 4 w s ^ ` ^ x ~ & 3 s b ` ' ' m f s , f a * 7 7 7 7 2 < 2 r.r.r.r.r.r.r.r.",
"r.r.r.r.r.r.r.r.7 7 7 7 7 * 2 * a a 3 s m  .' ..! ^ m 3 w s ^ ` ^ x ^ & 3 s M ' ` ` b s s 3 w s * q e 2 7 7 , * r.r.r.r.r.r.r.r.",
"r.r.r.r.r.r.r.r.2 7 7 7 7 * 2 * a a , s b ' ` ' M H m 3 w s ^ ' ^ x ~ & 3 a m ` ` ` v s s , a & - 2 7 7 7 e - @ r.r.r.r.r.r.r.r.",
"r.r.r.r.r.r.r.r.@ , 2 7 e * 2 * a a , s v _ ` ' M R m 3 w s ^ ` ^ x ^ & 3 s m ` ` ` b s s < w ; u u 7 7 7 7 - O r.r.r.r.r.r.r.r.",
"r.r.r.r.r.r.r.r.@ , 7 2 7 * 2 * s a : a v ` ` ` b R b : & a ^ _ ^ x ~ & , s m ` ` ' v s s , w ; 7 y 7 7 2 2 1 @ r.r.r.r.r.r.r.r.",
"r.r.r.r.r.r.r.r.@ - e - < 2 * * H F B H ! X.' ..^ ^ ! B F H  . .' ! ) F B H ^ .... .! H H B D = 2 7 7 7 1 * , @ r.r.r.r.r.r.r.r.",
"r.r.r.r.r.r.r.r.@ , e * 1 7 * , N ' '  ._  .' _ ' '  .' '  .' ' '  .'  .' '  .' '  . .' '  ._ = 7 7 7 7 2 - , r.r.r.r.r.r.r.r.r.",
"r.r.r.r.r.r.r.r.@ - 7 * < 2 * 2 = 5 w w f j 5 f w w w j j j w f w w w w & w 5 w 5 f w w w w f * 2 7 7 7 7 - * r.r.r.r.r.r.r.r.r.",
"r.r.r.r.r.r.r.r.@ , 7 1 - 2 * 2 @ > + ; 3 f j f 6 4 3 + = : 5 w w 3 5 > # : 6 f j f 6 - ; + ; * 7 7 2 - 7 1 * r.r.r.r.r.r.r.r.r.",
"r.r.r.r.r.r.r.r.@ - 7 7 * < * < * 3 + 4 x ` ` ^ b M z # : a ~ ` ~ z ! : @ 4 b ^ ^ ` v a 4 + : * 2 7 2 * 2 , @ r.r.r.r.r.r.r.r.r.",
"r.r.r.r.r.r.r.r.r.* < 7 - < 2 * * a 3 s v ` ` ' m M b 3 a s ~ ` ^ x ~ & 3 s M ' ` ' m s s 3 a * 7 7 2 * 2 , @ r.r.r.r.r.r.r.r.r.",
"r.r.r.r.r.r.r.r.r.@ , 7 1 2 7 * * & 3 s v _ ` ` M v h 3 a s ^ ` ^ x ^ w 3 s b ` ` ` b s s 3 w = 2 7 < * 2 @ @ r.r.r.r.r.r.r.r.r.",
"r.r.r.r.r.r.r.r.r.* - e * 1 - @ * a : s v ` ` ' m M b 3 f s ^ ` ^ x ~ w 3 s M ` ` ' b s s 3 w = 2 7 2 * 1 @ @ r.r.r.r.r.r.r.r.r.",
"r.r.r.r.r.r.r.r.r.@ - 1 * 1 * @ $ a ; s s ~ ` ` M s s 3 a s R ` ` g s a , s m ' ' ^ x s s ; & * 2 - 2 < * @ @ r.r.r.r.r.r.r.r.r.",
"r.r.r.r.r.r.r.r.r.* * * @ 1 * @ = ; o 4 s b Q Q M s 4 = : a s b ^ s a ; * 4 b Q Q m s a 4 O : * * * 2 * @ O X r.r.r.r.r.r.r.r.r.",
"r.r.r.r.r.r.r.r.r.O @ @ X @ @ O # X o o ; 5 3 3 4 ; @ O o $ 3 3 3 3 $ X O + = : 3 3 ; $ + O X O O - , O X o . r.r.r.r.r.r.r.r.r.",
"r.r.r.r.r.r.r.r.r.. X X   X O . . . . . . . .   . . . . .     .   . . . . . . . . . . . . .     X * @ X . . . r.r.r.r.r.r.r.r.r."
};
