/* XPM */
static char *result[] = {
/* columns rows colors chars-per-pixel */
"64 64 116 2 ",
"   c #604F43",
".  c #625143",
"X  c #6B5543",
"o  c #6E5844",
"O  c #705742",
"+  c #755B43",
"@  c #7B5B41",
"#  c #7B6243",
"$  c #A67E3F",
"%  c #815F42",
"&  c #846143",
"*  c #8B6545",
"=  c #866843",
"-  c #8C6A45",
";  c #85644A",
":  c #8D6B48",
">  c #936C45",
",  c #986D47",
"<  c #956B48",
"1  c #9A6E48",
"2  c #8E7347",
"3  c #957143",
"4  c #997542",
"5  c #9D7944",
"6  c #9E7149",
"7  c #9F7D49",
"8  c #8A6B50",
"9  c #9D7B52",
"0  c #93745A",
"q  c #A47D41",
"w  c #A2744B",
"e  c #A57A4F",
"r  c #A9794F",
"t  c #A07D52",
"y  c #AD7C51",
"u  c #B17F53",
"i  c #8C786B",
"p  c #92796A",
"a  c #A7803F",
"s  c #AB833E",
"d  c #A78040",
"f  c #AD8641",
"g  c #AF8A45",
"h  c #A5824A",
"j  c #A88448",
"k  c #AD8A4C",
"l  c #B28C44",
"z  c #B28E48",
"x  c #B69146",
"c  c #B99347",
"v  c #B69149",
"b  c #BA9549",
"n  c #BE9A4D",
"m  c #A38351",
"M  c #AB8B54",
"N  c #B58255",
"B  c #B88457",
"V  c #B68358",
"C  c #BA8659",
"Z  c #BF895B",
"A  c #B69857",
"S  c #BC9B52",
"D  c #BDA05D",
"F  c #9B857A",
"G  c #A88A65",
"H  c #A3866A",
"J  c #AE9372",
"K  c #AE957B",
"L  c #B0957A",
"P  c #C19E4E",
"I  c #C38C5D",
"U  c #C19F50",
"Y  c #C7905F",
"T  c #C4A14F",
"R  c #C5A453",
"E  c #C8A754",
"W  c #CBAB55",
"Q  c #C7A758",
"!  c #C6A95E",
"~  c #CBAC5C",
"^  c #CEB05E",
"/  c #D1B057",
"(  c #D1B159",
")  c #CB9362",
"_  c #D09664",
"`  c #D29865",
"'  c #C7A868",
"]  c #D3B662",
"[  c #D6BA63",
"{  c #D8BC65",
"}  c #D9BF69",
"|  c #DAC06B",
" . c #A58F86",
".. c #A7918A",
"X. c #AA9590",
"o. c #AF9D99",
"O. c #B19C93",
"+. c #B39F99",
"@. c #B8A084",
"#. c #BEA588",
"$. c #B4A197",
"%. c #B9A496",
"&. c #B6A49C",
"*. c #C8AE84",
"=. c #CBB690",
"-. c #C6B098",
";. c #C0AFA5",
":. c #CBB9A6",
">. c #C4B3AA",
",. c #CCBBAC",
"<. c #CCBDB2",
"1. c #D9C3A5",
"2. c #DECAA2",
"3. c #D1C1B5",
"4. c #E1CDA3",
"5. c None",
/* pixels */
"5.5.5.5.5.5.5.5.5.5.5.5.5.5.5.5.5.5.5.5.5.5.5.5.5.5.5.5.5.5.5.5.5.5.5.5.5.5.5.5.5.5.5.5.5.5.5.5.5.5.5.5.5.5.5.5.5.5.5.5.5.5.5.5.",
"5.5.5.5.5.5.5.5.5.5.5.5.5.5.5.5.5.5.5.5.5.5.5.5.5.5.5.5.5.5.5.5.5.5.5.5.5.5.5.5.5.5.5.5.5.5.5.5.5.5.5.5.5.5.5.5.5.5.5.5.5.5.5.5.",
"5.5.5.5.5.5.5.5.5.5.5.5.5.5.5.5.5.5.5.5.5.5.5.5.5.5.5.5.5.5.5.5.5.5.5.5.5.5.5.5.5.5.5.5.5.5.5.5.5.5.5.5.5.5.5.5.5.5.5.5.5.5.5.5.",
"5.5.5.5.5.5.5.5.5.5.5.5.5.5.5.5.5.5.5.5.5.5.5.5.5.5.5.5.5.5.5.5.5.5.5.5.5.5.5.5.5.5.5.5.5.5.5.5.5.5.5.5.5.5.5.5.5.5.5.5.5.5.5.5.",
"5.5.5.5.5.5.5.5.5.5.5.5.5.5.5.5.5.5.5.5.5.5.5.5.5.5.5.5.5.5.5.5.5.5.5.5.5.5.5.5.5.5.5.5.5.5.5.5.5.5.5.5.5.5.5.5.5.5.5.5.5.5.5.5.",
"5.5.5.5.5.5.5.5.5.5.5.5.5.5.5.5.5.5.5.5.5.5.5.5.5.5.5.5.5.5.5.5.5.5.5.5.5.5.5.5.5.5.5.5.5.5.5.5.5.5.5.5.5.5.5.5.5.5.5.5.5.5.5.5.",
"5.5.5.5.5.5.5.5.5.5.5.5.5.5.5.5.5.5.5.5.5.5.5.5.5.5.5.5.5.5.5.5.5.5.5.5.5.5.5.5.5.5.5.5.5.5.5.5.5.5.5.5.5.5.5.5.5.5.5.5.5.5.5.5.",
"5.5.5.5.5.5.5.5.5.5.5.5.5.5.5.5.5.5.5.5.5.5._ _ _ _ _ _ _ _ _ _ _ _ _ _ ) B w w w 5.5.5.5.5.5.5.5.5.5.5.5.5.5.5.5.5.5.5.5.5.5.5.",
"5.5.5.5.5.5.5.5.5.5.5.5.5.5.5.5.5.5.5.` _ _ _ _ _ _ _ _ _ _ _ _ _ _ _ _ ) _ Y ) ) I y w 5.5.5.5.5.5.5.5.5.5.5.5.5.5.5.5.5.5.5.5.",
"5.5.5.5.5.5.5.5.5.5.5.5.5.5._ _ _ _ ` ` ` _ _ ) ) ) ) ) ) _ _ _ _ _ ) N I ) ` ` _ _ _ I I I C y 6 5.5.5.5.5.5.5.5.5.5.5.5.5.5.5.",
"5.5.5.5.5.5.5.5.5.5.5.5._ _ _ _ _ _ _ ) I C I B u u u ) C ) _ _ _ _ ) ) I u C I Y ` _ I I ) _ ) u 6 6 5.5.5.5.5.5.5.5.5.5.5.5.5.",
"5.5.5.5.5.5.5.5.5.5.5._ ) _ _ ) ) u u u r I C Y ` ` _ _ ) ) ) ) ) ) ) Y I ) u 6 w r I I I _ u u I C B w 5.5.5.5.5.5.5.5.5.5.5.5.",
"5.5.5.5.5.5.5.5.5._ _ _ _ _ I N u ) ) ) _ ` Y I I I C I N N u w w w w r B I I I u 1 < 1 u I ) ) C N r C V u 5.5.5.5.5.5.5.5.5.5.",
"5.5.5.5.5.5.5.5._ _ _ _ _ _ I _ _ Y ) Y u u r 6 1 1 1 1 y u u w 1 w w 1 6 < w u u C u w % 1 y u Y ) I B r t 1 5.5.5.5.5.5.5.5.5.",
"5.5.5.5.5.5.5._ _ _ _ _ _ _ I Z I w w w < * < 6 < * * * < 1 6 1 w w 1 w 6 , * > > 1 w u 1 % * > , 6 Z I Y w * 1 5.5.5.5.5.5.5.5.",
"5.5.5.5.5.5.5._ _ _ ) ) B y 6 6 w , , * * > 1 6 1 1 1 1 > * * = & * * * 1 1 , > > * * < 6 < % % * * & * C ) w % 5.5.5.5.5.5.5.5.",
"5.5.5.5.5.5.5._ _ Y r w 6 6 6 < > % * 1 6 1 > > & + + = 4 = = * = - 4 # * > 4 > > < , > * < y 6 * * & < u C w * 5.5.5.5.5.5.5.5.",
"5.5.5.5.5.5.5.) I w 6 6 1 1 * < < 6 < & * > > & - #   4 4 - - - - - d b 3 l v S D h * = < < * y w C C B y 1 < % 5.5.5.5.5.5.5.5.",
"5.5.5.5.5.5.5.N 6 6 6 < % % 6 < > @ @ = 3 - - - - 4 2 5 T k - 3 3 f b v 3 s b | { ~ l a > & * # > w w w < * % @ 5.5.5.5.5.5.5.5.",
"5.5.5.5.5.5.5.< 1 1 * % % 6 * * > X + b = - - * = 4 T j l b D ~ ~ n x $ > s b [ ] ( b s s > 4 k * * > * % % % 1 5.5.5.5.5.5.5.5.",
"5.5.5.5.5.5.5.V 1 6 0 1 w * * 3 5 A 3 n 7 3 5 m k n x 3 a s ^ | ( l x $ 3 s c | { / c s s 3 d l ! w C I C ) ) I 5.5.5.5.5.5.5.5.",
"5.5.5.5.5.5.5.Z _ C I ) V : q l P v 3 s n ~ ^ ( E n x 3 $ s W | ~ l W q 3 s b ( { / c s s > d f E * w t < u u r 5.5.5.5.5.5.5.5.",
"5.5.5.5.5.5.5.6 w * < w 6 % ' ( l a 3 s c [ } ( b T b > q s W | W l E $ 3 s b { { / c s s 3 s f R & 6 < % 6 1 6 5.5.5.5.5.5.5.5.",
"5.5.5.5.5.5.5.6 w * * w w % U / f a > s x ] { ( b n c 3 d s W | W f b q > s b { ] ( c s s > $ l R & 6 < * 6 6 6 5.5.5.5.5.5.5.5.",
"5.5.5.5.5.5.5.6 6 * > 1 w % Q ~ f a > s x ( | ^ b x l 3 q s W | ( l b q 3 s b ( ] ( b s s > d f E % 6 6 1 6 6 6 5.5.5.5.5.5.5.5.",
"5.5.5.5.5.5.5.< w & > w w % R / l a > s x [ { / b T c 3 d s W | W l n $ > s n ] ( ( c s q > d f E % 6 , > 6 6 w 5.5.5.5.5.5.5.5.",
"5.5.5.5.5.5.5.* w * > 1 1 % U / s a 3 a c [ { ( b T b 3 q s W ( W l W $ 3 h x ( ( ( c $ v 4 d f R % 6 < % 6 w 1 5.5.5.5.5.5.5.5.",
"5.5.5.5.5.5.5.* w % > 6 w % U / f a 3 s c ( ( ( b n c 3 d s W ] W z E $ 4 v n n n n j k g - d g E & 6 1 % 6 1 1 5.5.5.5.5.5.5.5.",
"5.5.5.5.5.5.5.* 6 * > 6 r 6 * Q f s 3 s x ( ( ( b T b 3 $ s W ( W l E q 3 s P ] ] ] R z s > f f R % w < * 1 w 1 5.5.5.5.5.5.5.5.",
"5.5.5.5.5.5.5.* 6 * < u u w % E f d - s c ] { ( n n c 3 $ s W / W l W $ 2 d b ( W ( b s s > $ f E & 1 < % w 1 > 5.5.5.5.5.5.5.5.",
"5.5.5.5.5.5.5.* w 1 1 w w 6 % U f d 3 s x ( [ ( b n b 3 q s W / W l E q 3 s b ( ( ( b s s 3 f s M * < < % w w * 5.5.5.5.5.5.5.5.",
"5.5.5.5.5.5.5.* 6 % < 6 6 6 % E f s > s x ( ( ( n T b 3 q s W ^ W l W q 3 s b ( / / b s s > q s % 1 r > & > w * 5.5.5.5.5.5.5.5.",
"5.5.5.5.5.5.5.1 6 * > 6 6 6 = R s $ 3 s x / / ( b P b 3 q s E / W l E q > s b / ( ( b s s > d s & 6 r V u 1 6 > 5.5.5.5.5.5.5.5.",
"5.5.5.5.5.5.5.5.6 % > w 6 6 & R f $ 3 s x / ^ ( n P b > q f W / W l E q 3 s b / / ( c f *.-.@.H # 6 1 w 6 6 6 * 5.5.5.5.5.5.5.5.",
"5.5.5.5.5.5.5.5.6 > < 6 6 6 & R s f > s x ( / ( b P b 3 q s W ( / l E $ 5 U E ] ] ] ' 1.;.&.$.X.% w 1 < 6 6 6 * 5.5.5.5.5.5.5.5.",
"5.5.5.5.5.5.5.5.6 1 w 1 6 6 & R s a > s x ( ^ ( n T n 5 j E ] { { ~ ] ~ ' ] ( ( ( ( 2.3...O.G 9 % 1 , & 6 6 6 1 5.5.5.5.5.5.5.5.",
"5.5.5.5.5.5.5.5.6 6 6 6 1 6 & ~ S n M n Q ] { { [ { [ ] ] R R R T R T E b q d 5 q q K &.O.<.:.H & 1 * * w w w 6 5.5.5.5.5.5.5.5.",
"5.5.5.5.5.5.5.5.6 6 6 6 w 1 & E ( [ ^ ] ( Q v v v x v v v 5 5 3 4 4 4 3 > - 3 d q q #.<.i F >.3.; 1 % 6 w 1 1 6 5.5.5.5.5.5.5.5.",
"5.5.5.5.5.5.5.5.> 6 6 6 1 w % 5 5 d d q d 5 4 4 - 3 - & - 3 g x g 5 g # + 5 v ^ W W 4.+.8 o p ,.; 1 * 6 6 > * 6 5.5.5.5.5.5.5.5.",
"5.5.5.5.5.5.5.5.* 6 6 6 w 1 % q - ; + - 3 l T T k b d o = d W / W x E 4 - s b ( / ( =.X.9 # h :.; 6 6 6 6 > * 1 5.5.5.5.5.5.5.5.",
"5.5.5.5.5.5.5.5.* w 6 6 6 6 % g f 2 + 4 x / / ( b T b - 5 s W / W l E d 3 s b ( / / J +.$.L :.$.% , & 6 6 < % w 5.5.5.5.5.5.5.5.",
"5.5.5.5.5.5.5.5.* 6 6 6 , * % % s a 3 s x ^ / ( n n b 3 a s W ^ W l E d 3 s b / / ( M F O.$. .0 % < , 6 6 < * 6 5.5.5.5.5.5.5.5.",
"5.5.5.5.5.5.5.5.* w 1 , * * , % a a > s x ( / / b T v 3 a s W / W g E d 3 s b ( / / x 5 3 : 3 q % % 6 6 6 < * 6 5.5.5.5.5.5.5.5.",
"5.5.5.5.5.5.5.5.* w w 1 u w 6 % s q > s x ( / ( b T b > $ s W ( W x E 5 4 s b ( / ( v s f > d s % % 6 6 w * * w 5.5.5.5.5.5.5.5.",
"5.5.5.5.5.5.5.5.* w 6 u r < , & a d - s x ( / ^ b U b 3 d f E / W l E $ 3 s b ( / ( c s f > d a % % 1 1 w > % 6 5.5.5.5.5.5.5.5.",
"5.5.5.5.5.5.5.5.6 w 6 6 w % , & s d 3 d c ( ( ( n n k > q s W ( W l E $ 3 s b ( ~ / c s s > d s % % 1 w 1 > * w 5.5.5.5.5.5.5.5.",
"5.5.5.5.5.5.5.5.6 1 1 w 6 % < & a d 3 h f T T T g j A 5 $ s W ( W l E $ 3 s b / ( ( c s s > a a % * w 1 6 > * w 5.5.5.5.5.5.5.5.",
"5.5.5.5.5.5.5.5.w 1 w 1 w % < & s d 3 v S ~ ~ ~ S ~ b 3 q s E / W x E a > s b / ( ( c s s 3 a s % 6 1 w w 1 > 1 5.5.5.5.5.5.5.5.",
"5.5.5.5.5.5.5.5.w w 6 6 6 % 1 % a $ > s b ( ( ( T T b 3 q s W ( W l W q 3 s b ( / ( c s d 2 d d % w 1 w 6 6 < @ 5.5.5.5.5.5.5.5.",
"5.5.5.5.5.5.5.5.1 1 6 6 6 % 1 % s a 3 s x ( ^ ( n P c > d s W ( W l E q 3 s b ( / ( c $ l 4 g d * 1 6 6 6 6 > @ 5.5.5.5.5.5.5.5.",
"5.5.5.5.5.5.5.5.@ > 1 6 w % 1 % a a > s x ( / ( b T b 3 q s W ( W l E q 3 S Q ] ] ( R S ^ ] ^ - u u 6 6 6 w * @ 5.5.5.5.5.5.5.5.",
"5.5.5.5.5.5.5.5.@ > 6 1 6 % , % s $ - s x ( ( ( n T n 4 j E [ ] [ ~ { ~ ! ( ] ( ] ( ] ( n v x & w r 6 6 1 1 > @ 5.5.5.5.5.5.5.5.",
"5.5.5.5.5.5.5.5.@ > w % < , % % S S M S R [ { { [ [ [ ] [ E R R E E T E n q q q d q q q 3 & = % , 6 6 6 , * * @ 5.5.5.5.5.5.5.5.",
"5.5.5.5.5.5.5.5.@ > w & < w % < m ^ ( ] ( Q x x v v v c v 4 4 4 3 3 4 3 2 - 3 d d h 3 : - o = % , 6 6 w , & > 5.5.5.5.5.5.5.5.5.",
"5.5.5.5.5.5.5.5.@ * w & < 6 % , % q q q q 5 4 4 3 3 - & = 3 k x l 5 g # + 4 b / W W v d a - $ % 6 6 6 6 1 > % 5.5.5.5.5.5.5.5.5.",
"5.5.5.5.5.5.5.5.@ > 6 < * , % , @ = + - 3 k T T g v h o = d W / W l E 4 - s b ( ( ( c s s 2 a % 6 6 , * 6 > @ 5.5.5.5.5.5.5.5.5.",
"5.5.5.5.5.5.5.5.@ * 6 6 % < % , % 3 + 4 x / / ( n n b - a s W ^ W z E $ 3 s b / / / b s s 3 $ & 1 6 1 & w < @ 5.5.5.5.5.5.5.5.5.",
"5.5.5.5.5.5.5.5.5.% < 6 * , < * % a 3 a x / / ( b x l 4 a s W / W l E $ > s n / / / b s s - $ & 6 6 , % 1 * @ 5.5.5.5.5.5.5.5.5.",
"5.5.5.5.5.5.5.5.5.@ < 6 , 6 6 % % $ 3 s x / / ( n n b 3 5 s W / W l P $ 3 s b / ( W l s q + 4 & 6 6 < % > % @ 5.5.5.5.5.5.5.5.5.",
"5.5.5.5.5.5.5.5.5.@ > 6 % , % @ % $ 2 a x / ^ ( T s s 2 a s c / W f s 5 @ 5 b T T b s 4 # . o @ 1 1 1 % > @ @ 5.5.5.5.5.5.5.5.5.",
"5.5.5.5.5.5.5.5.5.@ * > % , % @ % a = s s E W W n s a # 3 a a s n s 4 # . o & - 4 4 = o       @ 1 & w < @ @ @ 5.5.5.5.5.5.5.5.5.",
"5.5.5.5.5.5.5.5.5.% % % @ < % @ % = X 4 s l g g s 5 # . o o # # # # o . . . . . . . . . . X . @ % % 6 % @ + X 5.5.5.5.5.5.5.5.5.",
"5.5.5.5.5.5.5.5.5.+ @ @ X @ @ O # . . X - 2 # = + . . .   .     .   . . . O + o O O O O O O X O O * * @ X X . 5.5.5.5.5.5.5.5.5.",
"5.5.5.5.5.5.5.5.5.  X X   X O   . . . . . .     . . . . .   . . . . . . . . . . . . . . .       X % @ X . . . 5.5.5.5.5.5.5.5.5."
};
