/* XPM */
static char *result[] = {
/* columns rows colors chars-per-pixel */
"64 64 122 2 ",
"   c #785D3F",
".  c #635243",
"X  c #6B5542",
"o  c #6D5945",
"O  c #715742",
"+  c #745A43",
"@  c #7B5B41",
"#  c #735D4D",
"$  c #776347",
"%  c #7D6143",
"&  c #A47D3E",
"*  c #815E42",
"=  c #846243",
"-  c #8B6544",
";  c #876843",
":  c #8D6A44",
">  c #936C45",
",  c #986D47",
"<  c #956C48",
"1  c #9A6E48",
"2  c #957143",
"3  c #997542",
"4  c #9E7A43",
"5  c #957349",
"6  c #9E7149",
"7  c #9D7C4D",
"8  c #957556",
"9  c #927359",
"0  c #A47D41",
"q  c #A2744B",
"w  c #A67A4C",
"e  c #A9794F",
"r  c #A07F54",
"t  c #AD7C51",
"y  c #B17F53",
"u  c #9C7F63",
"i  c #A7803F",
"p  c #AC843F",
"a  c #9E805F",
"s  c #A78041",
"d  c #AD8641",
"f  c #AE8944",
"g  c #A2814C",
"h  c #A78A4E",
"j  c #AD8B4B",
"k  c #B28B43",
"l  c #B28E49",
"z  c #B79146",
"x  c #BC9747",
"c  c #B59149",
"v  c #BA964B",
"b  c #BD994B",
"n  c #A28452",
"m  c #A98757",
"M  c #AF8F53",
"N  c #B58255",
"B  c #B88457",
"V  c #B68358",
"C  c #BA8659",
"Z  c #BF895B",
"A  c #B59351",
"S  c #BE9D52",
"D  c #B5995B",
"F  c #BA985E",
"G  c #9D8375",
"H  c #98837B",
"J  c #A98C66",
"K  c #A4876A",
"L  c #B09166",
"P  c #A58B74",
"I  c #B19572",
"U  c #B49B7C",
"Y  c #C19E4E",
"T  c #C38C5D",
"R  c #C09E52",
"E  c #C7905F",
"W  c #C4A14F",
"Q  c #C5A453",
"!  c #C8A754",
"~  c #CBAA55",
"^  c #C4A75E",
"/  c #C7A95D",
"(  c #CCAD5B",
")  c #D0AF58",
"_  c #CEB05E",
"`  c #D0B057",
"'  c #D1B159",
"]  c #CB9362",
"[  c #D09664",
"{  c #D29865",
"}  c #CCB064",
"|  c #D2B561",
" . c #D6BA63",
".. c #D8BC66",
"X. c #D5BB69",
"o. c #C6AC76",
"O. c #C5A778",
"+. c #DAC06A",
"@. c #A38E88",
"#. c #A7938B",
"$. c #A9968B",
"%. c #AE9A93",
"&. c #B19C95",
"*. c #BAA692",
"=. c #B6A49A",
"-. c #B9A79F",
";. c #B8A7A0",
":. c #BDACA3",
">. c #C1A783",
",. c #C7AE8B",
"<. c #C2AC91",
"1. c #CDB594",
"2. c #C5B29F",
"3. c #C4B0A1",
"4. c #C3B3A8",
"5. c #C7B8AE",
"6. c #CAB9AB",
"7. c #CEBFB4",
"8. c #DDC792",
"9. c #D7C7B8",
"0. c #DFD0C1",
"q. c None",
/* pixels */
"q.q.q.q.q.q.q.q.q.q.q.q.q.q.q.q.q.q.q.q.q.q.q.q.q.q.q.q.q.q.q.q.q.q.q.q.q.q.q.q.q.q.q.q.q.q.q.q.q.q.q.q.q.q.q.q.q.q.q.q.q.q.q.q.",
"q.q.q.q.q.q.q.q.q.q.q.q.q.q.q.q.q.q.q.q.q.q.q.q.q.q.q.q.q.q.q.q.q.q.q.q.q.q.q.q.q.q.q.q.q.q.q.q.q.q.q.q.q.q.q.q.q.q.q.q.q.q.q.q.",
"q.q.q.q.q.q.q.q.q.q.q.q.q.q.q.q.q.q.q.q.q.q.q.q.q.q.q.q.q.q.q.q.q.q.q.q.q.q.q.q.q.q.q.q.q.q.q.q.q.q.q.q.q.q.q.q.q.q.q.q.q.q.q.q.",
"q.q.q.q.q.q.q.q.q.q.q.q.q.q.q.q.q.q.q.q.q.q.q.q.q.q.q.q.q.q.q.q.q.q.q.q.q.q.q.q.q.q.q.q.q.q.q.q.q.q.q.q.q.q.q.q.q.q.q.q.q.q.q.q.",
"q.q.q.q.q.q.q.q.q.q.q.q.q.q.q.q.q.q.q.q.q.q.q.q.q.q.q.q.q.q.q.q.q.q.q.q.q.q.q.q.q.q.q.q.q.q.q.q.q.q.q.q.q.q.q.q.q.q.q.q.q.q.q.q.",
"q.q.q.q.q.q.q.q.q.q.q.q.q.q.q.q.q.q.q.q.q.q.q.q.q.q.q.q.q.q.q.q.q.q.q.q.q.q.q.q.q.q.q.q.q.q.q.q.q.q.q.q.q.q.q.q.q.q.q.q.q.q.q.q.",
"q.q.q.q.q.q.q.q.q.q.q.q.q.q.q.q.q.q.q.q.q.q.q.q.q.q.q.q.q.q.q.q.q.q.q.q.q.q.q.q.q.q.q.q.q.q.q.q.q.q.q.q.q.q.q.q.q.q.q.q.q.q.q.q.",
"q.q.q.q.q.q.q.q.q.q.q.q.q.q.q.q.q.q.q.q.q.q.[ [ [ [ [ [ [ [ [ [ [ [ [ [ ] N q q q q.q.q.q.q.q.q.q.q.q.q.q.q.q.q.q.q.q.q.q.q.q.q.",
"q.q.q.q.q.q.q.q.q.q.q.q.q.q.q.q.q.q.q.[ [ [ [ [ [ ] [ [ [ [ ] [ [ [ [ [ { [ E ] ] T t q q.q.q.q.q.q.q.q.q.q.q.q.q.q.q.q.q.q.q.q.",
"q.q.q.q.q.q.q.q.q.q.q.q.q.q.[ [ [ [ [ [ [ [ [ ] ] ] ] ] ] [ [ [ [ [ ] N C ] { { [ [ [ T T T C t 6 q.q.q.q.q.q.q.q.q.q.q.q.q.q.q.",
"q.q.q.q.q.q.q.q.q.q.q.q.[ [ [ [ [ [ [ ] T Z Z C N N N ] C ] [ [ [ [ ] ] T N T T E { [ T T ] [ ] t q 6 q.q.q.q.q.q.q.q.q.q.q.q.q.",
"q.q.q.q.q.q.q.q.q.q.q.[ ] [ [ ] E N N y e Z Z E [ [ [ [ ] ] ] ] ] ] ] E T E t 6 e e T T T [ y y E C C q q.q.q.q.q.q.q.q.q.q.q.q.",
"q.q.q.q.q.q.q.q.q.[ [ [ [ [ T N N ] ] ] ] [ ] T T Z Z Z N N N q q q q e C T E T t , < 1 y T ] ] N y e C V t q.q.q.q.q.q.q.q.q.q.",
"q.q.q.q.q.q.q.q.[ [ [ [ [ [ T [ [ [ ] T y y e 1 1 1 1 1 t y t q 1 q 1 q 6 1 q y y y y q - 1 t y ] ] Z C q t 1 q.q.q.q.q.q.q.q.q.",
"q.q.q.q.q.q.q.[ [ [ [ [ [ [ T Z C q q q 1 > < 6 < - - - 1 1 6 6 q q 6 1 6 < - - , 6 q y < * - > < 6 Z T E q - 1 q.q.q.q.q.q.q.q.",
"q.q.q.q.q.q.q.[ [ [ ] ] B t 6 6 6 1 < - - > 1 q 1 1 1 1 - - - - = - : - 1 , < , > - - < 1 < * * - - = : C ] q * q.q.q.q.q.q.q.q.",
"q.q.q.q.q.q.q.[ [ T e q 6 1 6 < - - - 1 6 1 > > : ; : ; = ; : - 2 c j + 2 7 7 < > < 1 > - - y 8 > - - - y V q - q.q.q.q.q.q.q.q.",
"q.q.q.q.q.q.q.] T q q 6 6 1 - < < 1 , = - - = = : 4 3 j s 3 0 g b z i 2 z  .} c d 2 - - < > - t q V C V e q < * q.q.q.q.q.q.q.q.",
"q.q.q.q.q.q.q.N q 6 q < * - 1 < <   - + ; ; - - : v w 0 d ( X.| c z i > z  ...' x & & > - > : * < e e 6 < - @ @ q.q.q.q.q.q.q.q.",
"q.q.q.q.q.q.q.< 1 < - @ * 1 - - > + 4 j > 5 7 j Q b 5 0 d ! ..' k ! s > z | ..' Y p p 3 & p c D * - - - * * * 8 q.q.q.q.q.q.q.q.",
"q.q.q.q.q.q.q.V 6 8 1 1 6 - - > 4 S 2 k Q } ' ..) k 2 0 p ~ +.( p ~ i 2 z  . .` x p d > 0 p ~ X.+ 1 C T Z ] ] T q.q.q.q.q.q.q.q.",
"q.q.q.q.q.q.q.C ] V T [ C : 0 l b j 2 p c  ...' x p 3 0 p ~ +.) k x i : v ....' b p p 2 0 p ~ X.o - 6 e < y y e q.q.q.q.q.q.q.q.",
"q.q.q.q.q.q.q.q e - < e 6 * / | k s 2 i k  ...' b p > 0 p ~ +.) f x i > z '  .' b p & > & p ~ X.o * 6 , @ 6 1 6 q.q.q.q.q.q.q.q.",
"q.q.q.q.q.q.q.6 6 - - 6 6 = Q ) p s > p z  ...' b p 3 0 p ~ +.' f b i 2 v ' ' ' b s l 3 0 d ~ } o @ 6 < = q q 6 q.q.q.q.q.q.q.q.",
"q.q.q.q.q.q.q.6 6 - > 1 q * Q ) f i 2 i z  .+.` x p 2 0 p ~ ..~ k ~ s : j _ ' ~ p 0 k 3 & p ~ ~ X * 6 6 6 6 6 6 q.q.q.q.q.q.q.q.",
"q.q.q.q.q.q.q.< q = > q q * Q ~ p d > p z ....` b d 2 0 p ! ' ` k ! s 2 v b b Q Y Y k > 0 p ~ ~ O * 6 , - 6 6 6 q.q.q.q.q.q.q.q.",
"q.q.q.q.q.q.q.- q - > 1 q * Q ) f i 2 p z ' ' ' b p 2 0 p ~  .) k ! i 2 x  . .' Y & & 2 0 p ~ ~ X * 6 < * q 6 6 q.q.q.q.q.q.q.q.",
"q.q.q.q.q.q.q.- 6 * > q 1 * S ~ p i : p x ' ' ' b i 2 4 p ! ` ~ k ! s 2 c ' _ ' Y p p 2 0 p ~ ~ o * 6 < * q 6 q q.q.q.q.q.q.q.q.",
"q.q.q.q.q.q.q.- 6 - > 6 e 6 > ! k i 2 i z '  .' b p 2 & p ! ` ` k ! i > z ' _ ` Y & p 2 0 p ~ ~ o = 6 > - 6 6 < q.q.q.q.q.q.q.q.",
"q.q.q.q.q.q.q.- 6 - < y y q * R f i > p z  . .' x p > 0 p ! ` ~ k ! i 2 z ' ` ` Y p p 2 & d ~ ~ X @ q > * q 6 - q.q.q.q.q.q.q.q.",
"q.q.q.q.q.q.q.- q 1 1 q q 6 * ! p i > p z ' ' ' Y p 2 & p ! ` ` k ! s > z ' ` ' Y & L I L m _ } + - > < * q q - q.q.q.q.q.q.q.q.",
"q.q.q.q.q.q.q.- 6 * < 6 6 6 * ! p d 2 i z ' ' ' b p 2 & p ~ ` ` k ! 0 2 z ' ' ' R o.6.5.:.%.} _ = 1 t - * > 6 > q.q.q.q.q.q.q.q.",
"q.q.q.q.q.q.q.1 1 - > 6 6 6 = Q p i > p z ' ` ' b p 2 0 d ~ ' ~ k ! 0 5 Q  . . .8.9.*.#.P K g 0 = 6 e B y , 6 - q.q.q.q.q.q.q.q.",
"q.q.q.q.q.q.q.q.q = > 6 6 6 = Q k i 2 i z ' ' ` b i 2 4 f ~ ' ' _  .~ / ' | Q k *.-.$.6.<.7 4 0 @ 6 6 6 6 6 6 - q.q.q.q.q.q.q.q.",
"q.q.q.q.q.q.q.q.6 > , 6 6 1 = Q d i : p z ' ` ` b z M A _  ... .! Q Q b 0 0 0 2 8 2.$.#.9.5.O.Q = 6 1 > 6 6 6 > q.q.q.q.q.q.q.q.",
"q.q.q.q.q.q.q.q.6 1 6 6 6 6 = Q p i 7 k b ' ....' _  .' b z c k 3 3 2 > 2 s k Q f 1.P # H 9.4./ = 1 1 = 6 6 6 < q.q.q.q.q.q.q.q.",
"q.q.q.q.q.q.q.q.6 6 6 6 q 1 = ( R Q }  . .} Q W Q c 0 s > 2 3 2 3 j = + c ~ ` ' x ,.I   : 2.=.^ - 1 : - q 1 6 6 q.q.q.q.q.q.q.q.",
"q.q.q.q.q.q.q.q.1 q 6 6 1 q = ~ ' _ c z l f 2 3 2 > + % 4 b W W k ! 3 ; c _ ` ' x U *.a *.5.a Q - > * 6 q 1 1 6 q.q.q.q.q.q.q.q.",
"q.q.q.q.q.q.q.q.> 6 6 6 6 1 * 3 g 4 = : : 0 c c s 2 $ : p ~ ' ~ k ~ s 2 z ' ` ' b J %.-.-.G l ! = 1 - 6 q > - q q.q.q.q.q.q.q.q.",
"q.q.q.q.q.q.q.q.- 6 6 6 6 q * 0 : = X 2 f ~ ' ' b p 2 0 p ! ' ` k ! i > z ' ' ' x & 7 9 9 & ( ~ = 6 6 6 6 > = 6 q.q.q.q.q.q.q.q.",
"q.q.q.q.q.q.q.q.- q 6 6 6 6 * f p 2 : p z ' ' ' b p 2 0 p ! ` ~ k ~ i 2 z ' ` ' b p p 2 & p ( ~ * , * q 6 > * q q.q.q.q.q.q.q.q.",
"q.q.q.q.q.q.q.q.- q 6 6 , - * * p i : p z _ ` ' b p 2 & p ! ` ` p ~ s 2 z ' ` ' b p p 2 s p ! ~ * , , 1 6 , - q q.q.q.q.q.q.q.q.",
"q.q.q.q.q.q.q.q.- q q < - - , * i i 2 p z ' ` ' b p 2 4 p ! ` ~ k ! 0 > z ' ` ' x p p 2 4 p ~ ( * * 1 q q > - q q.q.q.q.q.q.q.q.",
"q.q.q.q.q.q.q.q.- 6 6 1 y e , * i i > p z ' ` ' b p 2 & p ~ ` ` k ! i 2 z ' ` ' b p p 2 i p ~ Q = * q 1 1 > * q q.q.q.q.q.q.q.q.",
"q.q.q.q.q.q.q.q.> 6 1 y e > 1 * p s : d z ` ` ` b & > 4 p ! ` ~ k ! i > z ` ` ' b i p 2 & p ! $ * * 6 6 6 > - 6 q.q.q.q.q.q.q.q.",
"q.q.q.q.q.q.q.q.1 q 6 6 q * 1 = p s : 4 z ` ~ W j c 7 & p ! ` ` k ! i > z ' ' ' b p p 2 & p ! o   * 6 6 q > - 6 q.q.q.q.q.q.q.q.",
"q.q.q.q.q.q.q.q.q 1 1 q 6 * 1 = i s 2 c A _ R b l j 3 4 p ~ ` ~ k ! i 2 z ' ` ' b p p > 0 p ( o * - 6 6 q - - q q.q.q.q.q.q.q.q.",
"q.q.q.q.q.q.q.q.1 q q 1 q * > = i s 2 f W _  . .Q k 2 i p ~ _ ` k ! s > z ` _ ' Y f Q ^ / ( _ o @ 1 6 6 6 1 < 6 q.q.q.q.q.q.q.q.",
"q.q.q.q.q.q.q.q.q q 6 6 6 * 1 * i i 2 p z ` ` ' b p 2 & p ! ` ` k ~ s 5 Q  . . . . .~ Q Q Q s X * 6 6 6 6 6 > @ q.q.q.q.q.q.q.q.",
"q.q.q.q.q.q.q.q.1 1 6 6 6 * 1 * i s > p z _ ` ' b p 2 4 k ~ ' ' (  ./ / | ' Q c c z g 2 2 2 4 o * 1 6 6 6 6 - * q.q.q.q.q.q.q.q.",
"q.q.q.q.q.q.q.q.@ > 6 6 q * 1 * p i 2 p z ' _ ' x c j A }  . . .! Q Q b 0 0 4 3 : : - o = 2 Q = y t 6 6 6 q -   q.q.q.q.q.q.q.q.",
"q.q.q.q.q.q.q.q.  > 6 1 q * < * i i 5 k x ' ....| _  .' x c c c 3 2 2 > 5 0 k ! k 4 4 ; 2 d ! = 6 t 6 6 6 6 - @ q.q.q.q.q.q.q.q.",
"q.q.q.q.q.q.q.q.* - q - < 1 * * b S }  . ._ W Q Q l s g > 2 2 3 3 j = + z ~ ~ ' b p p 2 0 p ~ ; 6 1 6 6 , * > @ q.q.q.q.q.q.q.q.",
"q.q.q.q.q.q.q.q.  > q * < 6 * < g _ c c c d 3 3 3 : + = 3 x W W k ~ 3 ; z ' ' ' b p p 2 0 p ! - 1 6 6 6 , - > q.q.q.q.q.q.q.q.q.",
"q.q.q.q.q.q.q.q.  - 6 * < 6 * , = 3 = : : s c c s 2 % ; p ~ ' ~ k ~ i 2 z ' ` ' b p p 2 0 p ! ; 1 q 1 1 6 > * q.q.q.q.q.q.q.q.q.",
"q.q.q.q.q.q.q.q.* - q < - , * , % = o : f ! ' ' b d 2 0 p ! ` ` k ! i > z ' ` ' x p p 2 0 p ! - 1 q 1 > 6 <   q.q.q.q.q.q.q.q.q.",
"q.q.q.q.q.q.q.q.* - 6 q * < * , * 2 : i z ' ` ' x p 2 & p ! ' ` f Y & > z ` ' W d p 0 : % 3 h = 6 6 < - 1 > @ q.q.q.q.q.q.q.q.q.",
"q.q.q.q.q.q.q.q.q.* < 6 * 6 , * * i 2 p z ` ` ` b p 2 & p ! ` ~ p p 0 2 c W c f 3 > * . . o . @ 1 6 , * 6 > @ q.q.q.q.q.q.q.q.q.",
"q.q.q.q.q.q.q.q.q.  > 6 < 6 6 * * & 2 p z ` ` _ b p 2 3 p k Y ~ p & % $ % ; % + X . X X . . . @ 6 6 < * < * @ q.q.q.q.q.q.q.q.q.",
"q.q.q.q.q.q.q.q.q.* > 6 * , * * % 4 2 p z ` ` ` b 4 : ; > > 2 q 2 o . . . . X X . . X O X O . @ 6 1 < * > @ @ q.q.q.q.q.q.q.q.q.",
"q.q.q.q.q.q.q.q.q.@ - < * < * * * i > & p z v z c : X . X . . . X X X O @ @ @   O O O O X . . @ , * q < @ @ @ q.q.q.q.q.q.q.q.q.",
"q.q.q.q.q.q.q.q.q.* * * * > *   % ;   ; 3 4 2 % + X . . O O O O @ @ @   @ @ @ @ @ O O X . X . @ * * 6 * @ + X q.q.q.q.q.q.q.q.q.",
"q.q.q.q.q.q.q.q.q.+ @ @ X @ @ O $ . . . . X . . .   + o O O . . . . . . + O + + O O O O O X . O @ * -   X X . q.q.q.q.q.q.q.q.q.",
"q.q.q.q.q.q.q.q.q.. X X . X X . . . . . . . . . . . . . . . . . . . . . . . . . . . . . . . . . X *   O . . . q.q.q.q.q.q.q.q.q."
};
