/* XPM */
static char *result[] = {
/* columns rows colors chars-per-pixel */
"64 64 102 2 ",
"   c #5E4D3F",
".  c #5F4E40",
"X  c #604F42",
"o  c #625143",
"O  c #6B5542",
"+  c #6E5943",
"@  c #715742",
"#  c #755A43",
"$  c #7B5B41",
"%  c #7C6143",
"&  c #7F6853",
"*  c #9D793F",
"=  c #A37D3F",
"-  c #815E42",
";  c #846143",
":  c #8B6545",
">  c #876843",
",  c #8D6A45",
"<  c #8D6D4E",
"1  c #926C45",
"2  c #986D47",
"3  c #946C48",
"4  c #9A6E48",
"5  c #957243",
"6  c #997442",
"7  c #9E7842",
"8  c #967348",
"9  c #9E7149",
"0  c #9D7C4C",
"q  c #88715A",
"w  c #997B5C",
"e  c #A47D41",
"r  c #A2744B",
"t  c #A57A4E",
"y  c #A9794F",
"u  c #AD7C51",
"i  c #B17F53",
"p  c #806C63",
"a  c #8C7663",
"s  c #887369",
"d  c #A7803F",
"f  c #AC843E",
"g  c #A68143",
"h  c #A98241",
"j  c #AE8945",
"k  c #AE8D4E",
"l  c #B28C44",
"z  c #B18D48",
"x  c #B69146",
"c  c #B89247",
"v  c #B6924C",
"b  c #B9954A",
"n  c #BD9A4D",
"m  c #B58255",
"M  c #B88457",
"N  c #B68358",
"B  c #BA8659",
"V  c #BF895B",
"C  c #B79856",
"Z  c #BE9D54",
"A  c #948479",
"S  c #A48460",
"D  c #A2886D",
"F  c #A28976",
"G  c #A48C7B",
"H  c #AE9371",
"J  c #B89C71",
"K  c #BDA376",
"L  c #C09D4D",
"P  c #C38C5D",
"I  c #C19F51",
"U  c #C7905F",
"Y  c #C3A04F",
"T  c #C5A352",
"R  c #C9A752",
"E  c #CCAB55",
"W  c #C3A65C",
"Q  c #C5A85C",
"!  c #CDAD5A",
"~  c #CEB05D",
"^  c #D1B259",
"/  c #CB9362",
"(  c #D09664",
")  c #D29865",
"_  c #D3B762",
"`  c #D6B962",
"'  c #D9BE67",
"]  c #D3B96D",
"[  c #DABF69",
"{  c #A99386",
"}  c #A9998A",
"|  c #B29F96",
" . c #B9A38E",
".. c #B4A498",
"X. c #BAA69B",
"o. c #BCABA2",
"O. c #C1A98D",
"+. c #C6B098",
"@. c #C3B2A5",
"#. c #CAB9AE",
"$. c #D0C0B4",
"%. c None",
/* pixels */
"%.%.%.%.%.%.%.%.%.%.%.%.%.%.%.%.%.%.%.%.%.%.%.%.%.%.%.%.%.%.%.%.%.%.%.%.%.%.%.%.%.%.%.%.%.%.%.%.%.%.%.%.%.%.%.%.%.%.%.%.%.%.%.%.",
"%.%.%.%.%.%.%.%.%.%.%.%.%.%.%.%.%.%.%.%.%.%.%.%.%.%.%.%.%.%.%.%.%.%.%.%.%.%.%.%.%.%.%.%.%.%.%.%.%.%.%.%.%.%.%.%.%.%.%.%.%.%.%.%.",
"%.%.%.%.%.%.%.%.%.%.%.%.%.%.%.%.%.%.%.%.%.%.%.%.%.%.%.%.%.%.%.%.%.%.%.%.%.%.%.%.%.%.%.%.%.%.%.%.%.%.%.%.%.%.%.%.%.%.%.%.%.%.%.%.",
"%.%.%.%.%.%.%.%.%.%.%.%.%.%.%.%.%.%.%.%.%.%.%.%.%.%.%.%.%.%.%.%.%.%.%.%.%.%.%.%.%.%.%.%.%.%.%.%.%.%.%.%.%.%.%.%.%.%.%.%.%.%.%.%.",
"%.%.%.%.%.%.%.%.%.%.%.%.%.%.%.%.%.%.%.%.%.%.%.%.%.%.%.%.%.%.%.%.%.%.%.%.%.%.%.%.%.%.%.%.%.%.%.%.%.%.%.%.%.%.%.%.%.%.%.%.%.%.%.%.",
"%.%.%.%.%.%.%.%.%.%.%.%.%.%.%.%.%.%.%.%.%.%.%.%.%.%.%.%.%.%.%.%.%.%.%.%.%.%.%.%.%.%.%.%.%.%.%.%.%.%.%.%.%.%.%.%.%.%.%.%.%.%.%.%.",
"%.%.%.%.%.%.%.%.%.%.%.%.%.%.%.%.%.%.%.%.%.%.%.%.%.%.%.%.%.%.%.%.%.%.%.%.%.%.%.%.%.%.%.%.%.%.%.%.%.%.%.%.%.%.%.%.%.%.%.%.%.%.%.%.",
"%.%.%.%.%.%.%.%.%.%.%.%.%.%.%.%.%.%.%.%.%.%.( ( ( ( ( ( ( ( ( ( ( ( ( ( / m r r r %.%.%.%.%.%.%.%.%.%.%.%.%.%.%.%.%.%.%.%.%.%.%.",
"%.%.%.%.%.%.%.%.%.%.%.%.%.%.%.%.%.%.%.( ( ( ( ( ( / ( ( ( ( ( ( ( ( ( ( ( ( / / / P u r %.%.%.%.%.%.%.%.%.%.%.%.%.%.%.%.%.%.%.%.",
"%.%.%.%.%.%.%.%.%.%.%.%.%.%.( ( ( ( ( ( ( ( ( / / / / / / / ( ( ( ( / m M ( ( ( ( ( ( P P P B u 9 %.%.%.%.%.%.%.%.%.%.%.%.%.%.%.",
"%.%.%.%.%.%.%.%.%.%.%.%.( ( ( ( / ( ( / P V V m m m m / B / ( ( ( ( / / P i P P U ( ( U P / ) / u r 9 %.%.%.%.%.%.%.%.%.%.%.%.%.",
"%.%.%.%.%.%.%.%.%.%.%.( / ( ( / / M i i y V V / ( ( ( ) / / / / / / / U P U i 4 r y P P P ) i i U B B r %.%.%.%.%.%.%.%.%.%.%.%.",
"%.%.%.%.%.%.%.%.%.( ( ( ( ( P m M / / / / ( / P P P V V m m m r r r r y B P U P i 4 3 4 i P / U m i y B N u %.%.%.%.%.%.%.%.%.%.",
"%.%.%.%.%.%.%.%.( ( ( ( ( ( P ( ( / / P i i y 4 2 2 2 2 u u u r 4 r r 4 4 2 r i i i i r : 4 u i / / V B y y 2 %.%.%.%.%.%.%.%.%.",
"%.%.%.%.%.%.%.( ( ( ( ( ( ( P V B y r r 2 1 2 9 3 : : : 2 9 9 9 r 9 9 r r 2 : , 1 r r i 3 - : 3 2 9 V P P r : 2 %.%.%.%.%.%.%.%.",
"%.%.%.%.%.%.%.( ( ( / / M u 9 9 4 2 2 : : 3 2 r 4 2 2 2 , : : , 1 , : : 2 2 2 3 2 : - 4 4 3 - - : : ; , B / t - %.%.%.%.%.%.%.%.",
"%.%.%.%.%.%.%.( ( U u r 9 9 r 3 3 - : 4 9 4 1 1 6 g w 5 * , g T _ T = > 8 0 1 2 3 2 2 3 : 3 i 4 : : : : N N r : %.%.%.%.%.%.%.%.",
"%.%.%.%.%.%.%./ V y 4 9 4 4 - 3 3 9 2 : 3 3 * : b ' ` x f 5 f ! [ E = 5 b R 7 # O $ ; ; 3 3 : u r B B B u 4 3 - %.%.%.%.%.%.%.%.",
"%.%.%.%.%.%.%.m 9 9 9 3 - - 9 3 3 - , I ! l 6 2 n [ ` x f 5 d E ` E h 1 x Y 7 # X X o o @ # : - 3 r r r 3 : $ $ %.%.%.%.%.%.%.%.",
"%.%.%.%.%.%.%.3 4 4 : $ - 9 : 3 k , j _ T f 6 * n ' ` c f 1 h E ` T h 1 c T e # o X o o o o o O $ : 3 : ; ; - 4 %.%.%.%.%.%.%.%.",
"%.%.%.%.%.%.%.N 9 9 4 4 r , 2 x n 1 l ^ T f 7 6 n [ ^ c f , * n Y Z b , c Y e # o o o o o o o o o 9 B U B / / P %.%.%.%.%.%.%.%.",
"%.%.%.%.%.%.%.B ( B P / i , h c f 1 l ^ T f 7 6 T ^ ^ b f 5 v Q ! ~ = 5 c T 7 # o o o o o o o o o : r r 3 i i y %.%.%.%.%.%.%.%.",
"%.%.%.%.%.%.%.r r : 3 r r - Q l f , l ^ T f 7 5 n ^ ^ x f 5 j ~ ^ E h 1 c T r # o o o o o o o o o - 9 3 - 9 4 r %.%.%.%.%.%.%.%.",
"%.%.%.%.%.%.%.9 r - 3 r r - R f f , l ^ T f 7 6 T ^ ^ x f , h E ! R d 1 v R e # . o o o o o o o o - 9 2 : 4 r 4 %.%.%.%.%.%.%.%.",
"%.%.%.%.%.%.%.9 9 ; 1 9 r - I l d 1 l ~ T f 7 6 L ^ ^ x f 5 h E ^ E g , c ` C % o o o o o o o o o - 9 4 9 4 r 4 %.%.%.%.%.%.%.%.",
"%.%.%.%.%.%.%.1 r : , r r - I l f , l ^ Y f 7 6 n ^ ^ x d 5 d E ^ E d w K T 0 # X o o o o o o X o - 9 2 , 9 9 r %.%.%.%.%.%.%.%.",
"%.%.%.%.%.%.%.: r : , r r - E f = * l ^ T f 7 5 n ^ ^ x f 1 h E ^ E D { S e * # o o o o o o o o O - 9 2 ; r r 4 %.%.%.%.%.%.%.%.",
"%.%.%.%.%.%.%.: r - , r r - I f = 1 l ^ T f 7 6 L ^ ^ x d 5 h ~ ^ ] X... .H g # X o o o o o o o o $ 4 2 ; 9 4 r %.%.%.%.%.%.%.%.",
"%.%.%.%.%.%.%.: r - 3 4 u 9 : = d , l ^ T f 7 5 L ^ ^ x f 1 v ` ` Z G #.X.o.@.q X X o X o o o o o - r 2 ; r 4 2 %.%.%.%.%.%.%.%.",
"%.%.%.%.%.%.%.: r : 3 i i r : = d 1 l ^ Y f 7 6 L ^ ^ b T W ~ b z 7 0 ..@.& #.} X o o o o o o o o - 4 1 - r r : %.%.%.%.%.%.%.%.",
"%.%.%.%.%.%.%.: r 2 2 r 9 9 - = f 5 j ^ T f 7 6 n ^ ` ` Q T g 6 7 z = a ..s o.A X o o o o X o o O : 3 2 - r r : %.%.%.%.%.%.%.%.",
"%.%.%.%.%.%.%.: r - 3 9 9 9 - = h , l ^ R f e 7 T ^ ^ T 7 5 1 n T E h w #.#. .& X o o o o o o X $ r y : ; 1 r : %.%.%.%.%.%.%.%.",
"%.%.%.%.%.%.%.r r : , 9 r 9 - h d , l ~ Y f Q _ ~ j e 5 > + * E ^ E d < F J e # o o o o o o o o # 9 u N i 4 9 : %.%.%.%.%.%.%.%.",
"%.%.%.%.%.%.%.%.9 - 1 r 9 9 - h f 5 l ^ ` ~ Q c g 7 g d e > d ^ E E d , e f e # o o o o o o o o % 9 9 9 9 4 9 , %.%.%.%.%.%.%.%.",
"%.%.%.%.%.%.%.%.9 1 1 r 4 9 ; e d 8 I ` R b 8 % 6 n ! x f 5 h ! ^ E h 5 x Y 7 # o o o o o o o o $ r 2 3 4 r r : %.%.%.%.%.%.%.%.",
"%.%.%.%.%.%.%.%.9 9 9 9 9 9 - h j W ! j 6 8 # % 7 Y ^ x f , d E ^ R e 1 x T 7 % o o o o o o o o $ 4 2 ; r r 4 2 %.%.%.%.%.%.%.%.",
"%.%.%.%.%.%.%.%.9 9 9 9 2 r * Q ` T 7 7 j 6 , 5 d n ^ c f 1 d E ^ E d 5 b Y e # o o o o o o o o - 4 3 : 9 9 r 4 %.%.%.%.%.%.%.%.",
"%.%.%.%.%.%.%.%.4 9 9 9 r 2 $ h j 5 g R T f 7 6 f Y ^ x f , h ! ^ R e 1 x Y e # o o o o o o o o $ 2 ; 9 9 4 4 4 %.%.%.%.%.%.%.%.",
"%.%.%.%.%.%.%.%.: 9 9 9 4 r $ : > + x ~ Y f 7 6 f L ^ x f 5 f E ! E h 1 f l 7 # o o o o o o o o - 2 : 9 r , : r %.%.%.%.%.%.%.%.",
"%.%.%.%.%.%.%.%.: r 9 9 r 4 - * , > l ^ T f 7 * f Y ^ x f 5 d ! ^ E e 5 f h e # o o o o o o o o $ 9 9 9 9 1 : r %.%.%.%.%.%.%.%.",
"%.%.%.%.%.%.%.%.: r 9 9 9 9 - * d 5 l ^ Y f 7 7 f L ^ x f 1 d E ^ R f 1 j b 7 % o o o o o o o o - 2 - 9 9 1 - r %.%.%.%.%.%.%.%.",
"%.%.%.%.%.%.%.%.: 9 9 9 2 : - - d , l ^ Y f 7 7 f L ^ c f 5 d E E E g g ~ Z 5 # o o o X o o o o $ 4 2 9 9 2 : r %.%.%.%.%.%.%.%.",
"%.%.%.%.%.%.%.%.: r 9 2 : : 2 - = 1 l ^ T 7 > 6 f L ^ x f 1 d ^ ~ E Z ~ n 7 1 % X o o o o o o o $ - 9 9 9 1 : r %.%.%.%.%.%.%.%.",
"%.%.%.%.%.%.%.%.: r 9 4 i y 4 ; g , l ^ n 6 6 6 f Y ^ x f 1 d ! ^ ' ~ j 6 g 7 # X o o o o o o o $ - 9 9 4 3 - 4 %.%.%.%.%.%.%.%.",
"%.%.%.%.%.%.%.%.1 4 9 i y 3 2 ; h , h Y n f * 6 f L ^ x f < v ` ` I 7 > 7 d > o o o o o o o o o $ - 4 4 4 1 : r %.%.%.%.%.%.%.%.",
"%.%.%.%.%.%.%.%.9 r 9 9 r - 2 ; g , g ~ Q f 7 6 f n ^ b R Q ~ b z 6 > # f * # o o o o o X o o o $ - 9 9 r 1 : r %.%.%.%.%.%.%.%.",
"%.%.%.%.%.%.%.%.9 4 r 4 9 - 2 ; e , x ^ T f 7 6 z E ^ _ Q T h 6 7 j e , f e # o o o o o o o o o - : 9 9 9 , : r %.%.%.%.%.%.%.%.",
"%.%.%.%.%.%.%.%.9 9 9 9 r - 1 ; e 5 l ^ T f 7 7 R ` ` n 7 5 , Z Y E h 8 f h % o o o o X o o o o $ 4 9 9 r 4 2 4 %.%.%.%.%.%.%.%.",
"%.%.%.%.%.%.%.%.r 9 9 9 9 - 4 - 7 5 j ^ T j R ` ~ j d 1 > + e E ^ E = 8 h e & o o o o o o o o o - r 4 r 9 9 1 - %.%.%.%.%.%.%.%.",
"%.%.%.%.%.%.%.%.4 4 9 9 9 - 4 - d 5 j ^ ^ ~ Q b g 7 g 7 7 > h E ^ R e 5 e > o o o o o o o o o O - 4 9 4 4 r , $ %.%.%.%.%.%.%.%.",
"%.%.%.%.%.%.%.%.- , r 9 r - 4 - g 1 Z ` E n 5 % g Y ! x f 5 h E ^ R g < 6 # . o . o o o o o o $ i u 9 9 r 4 : $ %.%.%.%.%.%.%.%.",
"%.%.%.%.%.%.%.%.$ , 9 4 9 - 4 - j W ~ j 6 1 % + v ^ ~ x f 1 f b E c e ; O o o o o o o o o o o $ r u 9 9 r 4 , $ %.%.%.%.%.%.%.%.",
"%.%.%.%.%.%.%.%.$ : r : 2 4 - - ~ I 7 7 j 5 , 5 n ~ ^ x f * f h L d % o o o o o o o o o o o o $ 4 9 9 9 2 : 1 $ %.%.%.%.%.%.%.%.",
"%.%.%.%.%.%.%.%.$ 1 r - 2 9 - 1 8 5 j T T f 7 6 n ^ ^ x d > = 6 = % o o o o o o o o o o o o o - 4 9 r 4 2 ; : %.%.%.%.%.%.%.%.%.",
"%.%.%.%.%.%.%.%.$ : 9 - 2 9 - 4 $ % E ^ T f 7 6 f Y ^ x 5 % % o o o o o o o o o o o o o o o X $ 9 9 9 r 4 1 - %.%.%.%.%.%.%.%.%.",
"%.%.%.%.%.%.%.%.$ 1 r 4 - 4 - 2 % , ! ^ T f 7 6 f x R x % o o o o o o o o . o o o o o . o o X - 9 9 2 : r 1 $ %.%.%.%.%.%.%.%.%.",
"%.%.%.%.%.%.%.%.$ : 9 9 - 4 - 4 - 6 ! ^ Y f 7 5 h * 5 $ X X O O O O O O O O o X X o o o o o o $ 4 r 4 - r 1 $ %.%.%.%.%.%.%.%.%.",
"%.%.%.%.%.%.%.%.%.- 2 r - 4 4 - % , n ^ R d > + # @ X O @ @ $ $ $ $ $ $ # $ $ # O o o o o o X $ 4 r 4 - 4 , $ %.%.%.%.%.%.%.%.%.",
"%.%.%.%.%.%.%.%.%.$ , 4 2 4 9 - $ , j T b 5 @ o o # $ $ - - $ $ $ $ + O O O @ $ $ $ @ O o o o - 4 9 2 - 2 $ $ %.%.%.%.%.%.%.%.%.",
"%.%.%.%.%.%.%.%.%.- 1 r - 4 - - $ % f e > O o + $ $ $ $ $ $ O O O O @ $ $ $ - @ O O O O @ @ o $ 4 9 4 - 1 $ $ %.%.%.%.%.%.%.%.%.",
"%.%.%.%.%.%.%.%.%.$ 3 1 - 2 - $ $ O * $ o o @ @ # @ $ $ $ $ $ $ $ @ $ $ $ $ $ $ @ @ @ @ O o o $ 4 : 9 3 $ $ $ %.%.%.%.%.%.%.%.%.",
"%.%.%.%.%.%.%.%.%.$ - - $ 2 - $ $ o + o O $ @ # @ @ $ $ $ - $ $ $ $ $ $ - $ - $ $ @ @ O X O o $ - - 4 ; $ # O %.%.%.%.%.%.%.%.%.",
"%.%.%.%.%.%.%.%.%.@ $ $ O $ $ @ o o @ @ @ @ @ @ # @ @ @ @ @ O X X X O O @ @ @ @ @ # @ @ @ @ O @ $ - , $ O O o %.%.%.%.%.%.%.%.%.",
"%.%.%.%.%.%.%.%.%.o O O X O O X o o o o o o o o o o o o X o X O X X X X X O X   o o o o o o X X X - $ O o o o %.%.%.%.%.%.%.%.%."
};
