/* XPM */
static char *result[] = {
/* columns rows colors chars-per-pixel */
"64 64 105 2 ",
"   c #604F41",
".  c #625143",
"X  c #6C5542",
"o  c #6E5843",
"O  c #715742",
"+  c #745942",
"@  c #7C5B41",
"#  c #715D4B",
"$  c #725F52",
"%  c #746047",
"&  c #7A6143",
"*  c #706052",
"=  c #7E6E60",
"-  c #946F3F",
";  c #A37C3E",
":  c #815E42",
">  c #856243",
",  c #8B6545",
"<  c #866B43",
"1  c #8D6A45",
"2  c #8F6D49",
"3  c #936B46",
"4  c #986D47",
"5  c #956B48",
"6  c #9A6E48",
"7  c #8E7144",
"8  c #957243",
"9  c #9A7642",
"0  c #9C7843",
"q  c #977548",
"w  c #9E7149",
"e  c #9A7849",
"r  c #9F7D53",
"t  c #A27D45",
"y  c #A2744B",
"u  c #A7784F",
"i  c #A9794F",
"p  c #AD7C51",
"a  c #B17F53",
"s  c #AB823D",
"d  c #A68245",
"f  c #AB8544",
"g  c #AF8B46",
"h  c #A5844C",
"j  c #A8854A",
"k  c #AB8A4D",
"l  c #B38D44",
"z  c #BC9646",
"x  c #B5934D",
"c  c #BB974B",
"v  c #BD994B",
"b  c #B58255",
"n  c #B88457",
"m  c #B08F50",
"M  c #B68358",
"N  c #BA8659",
"B  c #BF895B",
"V  c #B39352",
"C  c #BB9B52",
"Z  c #B79A5A",
"A  c #BA9D5B",
"S  c #BFA055",
"D  c #AB8E6D",
"F  c #A78F79",
"G  c #BA9E76",
"H  c #B99E79",
"J  c #BCA273",
"K  c #C09D4D",
"L  c #C38C5D",
"P  c #C19F50",
"I  c #C7905F",
"U  c #C3A04E",
"Y  c #C4A353",
"T  c #C8A754",
"R  c #CBAA56",
"E  c #C5A75C",
"W  c #C7A95C",
"Q  c #CCAD5A",
"!  c #CFB15E",
"~  c #D1B259",
"^  c #CB9362",
"/  c #D09664",
"(  c #D29865",
")  c #D7BB64",
"_  c #D8BB64",
"`  c #D6BC69",
"'  c #C0A274",
"]  c #CDB47D",
"[  c #D4B979",
"{  c #A38C83",
"}  c #A9958D",
"|  c #A9998F",
" . c #B09E98",
".. c #BBA69E",
"X. c #BFAEA6",
"o. c #D2B891",
"O. c #C1AFA4",
"+. c #C3B3A6",
"@. c #C0B0A9",
"#. c #CBBBB0",
"$. c #E0CB95",
"%. c #CFC1B9",
"&. c #D3C5BA",
"*. c #DCCBBA",
"=. c None",
/* pixels */
"=.=.=.=.=.=.=.=.=.=.=.=.=.=.=.=.=.=.=.=.=.=.=.=.=.=.=.=.=.=.=.=.=.=.=.=.=.=.=.=.=.=.=.=.=.=.=.=.=.=.=.=.=.=.=.=.=.=.=.=.=.=.=.=.",
"=.=.=.=.=.=.=.=.=.=.=.=.=.=.=.=.=.=.=.=.=.=.=.=.=.=.=.=.=.=.=.=.=.=.=.=.=.=.=.=.=.=.=.=.=.=.=.=.=.=.=.=.=.=.=.=.=.=.=.=.=.=.=.=.",
"=.=.=.=.=.=.=.=.=.=.=.=.=.=.=.=.=.=.=.=.=.=.=.=.=.=.=.=.=.=.=.=.=.=.=.=.=.=.=.=.=.=.=.=.=.=.=.=.=.=.=.=.=.=.=.=.=.=.=.=.=.=.=.=.",
"=.=.=.=.=.=.=.=.=.=.=.=.=.=.=.=.=.=.=.=.=.=.=.=.=.=.=.=.=.=.=.=.=.=.=.=.=.=.=.=.=.=.=.=.=.=.=.=.=.=.=.=.=.=.=.=.=.=.=.=.=.=.=.=.",
"=.=.=.=.=.=.=.=.=.=.=.=.=.=.=.=.=.=.=.=.=.=.=.=.=.=.=.=.=.=.=.=.=.=.=.=.=.=.=.=.=.=.=.=.=.=.=.=.=.=.=.=.=.=.=.=.=.=.=.=.=.=.=.=.",
"=.=.=.=.=.=.=.=.=.=.=.=.=.=.=.=.=.=.=.=.=.=.=.=.=.=.=.=.=.=.=.=.=.=.=.=.=.=.=.=.=.=.=.=.=.=.=.=.=.=.=.=.=.=.=.=.=.=.=.=.=.=.=.=.",
"=.=.=.=.=.=.=.=.=.=.=.=.=.=.=.=.=.=.=.=.=.=.=.=.=.=.=.=.=.=.=.=.=.=.=.=.=.=.=.=.=.=.=.=.=.=.=.=.=.=.=.=.=.=.=.=.=.=.=.=.=.=.=.=.",
"=.=.=.=.=.=.=.=.=.=.=.=.=.=.=.=.=.=.=.=.=.=./ / / / / / / / / / / / / / ^ b y u u =.=.=.=.=.=.=.=.=.=.=.=.=.=.=.=.=.=.=.=.=.=.=.",
"=.=.=.=.=.=.=.=.=.=.=.=.=.=.=.=.=.=.=./ / / / / ( ^ / ^ / / / ^ / ^ / / / / I ^ I L a y =.=.=.=.=.=.=.=.=.=.=.=.=.=.=.=.=.=.=.=.",
"=.=.=.=.=.=.=.=.=.=.=.=.=.=./ / / / / / / / ( ^ ^ ^ ^ ^ ^ / / / / / ^ b n / ( ( / / / L L L N p w =.=.=.=.=.=.=.=.=.=.=.=.=.=.=.",
"=.=.=.=.=.=.=.=.=.=.=.=./ / / / / / / ^ B B B N b b b ^ B ^ / / / / / ^ L a N L I / / L L ^ ( ^ p y w =.=.=.=.=.=.=.=.=.=.=.=.=.",
"=.=.=.=.=.=.=.=.=.=.=./ ^ / / ^ I b b a p B B L ( / / / ^ ^ ^ ^ ^ ^ ^ L L / a 6 i i L L L ( a a L N M u =.=.=.=.=.=.=.=.=.=.=.=.",
"=.=.=.=.=.=.=.=.=./ / / / / L b b ^ ^ ^ ^ / ^ B B B B L M b b y u y y i N L I L a 4 5 5 n L ^ I n b u n n p =.=.=.=.=.=.=.=.=.=.",
"=.=.=.=.=.=.=.=./ / / / / / L / / ^ ^ L a a i w 6 6 6 6 p p p y w w w w 6 4 y a a a a y : 5 p a ^ ^ L n u u 6 =.=.=.=.=.=.=.=.=.",
"=.=.=.=.=.=.=./ / / / / / / L B N u y y 6 3 5 w 3 , , , 4 w w w w w w w y 4 3 , 3 w u a 5 : , 3 4 w B L L y , 6 =.=.=.=.=.=.=.=.",
"=.=.=.=.=.=.=./ / / ^ ^ n p w w w 6 5 , , 3 4 y 6 6 6 6 , > > > > > > , 6 6 4 3 3 , , 5 w 4 : : , , > , N ^ y : =.=.=.=.=.=.=.=.",
"=.=.=.=.=.=.=./ / I p y y 6 6 5 3 , , 6 6 6 3 3 1 e 2 @ X . . . . . . . + + : 5 5 6 6 2 , 1 a w , , > 3 M M w , =.=.=.=.=.=.=.=.",
"=.=.=.=.=.=.=.^ B u 6 6 6 6 , 3 5 5 6 3 1 3 j j ; T h X   . . . . . . . . . . X X @ : > 5 3 , p u n N b p 6 3 : =.=.=.=.=.=.=.=.",
"=.=.=.=.=.=.=.b y 6 y 6 : , 5 5 5 e 9 T V - c K s U h o . . . . . . . . . . . .   . . . O @ , @ 3 y u w 5 , @ @ =.=.=.=.=.=.=.=.",
"=.=.=.=.=.=.=.3 6 6 , # , 6 , @ Z T l ~ C 4 z x t U h X . . . . . . . . . . . . . . . . . . X X @ , 3 , > > : 6 =.=.=.=.=.=.=.=.",
"=.=.=.=.=.=.=.M w w w 5 w , 3 1 ~ R l ~ C 3 g v g U h X . . . . . . . . . . . . . . . . . .   . X 6 M I N ^ ^ I =.=.=.=.=.=.=.=.",
"=.=.=.=.=.=.=.B ^ n B / n 1 f q R R l ~ C q E Y s U h X . . . . . . . . . . . . . . . . . . . . . , y u 5 p p u =.=.=.=.=.=.=.=.",
"=.=.=.=.=.=.=.w u , 5 y w > E q R R l ~ C 8 v K s U h X . . . . . . . . . . . . . . . . . . . . . : w 3 : w 6 w =.=.=.=.=.=.=.=.",
"=.=.=.=.=.=.=.w 6 , 3 w w > P q R R l ~ C - v K s U h h * . . . . . . . . . . . . . . . . . . . . : w 4 , w y w =.=.=.=.=.=.=.=.",
"=.=.=.=.=.=.=.w w > 3 w w : Y q R R l ~ C 3 z S s U ` R % . . . . . . . . . . . . . . . . . . . . : y 6 6 w w y =.=.=.=.=.=.=.=.",
"=.=.=.=.=.=.=.3 y , 3 w w > Y q R R l ~ C 8 v v J [ T 7 . . . . . . . . . . . . . . . .   . . . . : 6 4 3 w w 6 =.=.=.=.=.=.=.=.",
"=.=.=.=.=.=.=., y > 3 w w : Y q ~ R l ~ C - z ] &.G - o   . . . . . . . . . . . . . . . . . . . . : y 5 : y 6 y =.=.=.=.=.=.=.=.",
"=.=.=.=.=.=.=., 6 , 3 w 6 > C q R R s ~ C 3 v $.%.D 8 X . . . . . . . . . . . . . . . . . . . . . : 6 5 : y y 6 =.=.=.=.=.=.=.=.",
"=.=.=.=.=.=.=., y , 3 w p w , 2 R R l ~ v e Y J X.+.F #     . . . . . . . . . . . . . . . . . . X : w 3 > y 6 6 =.=.=.=.=.=.=.=.",
"=.=.=.=.=.=.=., w , 5 a a y : 1 R R l ~ Q W c D *.X. .} *   . . . . . . . . . . . . . . . . . . . : 6 5 > w y , =.=.=.=.=.=.=.=.",
"=.=.=.=.=.=.=., y 5 5 y w w : 1 R R l ~ ~ c d l o.X.{ #.=   . . . . . . . . . . . . . . . . . . X > 5 4 > w y , =.=.=.=.=.=.=.=.",
"=.=.=.=.=.=.=., w , 3 6 w w : 3 R R l _ S 2 k K J #.X.} *   . . . . . . . . . . . . . . . . . . : w p , > 3 y , =.=.=.=.=.=.=.=.",
"=.=.=.=.=.=.=.w y > 3 w w w : 1 R R C c 7 & z U r } { * . . . . . . . . . . . . . . . . . . . . : w p M p 6 y , =.=.=.=.=.=.=.=.",
"=.=.=.=.=.=.=.=.y > 1 w w w : 2 Q ) W ; 9 < v U 0 V h X . . . . . . . . . .   . . . . . . . . . @ w w w w w w , =.=.=.=.=.=.=.=.",
"=.=.=.=.=.=.=.=.w 1 4 w w w & 2 ! U d v c 8 v v s Y h X . . . . . . . . . . . . . . . . . . . . @ 6 w 5 w w y , =.=.=.=.=.=.=.=.",
"=.=.=.=.=.=.=.=.w w w w w w > A Q 8 q ! C 8 z v s K h X . . . . . . . . . . . . . . . . . . . . @ w 6 : w w w 5 =.=.=.=.=.=.=.=.",
"=.=.=.=.=.=.=.=.w w w w w w > c f g e ~ C 8 v S s U h X . . . . . .   . . . . . . . . . . . . . : w 5 , w w w y =.=.=.=.=.=.=.=.",
"=.=.=.=.=.=.=.=.6 w w w w w : - f T l ~ v 3 v v s v h X   . . . . . . . . . .   . . . . . . . . @ 5 : w w 6 6 w =.=.=.=.=.=.=.=.",
"=.=.=.=.=.=.=.=.1 w w w w w : o T R l ~ C 4 v K s 0 1 o   . . . . . . . . . . . . . . . . . . . : 6 , w w , , y =.=.=.=.=.=.=.=.",
"=.=.=.=.=.=.=.=., y w w w w : & R R l ~ C 8 v K s 8 2 h %   . . . . . . . . . . . . . . . . . . @ w w w y 5 , w =.=.=.=.=.=.=.=.",
"=.=.=.=.=.=.=.=., y w w w w : 1 R R s ~ S 8 z v s h E k o . . . . . . . . . . . . . . . . . . . @ 4 : y 6 3 , 6 =.=.=.=.=.=.=.=.",
"=.=.=.=.=.=.=.=., w w y 6 > : > R R g ~ S - v v c ! V # . . . . . . .   . . . . . . . . . . . . @ 4 5 w y 3 , y =.=.=.=.=.=.=.=.",
"=.=.=.=.=.=.=.=., y w 5 , , 4 , R R m ~ C 8 v T U j 1 o . . . . . . . . . . . . . . . . . . . . @ > w w y 3 , w =.=.=.=.=.=.=.=.",
"=.=.=.=.=.=.=.=., w w 6 b y 6 > R T v ~ C 8 v _ m 1 1 o . . . . . . . . . . . . . . . . . . . . @ : w 6 y , , w =.=.=.=.=.=.=.=.",
"=.=.=.=.=.=.=.=.3 w 6 b p 3 w > R v l ~ C e Y x 9 1 1 X   . . . . . . . . . . . . . . . . . . . @ : 6 y w 3 , y =.=.=.=.=.=.=.=.",
"=.=.=.=.=.=.=.=.w w w w w > 3 > c ! l ~ Q E c 1 0 9 1 o . .   . . . . . . . . . . . . . . . . . @ @ y 6 w 3 , 6 =.=.=.=.=.=.=.=.",
"=.=.=.=.=.=.=.=.w w w w w : 4 > ! R l ~ ~ x f d e 9 < o . . . . . . . . . . . . . . . . . . . . @ > w w w 3 , y =.=.=.=.=.=.=.=.",
"=.=.=.=.=.=.=.=.w w w w w : 4 > R R l ` S 1 k m 9 q < X . . . . . . . . . . . . . . . . . . . . : y 6 w w 6 4 6 =.=.=.=.=.=.=.=.",
"=.=.=.=.=.=.=.=.y y 6 y w : 6 - R R C v 8 < v m 0 8 + . . . . . . . . . . . . . . . . . . . . . @ y 6 y w y 3 @ =.=.=.=.=.=.=.=.",
"=.=.=.=.=.=.=.=.6 6 y 6 w : 3 : R ` R 0 e 8 z m ; < . . . . . . . . . . . . . . . . . . . . . . > 6 y 6 w w , @ =.=.=.=.=.=.=.=.",
"=.=.=.=.=.=.=.=.@ 3 6 y y : 5 : Q U d v c 3 v m 8 & . . . . . . . . . . . . . . . . . . . . . @ a a w w y w , @ =.=.=.=.=.=.=.=.",
"=.=.=.=.=.=.=.=.@ 3 w 6 6 : 5 , E 9 q ~ C 8 l d & X . . . . . . . . . . . . . . . . . . . . . @ y i y 6 6 6 3 @ =.=.=.=.=.=.=.=.",
"=.=.=.=.=.=.=.=.@ 3 y , 4 6 : : t g t ~ C 8 s - X   . . . . . . . . . . . . . . . . . . . . . @ 6 6 w w 4 , 3 @ =.=.=.=.=.=.=.=.",
"=.=.=.=.=.=.=.=.@ 1 w > 5 6 : 3 < T l ~ C 8 ; o . . . . . . . . . . .   . . . . . . . . . . . : 6 y 6 w 4 : , =.=.=.=.=.=.=.=.=.",
"=.=.=.=.=.=.=.=.@ , w : 5 w : 4 , Y l ~ C < + . . . . . . . . . . . . . . . . . . . . . . .   : w w w 6 w 3 : =.=.=.=.=.=.=.=.=.",
"=.=.=.=.=.=.=.=.@ , w 4 , 4 : 4 , T g v V X . . . . . . . . . . . . .   . . . . . . . . . .   @ 6 y 4 - w 3 @ =.=.=.=.=.=.=.=.=.",
"=.=.=.=.=.=.=.=.@ 3 w y : 4 : 4 , Y f d <   . . . .         X . . X X X X X .     . . . . . . @ 6 w 4 > w 5 @ =.=.=.=.=.=.=.=.=.",
"=.=.=.=.=.=.=.=.=.: 4 w > 4 3 , , Y 3 @   . . . X O O O O O : : @ @ @ + + @ + + X . . . . .   @ w w 4 : w , @ =.=.=.=.=.=.=.=.=.",
"=.=.=.=.=.=.=.=.=.@ 3 w 3 6 6 : : V . . X O @ @ : : @ : : : : @ @ @ o o X X + : @ @ O X . . . : w w 4 : 4 @ @ =.=.=.=.=.=.=.=.=.",
"=.=.=.=.=.=.=.=.=.@ 3 w : 4 , @ : @ . X X o X + @ @ @ @ @ @ X O X o O @ : @ : + X X X O O O . @ 6 6 4 > 3 @ @ =.=.=.=.=.=.=.=.=.",
"=.=.=.=.=.=.=.=.=.@ 3 5 : 4 : @ @   O O O O O O O O @ : @ @ @ O @ @ @ @ @ @ @ @ O O O X . X . @ 4 > y 5 @ @ @ =.=.=.=.=.=.=.=.=.",
"=.=.=.=.=.=.=.=.=.@ : : @ 5 : @ @   . . X O O O O O O @ : : O : @ @ @ : @ @ @ : @ O O X X . . @ > : 6 : @ + X =.=.=.=.=.=.=.=.=.",
"=.=.=.=.=.=.=.=.=.+ + @ X @ @ O . X O O O O O @ O @ O O + O . .     . X O O O O + + + O X O . + + > 1 @ X X . =.=.=.=.=.=.=.=.=.",
"=.=.=.=.=.=.=.=.=.  X X   X O   .     . . . . . . .     . . . .     . . . .     . . . . . .     X : @ X . . . =.=.=.=.=.=.=.=.=."
};
