/* XPM */
static char *result[] = {
/* columns rows colors chars-per-pixel */
"64 64 89 1 ",
"  c #5F4E41",
". c #604F42",
"X c #625143",
"o c #6B5542",
"O c #715742",
"+ c #745842",
"@ c #7C5B41",
"# c #6D5B50",
"$ c #7C6144",
"% c #7D6B4D",
"& c #79655A",
"* c #815E42",
"= c #846143",
"- c #8B6545",
"; c #856843",
": c #8E6945",
"> c #8F6E4C",
", c #936A46",
"< c #986D47",
"1 c #956C48",
"2 c #9A6E48",
"3 c #957342",
"4 c #9A7743",
"5 c #9E7A43",
"6 c #967449",
"7 c #9E7149",
"8 c #9C7C4F",
"9 c #866E58",
"0 c #A57E41",
"q c #A2744B",
"w c #A7784F",
"e c #A9794F",
"r c #AD7C51",
"t c #B17F53",
"y c #847468",
"u c #A6803F",
"i c #AF863E",
"p c #9F815C",
"a c #A68144",
"s c #AB8543",
"d c #AB8947",
"f c #A8864C",
"g c #AD8C4E",
"h c #B28B43",
"j c #B28F4C",
"k c #B7934B",
"l c #B9964D",
"z c #BB994F",
"x c #A88451",
"c c #B58255",
"v c #B88457",
"b c #B18F57",
"n c #B68358",
"m c #BA8659",
"M c #BF895B",
"N c #AC9254",
"B c #B39156",
"V c #BE9E53",
"C c #B29458",
"Z c #9D8477",
"A c #95857B",
"S c #98897E",
"D c #AC906D",
"F c #B5976F",
"G c #C38C5D",
"H c #C7905F",
"J c #C5A454",
"K c #C9A754",
"L c #CBAA55",
"P c #C5A659",
"I c #C7A95D",
"U c #CCAC5A",
"Y c #CEB05C",
"T c #D1B25E",
"R c #CB9362",
"E c #D09664",
"W c #D29865",
"Q c #C0A161",
"! c #CFB567",
"~ c #D1B666",
"^ c #A28E88",
"/ c #A4918A",
"( c #B29E98",
") c #BAA79E",
"_ c #BEAC9E",
"` c #BCACA4",
"' c #CCBCB1",
"] c #D2C2B3",
"[ c None",
/* pixels */
"[[[[[[[[[[[[[[[[[[[[[[[[[[[[[[[[[[[[[[[[[[[[[[[[[[[[[[[[[[[[[[[[",
"[[[[[[[[[[[[[[[[[[[[[[[[[[[[[[[[[[[[[[[[[[[[[[[[[[[[[[[[[[[[[[[[",
"[[[[[[[[[[[[[[[[[[[[[[[[[[[[[[[[[[[[[[[[[[[[[[[[[[[[[[[[[[[[[[[[",
"[[[[[[[[[[[[[[[[[[[[[[[[[[[[[[[[[[[[[[[[[[[[[[[[[[[[[[[[[[[[[[[[",
"[[[[[[[[[[[[[[[[[[[[[[[[[[[[[[[[[[[[[[[[[[[[[[[[[[[[[[[[[[[[[[[[",
"[[[[[[[[[[[[[[[[[[[[[[[[[[[[[[[[[[[[[[[[[[[[[[[[[[[[[[[[[[[[[[[[",
"[[[[[[[[[[[[[[[[[[[[[[[[[[[[[[[[[[[[[[[[[[[[[[[[[[[[[[[[[[[[[[[[",
"[[[[[[[[[[[[[[[[[[[[[[EEEEEEEEEEEEEERcqqq[[[[[[[[[[[[[[[[[[[[[[[",
"[[[[[[[[[[[[[[[[[[[EEEEEWRWREEEWEEEEEEHHEmtq[[[[[[[[[[[[[[[[[[[[",
"[[[[[[[[[[[[[[EEEEEEEEERRRRRREEREERcvEWWEEEHGGmr7[[[[[[[[[[[[[[[",
"[[[[[[[[[[[[EEEEEEERMMMmcccRmRWEEERRGvmGHEWGmRWRrq7[[[[[[[[[[[[[",
"[[[[[[[[[[[EREERHcctrMMHEEEWRRRRRRRGmEt2eeGGGEntHmmq[[[[[[[[[[[[",
"[[[[[[[[[EEEEEGcvRRRRERMMMMMnccqqqqemGHGt<,2nGHRctemnr[[[[[[[[[[",
"[[[[[[[[EEEEEEGEERRGtte77222rrr7qq7722qttttq*2rtRRGvww2[[[[[[[[[",
"[[[[[[[EEEEEEEGMmqqq2,17,---77777777q<-,,7qt2*--<7MGHq-2[[[[[[[[",
"[[[[[[[EEERRvr77q2,--,2q2722-======-22<,,--<21*---=-mRq*[[[[[[[[",
"[[[[[[[EEHrq277,,-:277,,=+++oXXXXXXX@+@1,12,-,t7---:tnw-[[[[[[[[",
"[[[[[[[Rmw2q22-,,2<--@ooX o XXXXXXXXXXXoo@-=,,-rqmmnr2,*[[[[[[[[",
"[[[[[[[cq2q1*-2,,8=,3X  XXXXXXXXXXXXXXX.XXXXO+-@1qqq>-@@[[[[[[[[",
"[[[[[[[,22-*-2-C0!163XXXXXXXXXXXXXXXXXXXXXXXXXoo@-,-==*7[[[[[[[[",
"[[[[[[[n2q2>7:3Lj!ag3XXXXXXXX XXXXXXXXXXXXXXXXXXo2mGmRRG[[[[[[[[",
"[[[[[[[MEmGRn,sLhYg33XXXXXXXXXXXXXXXXXXXXXXXXXXXX-7w1rtw[[[[[[[[",
"[[[[[[[7q-1q7*UUhYs33XXXXXXXXXXXXXXXXXXXXXXXXXXXX@7<=727[[[[[[[[",
"[[[[[[[72-,q7=LLiYu33 XXXXXXXXXXXXXXXXXXXXXXXXXXX=7<-777[[[[[[[[",
"[[[[[[[77=,77*JLhLu33 XXXXXXXXXXXXXXXXXXXXXXXXXXX*7q2277[[[[[[[[",
"[[[[[[[,q-,77=JLhLu:u;.XXXXXXXXXXXXXXXXXXXXXXXXXX*7<,q77[[[[[[[[",
"[[[[[[[-q=,77*KUiLspi3.XXXXXXXXXXXXXXXXXXXXX.XXXX*2,*q77[[[[[[[[",
"[[[[[[[-7-,74;HUhLB]D;.XXXXXXXXXXXXXXXXXXXXXXXXXX*q,*q77[[[[[[[[",
"[[[[[[[-q=,7eq-JhLQ'_9..XXXXXXXXXXXXXXXXXXXXXXXXX*q,*q72[[[[[[[[",
"[[[[[[[-q-,ttq*JiYIF]^y.XXXXXXXXXXXXXXXXXXXXXXXXX*q,=q7-[[[[[[[[",
"[[[[[[[-q,<q77*KhUuN`)S.XXXXXXX.XXXXXXXXXXXXXXXXo-,,=7q-[[[[[[[[",
"[[[[[[[-q=,777*KhU3x('A.XXXXXXXXXXXXXXXXXXXXXXXX@7w,=,q-[[[[[[[[",
"[[[[[[[22-,777=Kzaa>A/&XXXXXXX XXXXXXXXXXXXXXXXX@7rnr2q-[[[[[[[[",
"[[[[[[[[q;,777=JYau;3#XXXXXXXXXXXXXXXXXXXXXXXXXX$777777-[[[[[[[[",
"[[[[[[[[2,,777=UdJa33XXXXXXXXXXXXXXXXXXXXXXXXXXX*22,77q-[[[[[[[[",
"[[[[[[[[777777=J6Lu33XXXXXXXXXXXXXXXXXXXXXXXXXXX@22=777<[[[[[[[[",
"[[[[[[[[72q277*55Lu33XXXXXXXXXXXXXXXXXXXXXXXXXXX*2--7777[[[[[[[[",
"[[[[[[[[2q2q77*5sL033XXXXXXXXXXXXXXXXXXXXXXXXXXo@2=77727[[[[[[[[",
"[[[[[[[[-7q277*JhKa33XXXXX XXXXXXXXXXXXXXXXXXXXX@2-7q,-q[[[[[[[[",
"[[[[[[[[-q7q77=KsKu,3 XXXXXXXXXXXXX.XXXXXXXXXXXX*7777,=q[[[[[[[[",
"[[[[[[[[-q7777*dhLa3a%XXXXXXXXXXXXXXXXXXXXXXXXXX*<*q2,=q[[[[[[[[",
"[[[[[[[[-77q<-**uLu6YN XXXXXXXXXXXX.XXXXXXXXXXXX@<,2q,-q[[[[[[[[",
"[[[[[[[[-q7,--,*dKsBz$XXXXXX XXXXXXXXXX.XXXXXXX#@*2qq,-q[[[[[[[[",
"[[[[[[[[-q7<re7=kKhP;XXXXXXXXXXXXXXXXXXXXXXXXXXX@*q22,=7[[[[[[[[",
"[[[[[[[[,72ce<7*sLla; XXXXXXXXXXXXXXXXXXXXXXXXXX@*777,=q[[[[[[[[",
"[[[[[[[[77777*<*iYP:5 XXXXXXXXXXXXX.XXXXXXXXXXXX@@77q--q[[[[[[[[",
"[[[[[[[[77777=<=sYa33XXXXXXXXXXXXXXXXXXXX.XXXXXX@-77q,-q[[[[[[[[",
"[[[[[[[[77777*<$sP:33 XXXXXXXXXXXXXXXXXXXXXXXXXX*2777<<2[[[[[[[[",
"[[[[[[[[qqqq2*<*ka0,3 XXXXXXXXXXXXXXXX XXXXXXXX.@2q7qq,@[[[[[[[[",
"[[[[[[[[222qq*<-La033XXXXXXXXXXXXXXXXXXXXXXXXXXo=77727-@[[[[[[[[",
"[[[[[[[[@,227*<*aJa33XXXXXXXXXXXXXXXXXXXXXXXXX.*cr777q-@[[[[[[[[",
"[[[[[[[[@,q22=,*>Ka;oXXXXXXXXXXXXXXXXXXXXXXX.X.@qe772<,@[[[[[[[[",
"[[[[[[[[@:q-<2**4Ka+XXXXXXXXXXXXXXXXXXXXXXXXXXX@222q,-,@[[[[[[[[",
"[[[[[[[[@:q*,q*,3K5 XXXXXXXXXXXXXXX.XXXXXXXXXXX*2qq2<=,[[[[[[[[[",
"[[[[[[[[@-q*,q*<=J$XXXXXX XXXXXXXXXXXXXXXXXXXXX@777q7:@[[[[[[[[[",
"[[[[[[[[@:q,-<*,=dXXXXXXXXXXXXXXX.X.XXXXXXXXXXX@2q<-7,@[[[[[[[[[",
"[[[[[[[[@-7q*<*<*:XXXXXXX.....ooooooooXXXXXXXXX@27<=q,@[[[[[[[[[",
"[[[[[[[[[*<7=<<=@XXXXXoXO+++++@@@@@@+@++oXXXXXX@77<*7-@[[[[[[[[[",
"[[[[[[[[[@,7,<7*@XXXoo@@@@@@@@@@@@oooo+@@@OoXXX*2q<=,@@[[[[[[[[[",
"[[[[[[[[[*,2*<-@@XXoooo+@@*@@@ooooO@@@*+oooOOOX@22<=,@@[[[[[[[[[",
"[[[[[[[[[@,<*<*@@XO+OOOO+O@@@@@@@+@@@@@@+oOoXoX@2=q,@@@[[[[[[[[[",
"[[[[[[[[[@**@,*@@XXXo+O+++@@@@@@@@@@*@*@@O+ooXX@=*2=@+o[[[[[[[[[",
"[[[[[[[[[O+@o@@+XXOOo+++++O+O+oX.XXo++O++++OOoX++=,+ooX[[[[[[[[[",
"[[[[[[[[[Xoo.oO.XXXXX.XXXX..XXXXX.XX.XX.XXXXXXX.o*@oXXX[[[[[[[[["
};
