/* XPM */
static char *result[] = {
/* columns rows colors chars-per-pixel */
"64 64 52 1 ",
"  c #625143",
". c #6B5542",
"X c #695845",
"o c #715742",
"O c #745842",
"+ c #7C5B41",
"@ c #756156",
"# c #815E42",
"$ c #856143",
"% c #8B6545",
"& c #8F6846",
"* c #936A46",
"= c #986D47",
"- c #956B48",
"; c #9A6E48",
": c #937043",
"> c #9B7743",
", c #9D7943",
"< c #9E7149",
"1 c #A2744B",
"2 c #A7784F",
"3 c #A9794F",
"4 c #AD7C51",
"5 c #B17F53",
"6 c #857067",
"7 c #887163",
"8 c #8D7668",
"9 c #AC8644",
"0 c #A6864C",
"q c #B58255",
"w c #B88457",
"e c #B68358",
"r c #BA8659",
"t c #BF895B",
"y c #BE9E53",
"u c #97817A",
"i c #C38C5D",
"p c #C7905F",
"a c #C2A355",
"s c #C9AA57",
"d c #C5A65A",
"f c #C7AA5D",
"g c #CBAC59",
"h c #CB9362",
"j c #D09664",
"k c #D29865",
"l c #CCB060",
"z c #A48D82",
"x c #AC9C93",
"c c #B3A094",
"v c #BBAA9D",
"b c None",
/* pixels */
"bbbbbbbbbbbbbbbbbbbbbbbbbbbbbbbbbbbbbbbbbbbbbbbbbbbbbbbbbbbbbbbb",
"bbbbbbbbbbbbbbbbbbbbbbbbbbbbbbbbbbbbbbbbbbbbbbbbbbbbbbbbbbbbbbbb",
"bbbbbbbbbbbbbbbbbbbbbbbbbbbbbbbbbbbbbbbbbbbbbbbbbbbbbbbbbbbbbbbb",
"bbbbbbbbbbbbbbbbbbbbbbbbbbbbbbbbbbbbbbbbbbbbbbbbbbbbbbbbbbbbbbbb",
"bbbbbbbbbbbbbbbbbbbbbbbbbbbbbbbbbbbbbbbbbbbbbbbbbbbbbbbbbbbbbbbb",
"bbbbbbbbbbbbbbbbbbbbbbbbbbbbbbbbbbbbbbbbbbbbbbbbbbbbbbbbbbbbbbbb",
"bbbbbbbbbbbbbbbbbbbbbbbbbbbbbbbbbbbbbbbbbbbbbbbbbbbbbbbbbbbbbbbb",
"bbbbbbbbbbbbbbbbbbbbbbjjjjjjjjjjjjjjhq111bbbbbbbbbbbbbbbbbbbbbbb",
"bbbbbbbbbbbbbbbbbbbjjjjjjhjjjjjjjjjjkjphhi41bbbbbbbbbbbbbbbbbbbb",
"bbbbbbbbbbbbbbjjjjjjjjjhhhhhhjjjjjhqrhkkkjjiwii3<bbbbbbbbbbbbbbb",
"bbbbbbbbbbbbjjjjjjjhittrqqqhrhjhjjhhiqiipjjiwjkh41<bbbbbbbbbbbbb",
"bbbbbbbbbbbjhjjhpqq53ttpjjjjhhhhhhhpip4;33iiijw5irr1bbbbbbbbbbbb",
"bbbbbbbbbjjjjjiqwphhhjpiitttqqq11113ripi4;*;wippwq1re4bbbbbbbbbb",
"bbbbbbbbjjjjjjijjjhi553;;;;;4541;1<<;=155q51#-55hhir22;bbbbbbbbb",
"bbbbbbbjjjjjjjitr111;**1-%%%;<<11<<<1=&&*;15=#%%-<tii1%;bbbbbbbb",
"bbbbbbbjjjhhw4<<1;=$%*;1;<;;%$$$$$$%;;=**&&*;=#%%%$&rh2#bbbbbbbb",
"bbbbbbbjjp41<;<*&%&;;<**+XOO.      .OO$---<*%*5;%%%&ee<%bbbbbbbb",
"bbbbbbbht2;<<;%*-;;$$+..                .+$$-*%41rrw4<*#bbbbbbbb",
"bbbbbbbq1<<-$%--*OO                         oO%#*111&%++bbbbbbbb",
"bbbbbbb*;-&+$;%$.                              .+%*%$$$;bbbbbbbb",
"bbbbbbbe<<<-<%=:                                 <withhibbbbbbbb",
"bbbbbbbthrihw*99                                 %12*4q1bbbbbbbb",
"bbbbbbb<1%-1<$ggX                                #<*$<<<bbbbbbbb",
"bbbbbbb<<%*<<$asX                                $<=$1<<bbbbbbbb",
"bbbbbbb<<$*<;#dgX                                +<<;;<<bbbbbbbb",
"bbbbbbb*1%*<1#ag.                                #<=&1<<bbbbbbbb",
"bbbbbbb%1%*<1#agX                                #;=$1<<bbbbbbbb",
"bbbbbbb%<$*<;$yg6                                #1*#1<<bbbbbbbb",
"bbbbbbb%1$*;31%sz@                              .#<*$1<;bbbbbbbb",
"bbbbbbb%1%*5q1#svu                               #1*#1<%bbbbbbbb",
"bbbbbbb%1==11;$dcx                              .%**$<<&bbbbbbbb",
"bbbbbbb%<$*<;<$dzx                              +<4%$*<&bbbbbbbb",
"bbbbbbb<<%&<<<$a6@                              o<1r4<<%bbbbbbbb",
"bbbbbbbb<%*<<<$y                                +;<<<<<%bbbbbbbb",
"bbbbbbbb<&:<<<$a                                +<<-<<<%bbbbbbbb",
"bbbbbbbb<<<<<<$y.                               +;;#<<<=bbbbbbbb",
"bbbbbbbb<<<<<<$dX                               #<&%<<<<bbbbbbbb",
"bbbbbbbb<<<<<<$aX                               +-#<<<<<bbbbbbbb",
"bbbbbbbb&<<<<<#>                                +-&<<*%<bbbbbbbb",
"bbbbbbbb%<<<<<$1                                $<<<<*%<bbbbbbbb",
"bbbbbbbb%<<<<<#0X                               +=$<<*$1bbbbbbbb",
"bbbbbbbb&<<<;%++                                +=*<<*%<bbbbbbbb",
"bbbbbbbb%<<=%#;#                                +$<<1*%<bbbbbbbb",
"bbbbbbbb*<<;53<#.                               +#<<<&%1bbbbbbbb",
"bbbbbbbb*<;54=;+                                +#<<<*%<bbbbbbbb",
"bbbbbbbb<<<<;#;#                                ++<<<&%<bbbbbbbb",
"bbbbbbbb<<<<1#;+                                +$<<<*%1bbbbbbbb",
"bbbbbbbb<<<<<#-+                                +<<<<==<bbbbbbbb",
"bbbbbbbb<<<<<#=+.                               +<<<11&+bbbbbbbb",
"bbbbbbbb;<<<<#;#                               .%<<<;<%+bbbbbbbb",
"bbbbbbbb+*<<<$=+                               +q4<<<1%+bbbbbbbb",
"bbbbbbbb+&<<<$-+                               +<3<<1;&+bbbbbbbb",
"bbbbbbbb+&1$*;#+                               +<<<<*$&+bbbbbbbb",
"bbbbbbbb+&1$*1#&o                              +=<<1*%&bbbbbbbbb",
"bbbbbbbb+%1$*1#=+                              #<<<<1&+bbbbbbbbb",
"bbbbbbbb+&1*%=#=+                              +<<=%<*+bbbbbbbbb",
"bbbbbbbb+%11#=#=+             ..  ....         +<<=#<*+bbbbbbbbb",
"bbbbbbbbb$*1$=*$+       .OOOoo+++++++O+O.      +<<=$<%+bbbbbbbbb",
"bbbbbbbbb+&;*;1++   .oO+++++++++++..o.o+++o.   +=<=#=++bbbbbbbbb",
"bbbbbbbbb+*1$=%++  .o.oO++++++o...o++++O.o..oo +=<;$*++bbbbbbbbb",
"bbbbbbbbb+*=$=+++ ooooooOo+++++++O++++++o.oo.  +=$<=#++bbbbbbbbb",
"bbbbbbbbb+#++*$++   .OoOOO+++++++++O+++++OO. . +$#=$+O.bbbbbbbbb",
"bbbbbbbbbOO+.++O  oooooOOOoooo.    .OOOOoOOo.o oO$&O.. bbbbbbbbb",
"bbbbbbbbb .. ..                                 .$+.   bbbbbbbbb"
};
