/* XPM */
static char *result[] = {
/* columns rows colors chars-per-pixel */
"64 64 14 1 ",
"  c black",
". c #997700",
"X c #CC8800",
"o c #DDAA00",
"O c #E4B800",
"+ c #E7BF00",
"@ c #E9C300",
"# c #EECB00",
"$ c #EECD00",
"% c #F1D200",
"& c #F6DC00",
"* c #FFEE00",
"= c #F8F8F8",
"- c white",
/* pixels */
"                    ....................                        ",
"                    ....................                        ",
"                    ....................                        ",
"                    ....................                        ",
"                ....************++++$$$$....                    ",
"                ....************++++$$$$....                    ",
"                ....************++++$$$$....                    ",
"                ....************++++$$$$....                    ",
"            ....------------oooooooo++++$$$$....                ",
"            ....------------oooooooo++++$$$$....                ",
"            ....------------oooooooo++++$$$$....                ",
"            ....------------oooooooo++++$$$$....                ",
"        ....------------OOOOXXXXXXXX++++++++$$$$....            ",
"        ....------------OOOOXXXXXXXX++++++++$$$$....            ",
"        ....------------OOOOXXXXXXXX++++++++$$$$....            ",
"        ....------------OOOOXXXXXXXX++++++++$$$$....            ",
"        ....********####oooooooooooo====oooo++++....            ",
"        ....********####oooooooooooo====oooo++++....            ",
"        ....********####oooooooooooo====oooo++++....            ",
"        ....********####oooooooooooo====oooo++++....            ",
"    ....************OOOOXXXXooooooooXXXX====oooo$$$$....        ",
"    ....************OOOOXXXXooooooooXXXX====oooo$$$$....        ",
"    ....************OOOOXXXXooooooooXXXX====oooo$$$$....        ",
"    ....************OOOOXXXXooooooooXXXX====oooo$$$$....        ",
"    ....************ooooXXXXoooo****oooo====oooo$$$$....        ",
"    ....************ooooXXXXoooo****oooo====oooo$$$$....        ",
"    ....************ooooXXXXoooo****oooo====oooo$$$$....        ",
"    ....************ooooXXXXoooo****oooo====oooo$$$$....        ",
"    ....********@@@@ooooXXXXoooo****oooo====oooo$$$$....        ",
"    ....********@@@@ooooXXXXoooo****oooo====oooo$$$$....        ",
"    ....********@@@@ooooXXXXoooo****oooo====oooo$$$$....        ",
"    ....********@@@@ooooXXXXoooo****oooo====oooo$$$$....        ",
"    ....&&&&%%%%@@@@ooooXXXXoooooooooooo====oooo$$$$....        ",
"    ....&&&&%%%%@@@@ooooXXXXoooooooooooo====oooo$$$$....        ",
"    ....&&&&%%%%@@@@ooooXXXXoooooooooooo====oooo$$$$....        ",
"    ....&&&&%%%%@@@@ooooXXXXoooooooooooo====oooo$$$$....        ",
"    ....********@@@@ooooXXXXoooo****oooo====oooo$$$$....        ",
"    ....********@@@@ooooXXXXoooo****oooo====oooo$$$$....        ",
"    ....********@@@@ooooXXXXoooo****oooo====oooo$$$$....        ",
"    ....********@@@@ooooXXXXoooo****oooo====oooo$$$$....        ",
"    ....************ooooXXXXoooo****oooo====++++$$$$....        ",
"    ....************ooooXXXXoooo****oooo====++++$$$$....        ",
"    ....************ooooXXXXoooo****oooo====++++$$$$....        ",
"    ....************ooooXXXXoooo****oooo====++++$$$$....        ",
"        ....####@@@@OOOOoooo====oooo====oooo++++....            ",
"        ....####@@@@OOOOoooo====oooo====oooo++++....            ",
"        ....####@@@@OOOOoooo====oooo====oooo++++....            ",
"        ....####@@@@OOOOoooo====oooo====oooo++++....            ",
"        ....%%%%####OOOOoooooooo====oooooooo$$$$....            ",
"        ....%%%%####OOOOoooooooo====oooooooo$$$$....            ",
"        ....%%%%####OOOOoooooooo====oooooooo$$$$....            ",
"        ....%%%%####OOOOoooooooo====oooooooo$$$$....            ",
"            ....****@@@@OOOOoooooooooooo++++....                ",
"            ....****@@@@OOOOoooooooooooo++++....                ",
"            ....****@@@@OOOOoooooooooooo++++....                ",
"            ....****@@@@OOOOoooooooooooo++++....                ",
"                ....************oooo++++....                    ",
"                ....************oooo++++....                    ",
"                ....************oooo++++....                    ",
"                ....************oooo++++....                    ",
"                    ....................                        ",
"                    ....................                        ",
"                    ....................                        ",
"                    ....................                        "
};
