/* XPM */
static char *result[] = {
/* columns rows colors chars-per-pixel */
"64 64 5 1 ",
"  c black",
". c #997700",
"X c #DDAA00",
"o c #FFEE00",
"O c white",
/* pixels */
"                    ....................                        ",
"                    ....................                        ",
"                    ....................                        ",
"                    ....................                        ",
"                    ....oooooooooooo....                        ",
"                    ....oooooooooooo....                        ",
"                    ....oooooooooooo....                        ",
"                    ....oooooooooooo....                        ",
"                    ....OOOOOOOOOOOO....                        ",
"                    ....OOOOOOOOOOOO....                        ",
"                    ....OOOOOOOOOOOO....                        ",
"                    ....OOOOOOOOOOOO....                        ",
"                    ....OOOOOOOOOOOO....                        ",
"                    ....OOOOOOOOOOOO....                        ",
"                    ....OOOOOOOOOOOO....                        ",
"                    ....OOOOOOOOOOOO....                        ",
"                    ....oooooooooooo....                        ",
"                    ....oooooooooooo....                        ",
"                    ....oooooooooooo....                        ",
"                    ....oooooooooooo....                        ",
"                    ....oooooooooooo....                        ",
"                    ....oooooooooooo....                        ",
"                    ....oooooooooooo....                        ",
"                    ....oooooooooooo....                        ",
"                    ....oooooooooooo....                        ",
"                    ....oooooooooooo....                        ",
"                    ....oooooooooooo....                        ",
"                    ....oooooooooooo....                        ",
"                    ....oooooooooooo....                        ",
"                    ....oooooooooooo....                        ",
"                    ....oooooooooooo....                        ",
"                    ....oooooooooooo....                        ",
"                    ....oooooooooooo....                        ",
"                    ....oooooooooooo....                        ",
"                    ....oooooooooooo....                        ",
"                    ....oooooooooooo....                        ",
"                    ....XXXXXXXXXXXX....                        ",
"                    ....XXXXXXXXXXXX....                        ",
"                    ....XXXXXXXXXXXX....                        ",
"                    ....XXXXXXXXXXXX....                        ",
"                    ....oooooooooooo....                        ",
"                    ....oooooooooooo....                        ",
"                    ....oooooooooooo....                        ",
"                    ....oooooooooooo....                        ",
"                    ....oooooooooooo....                        ",
"                    ....oooooooooooo....                        ",
"                    ....oooooooooooo....                        ",
"                    ....oooooooooooo....                        ",
"                    ....XXXXXXXXXXXX....                        ",
"                    ....XXXXXXXXXXXX....                        ",
"                    ....XXXXXXXXXXXX....                        ",
"                    ....XXXXXXXXXXXX....                        ",
"                    ....XXXXXXXXXXXX....                        ",
"                    ....XXXXXXXXXXXX....                        ",
"                    ....XXXXXXXXXXXX....                        ",
"                    ....XXXXXXXXXXXX....                        ",
"                    ....oooooooooooo....                        ",
"                    ....oooooooooooo....                        ",
"                    ....oooooooooooo....                        ",
"                    ....oooooooooooo....                        ",
"                    ....................                        ",
"                    ....................                        ",
"                    ....................                        ",
"                    ....................                        "
};
