/* XPM */
static char *result[] = {
/* columns rows colors chars-per-pixel */
"64 64 7 1 ",
"  c None",
". c #997700",
"X c #CC8800",
"o c #DDAA00",
"O c #FFEE00",
"+ c #F8F8F8",
"@ c white",
/* pixels */
"                    ....................                        ",
"                    ....................                        ",
"                    ....................                        ",
"                    ....................                        ",
"                ....OOOOoooooooooooooooo....                    ",
"                ....OOOOoooooooooooooooo....                    ",
"                ....OOOOoooooooooooooooo....                    ",
"                ....OOOOoooooooooooooooo....                    ",
"            ....@@@@@@@@@@@@oooooooooooooooo....                ",
"            ....@@@@@@@@@@@@oooooooooooooooo....                ",
"            ....@@@@@@@@@@@@oooooooooooooooo....                ",
"            ....@@@@@@@@@@@@oooooooooooooooo....                ",
"            ....@@@@@@@@XXXXOOOOoooooooooooo....                ",
"            ....@@@@@@@@XXXXOOOOoooooooooooo....                ",
"            ....@@@@@@@@XXXXOOOOoooooooooooo....                ",
"            ....@@@@@@@@XXXXOOOOoooooooooooo....                ",
"        ....OOOOOOOOXXXXOOOOOOOOoooooooooooooooo....            ",
"        ....OOOOOOOOXXXXOOOOOOOOoooooooooooooooo....            ",
"        ....OOOOOOOOXXXXOOOOOOOOoooooooooooooooo....            ",
"        ....OOOOOOOOXXXXOOOOOOOOoooooooooooooooo....            ",
"        ....OOOOOOOOXXXXOOOO++++OOOOoooooooooooo....            ",
"        ....OOOOOOOOXXXXOOOO++++OOOOoooooooooooo....            ",
"        ....OOOOOOOOXXXXOOOO++++OOOOoooooooooooo....            ",
"        ....OOOOOOOOXXXXOOOO++++OOOOoooooooooooo....            ",
"        ....OOOOOOOOXXXXOOOO++++OOOOoooooooooooo....            ",
"        ....OOOOOOOOXXXXOOOO++++OOOOoooooooooooo....            ",
"        ....OOOOOOOOXXXXOOOO++++OOOOoooooooooooo....            ",
"        ....OOOOOOOOXXXXOOOO++++OOOOoooooooooooo....            ",
"        ....OOOOOOOOXXXXOOOO++++OOOOoooooooooooo....            ",
"        ....OOOOOOOOXXXXOOOO++++OOOOoooooooooooo....            ",
"        ....OOOOOOOOXXXXOOOO++++OOOOoooooooooooo....            ",
"        ....OOOOOOOOXXXXOOOO++++OOOOoooooooooooo....            ",
"        ....OOOOOOOOXXXXOOOO++++OOOOoooooooooooo....            ",
"        ....OOOOOOOOXXXXOOOO++++OOOOoooooooooooo....            ",
"        ....OOOOOOOOXXXXOOOO++++OOOOoooooooooooo....            ",
"        ....OOOOOOOOXXXXOOOO++++OOOOoooooooooooo....            ",
"        ....OOOOOOOOXXXXOOOO++++OOOOoooooooooooo....            ",
"        ....OOOOOOOOXXXXOOOO++++OOOOoooooooooooo....            ",
"        ....OOOOOOOOXXXXOOOO++++OOOOoooooooooooo....            ",
"        ....OOOOOOOOXXXXOOOO++++OOOOoooooooooooo....            ",
"        ....OOOOOOOOXXXXOOOO++++oooooooooooooooo....            ",
"        ....OOOOOOOOXXXXOOOO++++oooooooooooooooo....            ",
"        ....OOOOOOOOXXXXOOOO++++oooooooooooooooo....            ",
"        ....OOOOOOOOXXXXOOOO++++oooooooooooooooo....            ",
"        ....OOOOOOOOOOOO++++OOOOoooooooooooooooo....            ",
"        ....OOOOOOOOOOOO++++OOOOoooooooooooooooo....            ",
"        ....OOOOOOOOOOOO++++OOOOoooooooooooooooo....            ",
"        ....OOOOOOOOOOOO++++OOOOoooooooooooooooo....            ",
"            ....OOOOOOOOOOOOOOOOoooooooooooo....                ",
"            ....OOOOOOOOOOOOOOOOoooooooooooo....                ",
"            ....OOOOOOOOOOOOOOOOoooooooooooo....                ",
"            ....OOOOOOOOOOOOOOOOoooooooooooo....                ",
"            ....OOOOOOOOOOOOoooooooooooooooo....                ",
"            ....OOOOOOOOOOOOoooooooooooooooo....                ",
"            ....OOOOOOOOOOOOoooooooooooooooo....                ",
"            ....OOOOOOOOOOOOoooooooooooooooo....                ",
"                ....oooooooooooooooooooo....                    ",
"                ....oooooooooooooooooooo....                    ",
"                ....oooooooooooooooooooo....                    ",
"                ....oooooooooooooooooooo....                    ",
"                    ....................                        ",
"                    ....................                        ",
"                    ....................                        ",
"                    ....................                        "
};
