/* XPM */
static char *result[] = {
/* columns rows colors chars-per-pixel */
"64 64 6 1 ",
"  c None",
". c #997700",
"X c #CC8800",
"o c #DDAA00",
"O c #FFEE00",
"+ c white",
/* pixels */
"                    ....................                        ",
"                    ....................                        ",
"                    ....................                        ",
"                    ....................                        ",
"            ........++++++++OOOOoooooooo........                ",
"            ........++++++++OOOOoooooooo........                ",
"            ........++++++++OOOOoooooooo........                ",
"            ........++++++++OOOOoooooooo........                ",
"        ....++++++++OOOOOOOOOOOOOOOOoooooooooooo....            ",
"        ....++++++++OOOOOOOOOOOOOOOOoooooooooooo....            ",
"        ....++++++++OOOOOOOOOOOOOOOOoooooooooooo....            ",
"        ....++++++++OOOOOOOOOOOOOOOOoooooooooooo....            ",
"    ....++++OOOOOOOOXXXXXXXXXXXXOOOOOOOOoooooooooooo....        ",
"    ....++++OOOOOOOOXXXXXXXXXXXXOOOOOOOOoooooooooooo....        ",
"    ....++++OOOOOOOOXXXXXXXXXXXXOOOOOOOOoooooooooooo....        ",
"    ....++++OOOOOOOOXXXXXXXXXXXXOOOOOOOOoooooooooooo....        ",
"    ....OOOOOOOOXXXXoooooooooooo++++OOOOOOOOoooooooo....        ",
"    ....OOOOOOOOXXXXoooooooooooo++++OOOOOOOOoooooooo....        ",
"    ....OOOOOOOOXXXXoooooooooooo++++OOOOOOOOoooooooo....        ",
"    ....OOOOOOOOXXXXoooooooooooo++++OOOOOOOOoooooooo....        ",
"....++++OOOOXXXXooooooooOOOOooooXXXX++++OOOOoooooooooooo....    ",
"....++++OOOOXXXXooooooooOOOOooooXXXX++++OOOOoooooooooooo....    ",
"....++++OOOOXXXXooooooooOOOOooooXXXX++++OOOOoooooooooooo....    ",
"....++++OOOOXXXXooooooooOOOOooooXXXX++++OOOOoooooooooooo....    ",
"....OOOOOOOOXXXXooooOOOOooooOOOOoooo++++OOOOOOOOoooooooo....    ",
"....OOOOOOOOXXXXooooOOOOooooOOOOoooo++++OOOOOOOOoooooooo....    ",
"....OOOOOOOOXXXXooooOOOOooooOOOOoooo++++OOOOOOOOoooooooo....    ",
"....OOOOOOOOXXXXooooOOOOooooOOOOoooo++++OOOOOOOOoooooooo....    ",
"....OOOOOOOOXXXXooooOOOOoooooooooooo++++OOOOOOOOoooooooo....    ",
"....OOOOOOOOXXXXooooOOOOoooooooooooo++++OOOOOOOOoooooooo....    ",
"....OOOOOOOOXXXXooooOOOOoooooooooooo++++OOOOOOOOoooooooo....    ",
"....OOOOOOOOXXXXooooOOOOoooooooooooo++++OOOOOOOOoooooooo....    ",
"....OOOOOOOOXXXXooooOOOOoooooooooooo++++OOOOOOOOoooooooo....    ",
"....OOOOOOOOXXXXooooOOOOoooooooooooo++++OOOOOOOOoooooooo....    ",
"....OOOOOOOOXXXXooooOOOOoooooooooooo++++OOOOOOOOoooooooo....    ",
"....OOOOOOOOXXXXooooOOOOoooooooooooo++++OOOOOOOOoooooooo....    ",
"....OOOOOOOOXXXXooooOOOOooooOOOOoooo++++OOOOOOOOoooooooo....    ",
"....OOOOOOOOXXXXooooOOOOooooOOOOoooo++++OOOOOOOOoooooooo....    ",
"....OOOOOOOOXXXXooooOOOOooooOOOOoooo++++OOOOOOOOoooooooo....    ",
"....OOOOOOOOXXXXooooOOOOooooOOOOoooo++++OOOOOOOOoooooooo....    ",
"....OOOOOOOOOOOOooooooooOOOOoooooooo++++OOOOoooooooooooo....    ",
"....OOOOOOOOOOOOooooooooOOOOoooooooo++++OOOOoooooooooooo....    ",
"....OOOOOOOOOOOOooooooooOOOOoooooooo++++OOOOoooooooooooo....    ",
"....OOOOOOOOOOOOooooooooOOOOoooooooo++++OOOOoooooooooooo....    ",
"    ....OOOOOOOO++++oooooooooooo++++OOOOOOOOoooooooo....        ",
"    ....OOOOOOOO++++oooooooooooo++++OOOOOOOOoooooooo....        ",
"    ....OOOOOOOO++++oooooooooooo++++OOOOOOOOoooooooo....        ",
"    ....OOOOOOOO++++oooooooooooo++++OOOOOOOOoooooooo....        ",
"    ....OOOOOOOOOOOO++++++++++++OOOOOOOOoooooooooooo....        ",
"    ....OOOOOOOOOOOO++++++++++++OOOOOOOOoooooooooooo....        ",
"    ....OOOOOOOOOOOO++++++++++++OOOOOOOOoooooooooooo....        ",
"    ....OOOOOOOOOOOO++++++++++++OOOOOOOOoooooooooooo....        ",
"        ....OOOOOOOOOOOOOOOOOOOOOOOOoooooooooooo....            ",
"        ....OOOOOOOOOOOOOOOOOOOOOOOOoooooooooooo....            ",
"        ....OOOOOOOOOOOOOOOOOOOOOOOOoooooooooooo....            ",
"        ....OOOOOOOOOOOOOOOOOOOOOOOOoooooooooooo....            ",
"            ........OOOOOOOOOOOOoooooooo........                ",
"            ........OOOOOOOOOOOOoooooooo........                ",
"            ........OOOOOOOOOOOOoooooooo........                ",
"            ........OOOOOOOOOOOOoooooooo........                ",
"                    ....................                        ",
"                    ....................                        ",
"                    ....................                        ",
"                    ....................                        "
};
