/* XPM */
static char *result[] = {
/* columns rows colors chars-per-pixel */
"64 64 20 1 ",
"  c black",
". c #2B1F0E",
"X c #281820",
"o c #433016",
"O c #4B3618",
"+ c #7B5828",
"@ c #293D4B",
"# c gray26",
"$ c #9E3E37",
"% c #B2803B",
"& c #D28560",
"* c #EAA377",
"= c #50D4EC",
"- c #958080",
"; c #C4B59F",
": c #FDD5B7",
"> c #E5E6C7",
", c #FBECE6",
"< c #F2F8F9",
"1 c white",
/* pixels */
"                                                                ",
"                                                                ",
"                                                                ",
"                                                                ",
"                                                                ",
"                                                                ",
"                                                                ",
"                                                                ",
"                                                                ",
"                                                                ",
"                                                                ",
"                                                                ",
"                                                                ",
"                                                                ",
"                                                                ",
"                           XXXXXXXXX                            ",
"                         XX$&*:::*&$XX                          ",
"                        X$&::::::::*&$X                         ",
"                       X$*::::::::::**$X                        ",
"                       X*::,,,:::::::**X                        ",
"                      X$:::,,,::::::::*$X                       ",
"                      X&:::,,,::::::::*&X                       ",
"                      X*::::::::::::::**X                       ",
"                      X::::::::::::::::*X                       ",
"                      X::::::::::::::::*X                       ",
"                      X::::::::::::::::*X                       ",
"                      X*:&&&::::::::::::X                       ",
"                      X&*&:&*:::::::::::X                       ",
"                      X&*&::**:::,,::::*X                       ",
"                       X&&:::*:*&$$*:::X                        ",
"                        X$&:**:*==XX:::X                        ",
"                         X$$***::<@@:::X                        ",
"                         XX&*:::::::::*X                        ",
"                        XXX$&*:::::::&X                         ",
"                       X#;;X$&*::::*$XX                         ",
"                      X#111>X$$$$$$$XXX                         ",
"                      X;111>>XXXXXXX---X                        ",
"                     X#>11>>>>>;;;;;;;;X                        ",
"                     X->>>>>>>>>>>>>>>>X                        ",
"                    X#>>>>#;;>>>>>>>>>>X                        ",
"                    X->>>#-->>>>>>>>>>;X                        ",
"                    X>>>-X#;>>>11>>>>>;X                        ",
"                    X;>>;#X;;;>>111>>>#XXX                      ",
"                    X#>1>;#XXX;--;;>>;X$&&X                     ",
"                     X#>1>X*&$X;>>>11-X&&&X                     ",
"                      X->X::::&X>11>>XX&&&X                     ",
"                       XXX::,::XXXXXXoX&&$X                     ",
"                        XX::::$X+++++o.&&X                      ",
"                         X$::$X++++++O.XX                       ",
"                          XXXX++OooO++.                         ",
"                          .++%%+o.OO++.                         ",
"                         .o++%%+.oO++O.                         ",
"                         .o+%%%o.o+++o                          ",
"                         .O%%%O..O++O.                          ",
"                         .O+%+o..O++o.                          ",
"                         ......1......                          ",
"                        X$***XX1X**:*&XX                        ",
"                        X&**&&XXX**::***X                       ",
"                        X**::*$XX$*:::::X                       ",
"                        X&&:::::&XXXXXXXX                       ",
"                         X&&*::**X                              ",
"                          XXXXXXX                               ",
"                                                                ",
"                                                                "
};
