/* XPM */
static char *result[] = {
/* columns rows colors chars-per-pixel */
"64 64 21 1 ",
"  c black",
". c #2B1F0E",
"X c #281820",
"o c #433016",
"O c #4B3618",
"+ c #7B5828",
"@ c #293D4B",
"# c gray26",
"$ c #9E3E37",
"% c #B2803B",
"& c #D28560",
"* c #EAA377",
"= c #5187B3",
"- c #50D4EC",
"; c #958080",
": c #C4B59F",
"> c #FDD5B7",
", c #E5E6C7",
"< c #FBECE6",
"1 c #F2F8F9",
"2 c white",
/* pixels */
"                                                                ",
"                                                                ",
"                                                                ",
"                                                                ",
"                                                                ",
"                                                                ",
"                                                                ",
"                                                                ",
"                                                                ",
"                                                                ",
"                                                                ",
"                                                                ",
"                                                                ",
"                                                                ",
"                                                                ",
"                           XXXXXXXXX                            ",
"                         XX$&*>>>*&$XX                          ",
"                        X$&>>>>>>>>*&$X                         ",
"                       X$*>>>>>>>>>>**$X                        ",
"                       X*>><<<>>>>>>>**X                        ",
"                      X$>>><<<>>>>>>>>*$X                       ",
"                      X&>>><<<>>>>>>>>*&X                       ",
"                      X*>>>>>>>>>>>>>>**X                       ",
"                      X>>>>>>>>>>>>>>>>*X                       ",
"                      X>>>>>>>>>>>>>>>>*X                       ",
"                XX    X>>>>>>>>>>>>>>>>*X                       ",
"              XX>&X   X*>&&&>>>>>>>>>>>>XXXXX                   ",
"             X$&>>X   X&*&>&*>>>><<>>>>>XX&$XX                  ",
"             X&&&>>X  X&*&>>**>*&$$*>>>*X&&$$X                  ",
"             X$&&>>$X  X&&>>>*>*--XX>>>X$$$$$X                  ",
"             X$$&&>$X   X$&>**>>11X=>>>X$$$$$X                  ",
"             XX$&&>>$X   X$$***>>1@@>>>XX$$$XX                  ",
"              X$$&>>&XX  XX&*>>>>>>>>>*X#X$$X                   ",
"               X$&>>*XXXXXX$&*>>>>>>>&X###XX                    ",
"                X$>>X:;;:::X$&*>>>>*$XX###X                     ",
"                 XXX:,,,222,X$$$$$$$XXX##X                      ",
"                   XX;,,222,,XXXXXXX;;;X#X                      ",
"                     X;,22,,,,,::::::::XX                       ",
"                      X#:::,,,,,,,,,,,,XX                       ",
"                       X#;:::,,,,,,,,,,XX                       ",
"                        X#;;,,,,,,,,,,:X                        ",
"                         X::,,,22,,,,,:X                        ",
"                         X;:::,,222,,,#X                        ",
"                         XX;;::;;::,,:X                         ",
"                          X;;:::,,,22;X                         ",
"                          XX;:::,22,,XX                         ",
"                          ..XXXXXXXXXo.                         ",
"                          .O++++%%%%+o.                         ",
"                          .O+++++++++O.                         ",
"                          .O+%%+o.OO++.                         ",
"                          .O+%%+o.OO++.                         ",
"                         ..++%%+.oO++O.                         ",
"                         .o+%%%o.o+++o.                         ",
"                         .O%%%O..O++O.                          ",
"                         .O+%+o..O++o.                          ",
"                         ......2......                          ",
"                        X$***XX2X**>*&XX                        ",
"                        X&**&&XXX**>>***X                       ",
"                        X**>>*$XX$*>>>>>X                       ",
"                        X&&>>>>>&XXXXXXXX                       ",
"                         X&&*>>**X                              ",
"                          XXXXXXX                               ",
"                                                                ",
"                                                                "
};
